M48
;Layer_Color=9474304
;FILE_FORMAT=2:4
INCH,TZ
;TYPE=PLATED
T1F00S00C0.0079
T2F00S00C0.0157
T4F00S00C0.0300
T5F00S00C0.0315
T6F00S00C0.0354
T7F00S00C0.0390
T8F00S00C0.0394
T9F00S00C0.0402
T10F00S00C0.1000
T11F00S00C0.1772
%
T01
X16500Y20000
X16600Y21400
X20200Y20700
X21000Y20900
X22000
X22400
X23646Y21354
X23902Y21598
X24157Y21843
X24453Y22047
X25000Y22200
X25200Y22400
X22250Y24250
X22500Y24500
X22250Y24750
X22500Y25000
X22250Y26000
X22500Y26250
X22250Y26500
X22500Y26750
X18975Y27175
X18800Y27000
X19200Y27600
Y28000
Y28400
Y28800
Y29200
Y29600
Y30000
Y30400
X18200
Y30000
X18400Y29600
X26000Y29000
Y28500
X25750Y28250
Y28750
X27400Y29200
X30600
X24600Y17500
X21800Y17300
Y16700
X21200
Y17300
X20200Y17700
X14400Y20600
X13500Y21600
X13100
X14600Y25000
X15100
X15600
X13100Y31600
X14900Y34300
X16900
X18000Y34000
X18100Y32700
X18825Y32975
X19008Y32800
X19100Y35300
X19500
X18700
Y35900
X18100
Y35300
X16700Y35900
X19100Y36700
X19700
X20700
X21300
X21000Y34000
X21500Y33500
X22000Y33600
X23200
X21600Y32400
Y32000
X21400Y31800
Y32200
X28200
X28600Y32600
X28200Y33000
X29200
Y32200
X31000Y32400
X30000Y34800
Y35401
Y36000
X29800Y36900
Y37700
X29000
X28200
X27400
Y36900
X28200
X29000
Y38500
X29800
Y39300
X29000
X28200
X27400
Y38500
X28200
Y41500
X27800Y41700
X28600
X29000Y41500
X30400Y41700
X30800Y41500
X26200
Y42100
X25600
Y44300
X24197Y43203
X23200Y42700
X22972Y42900
X22800Y43900
Y44500
X21200
Y43900
X20600Y40500
Y40100
X20000
Y39700
X19400
Y40100
Y40500
X20000
X18800
Y40100
Y39700
X18200
Y40100
Y40500
X17600
Y40100
Y39700
X25200Y40200
X29400Y35401
X31640Y38019
T02
X15553Y33329
Y33663
Y33998
Y34333
Y34667
Y35002
Y35337
Y35671
X16085
Y35337
Y35002
Y34667
Y34333
Y33998
Y33663
Y33329
T04
X17200Y25900
X17000Y27800
X15100Y28000
Y25900
T05
X28000Y19031
Y21000
X28300Y27200
X29300
X30300
Y30200
X29300
X28300
X27300
X26300
X25300
X24300
X23300
Y27200
X24300
X25300
X26300
X27300
T06
X34016Y15000
X35000
X35984
X36516Y12500
X37500
X38484
X41516
X42500
X43484
X44016Y15000
X45000
X45984
Y17500
X45000
X44016
Y20000
X45000
X45984
Y22500
X45000
X44016
Y25500
X45000
X45984
Y28000
X45000
X44016
Y30500
X45000
X45984
X35984
X35000
X34016
Y28000
X35000
X35984
Y25500
X35000
X34016
Y22500
X35000
X35984
Y20000
X35000
X34016
Y17500
X35000
X35984
Y33000
X35000
X34016
Y36000
X35000
X35984
Y38500
X35000
X34016
Y41000
X35000
X35984
Y43500
X35000
X34016
X44000
X44984
X45968
X45984Y41000
X45000
X44016
Y38500
X45000
X45984
Y36000
X45000
X44016
Y33000
X45000
X45984
T07
X13344Y17120
X15116
Y19680
X13344
T08
X24500Y25000
X25484
X28016
X29000
T09
X14500Y12000
Y13000
Y14000
X16000
Y13000
Y12000
X17500
Y13000
Y14000
X19000
Y13000
Y12000
X20500
Y13000
Y14000
X22000
Y13000
Y12000
X23500
Y13000
Y14000
X25000
Y13000
Y12000
X26500
Y13000
Y14000
X28000
Y13000
Y12000
X29500
Y13000
Y14000
X31000
Y13000
Y12000
T10
X47000Y10500
X29000Y43000
X19000Y38000
T11
X14620Y40083
X14500Y42917
M30
