G04*
G04 #@! TF.GenerationSoftware,Altium Limited,Altium Designer,21.7.2 (23)*
G04*
G04 Layer_Color=16711935*
%FSLAX25Y25*%
%MOIN*%
G70*
G04*
G04 #@! TF.SameCoordinates,5233C9E9-E8BD-4DB4-A303-C3663256A2A9*
G04*
G04*
G04 #@! TF.FilePolarity,Positive*
G04*
G01*
G75*
%ADD11C,0.00787*%
%ADD16C,0.00500*%
%ADD92C,0.00394*%
%ADD93C,0.01041*%
D11*
X131394Y235394D02*
X130606D01*
X131394D01*
X136644Y425000D02*
X135856D01*
X136644D01*
X145394Y448268D02*
X144606D01*
X145394D01*
X170276Y344980D02*
X169488D01*
X170276D01*
D16*
X101512Y240118D02*
Y310984D01*
X125134D01*
X201905D01*
Y240118D02*
Y310984D01*
X125134Y240118D02*
X201905D01*
X101512D02*
X125134D01*
Y310984D01*
X160748Y384685D02*
Y445315D01*
X129252Y384685D02*
X160748D01*
X129252D02*
Y445315D01*
X160748D01*
X176742Y347018D02*
X183140D01*
Y335502D02*
Y347018D01*
X176742Y335502D02*
X183140D01*
X176742D02*
Y347018D01*
D92*
X305795Y296941D02*
X305532Y297925D01*
X304811Y298646D01*
X303827Y298909D01*
X302842Y298646D01*
X302122Y297925D01*
X301858Y296941D01*
X302122Y295957D01*
X302842Y295236D01*
X303827Y294972D01*
X304811Y295236D01*
X305532Y295957D01*
X305795Y296941D01*
X299685Y200157D02*
X299660Y201154D01*
X299584Y202149D01*
X299458Y203138D01*
X299282Y204120D01*
X299057Y205092D01*
X298782Y206050D01*
X298460Y206994D01*
X298090Y207920D01*
X297673Y208827D01*
X297212Y209711D01*
X296706Y210570D01*
X296157Y211403D01*
X295566Y212207D01*
X294936Y212980D01*
X294268Y213720D01*
X293562Y214425D01*
X292822Y215094D01*
X292049Y215724D01*
X291245Y216314D01*
X290413Y216863D01*
X289553Y217369D01*
X288669Y217831D01*
X287763Y218247D01*
X286837Y218617D01*
X285893Y218940D01*
X284934Y219214D01*
X283963Y219440D01*
X282981Y219616D01*
X281992Y219742D01*
X280997Y219817D01*
X280000Y219843D01*
X279003Y219817D01*
X278009Y219742D01*
X277019Y219616D01*
X276037Y219440D01*
X275066Y219214D01*
X274107Y218940D01*
X273163Y218617D01*
X272237Y218247D01*
X271331Y217831D01*
X270447Y217369D01*
X269587Y216863D01*
X268755Y216314D01*
X267951Y215724D01*
X267178Y215094D01*
X266438Y214425D01*
X265732Y213720D01*
X265064Y212980D01*
X264434Y212207D01*
X263843Y211403D01*
X263294Y210570D01*
X262789Y209711D01*
X262327Y208827D01*
X261910Y207920D01*
X261540Y206994D01*
X261218Y206050D01*
X260943Y205092D01*
X260718Y204120D01*
X260542Y203138D01*
X260416Y202149D01*
X260340Y201154D01*
X260315Y200157D01*
X260340Y199160D01*
X260416Y198166D01*
X260542Y197177D01*
X260718Y196195D01*
X260943Y195223D01*
X261218Y194264D01*
X261540Y193321D01*
X261910Y192395D01*
X262327Y191488D01*
X262789Y190604D01*
X263295Y189745D01*
X263843Y188912D01*
X264434Y188108D01*
X265064Y187335D01*
X265733Y186595D01*
X266438Y185890D01*
X267178Y185221D01*
X267951Y184591D01*
X268755Y184001D01*
X269587Y183452D01*
X270447Y182946D01*
X271331Y182484D01*
X272237Y182068D01*
X273163Y181698D01*
X274107Y181375D01*
X275066Y181101D01*
X276038Y180875D01*
X277019Y180700D01*
X278009Y180573D01*
X279003Y180498D01*
X280000Y180473D01*
X280997Y180498D01*
X281992Y180573D01*
X282981Y180700D01*
X283963Y180876D01*
X284934Y181101D01*
X285893Y181375D01*
X286837Y181698D01*
X287763Y182068D01*
X288669Y182484D01*
X289553Y182946D01*
X290413Y183452D01*
X291246Y184001D01*
X292049Y184591D01*
X292822Y185221D01*
X293562Y185890D01*
X294268Y186595D01*
X294936Y187335D01*
X295567Y188108D01*
X296157Y188912D01*
X296706Y189745D01*
X297212Y190604D01*
X297673Y191488D01*
X298090Y192395D01*
X298460Y193321D01*
X298782Y194265D01*
X299057Y195223D01*
X299282Y196195D01*
X299458Y197177D01*
X299584Y198166D01*
X299660Y199161D01*
X299685Y200157D01*
X169417Y396398D02*
Y408602D01*
X163314Y396398D02*
Y408602D01*
X169417D01*
X163314Y396398D02*
X169417D01*
X244130Y412713D02*
X247870D01*
X244130Y405823D02*
X247870D01*
Y412713D01*
X244130Y405823D02*
Y412713D01*
X211130Y364177D02*
X214870D01*
X211130Y357287D02*
X214870D01*
Y364177D01*
X211130Y357287D02*
Y364177D01*
X228630Y300484D02*
X307370D01*
X228630Y273516D02*
X307370D01*
Y300484D01*
X228630Y273516D02*
Y300484D01*
X130512Y172209D02*
Y195791D01*
Y172209D02*
X154095D01*
Y195791D01*
X130512D02*
X154095D01*
X160221Y204803D02*
X162386D01*
X160221Y200669D02*
X162386D01*
Y204803D01*
X160221Y200669D02*
Y204803D01*
X160280Y210705D02*
Y214760D01*
X162327Y210705D02*
Y214760D01*
X160280Y210705D02*
X162327D01*
X160280Y214760D02*
X162327D01*
X147543Y204539D02*
X151598D01*
X147543Y206586D02*
X151598D01*
Y204539D02*
Y206586D01*
X147543Y204539D02*
Y206586D01*
X155634Y209917D02*
Y212083D01*
X151500Y209917D02*
Y212083D01*
Y209917D02*
X155634D01*
X151500Y212083D02*
X155634D01*
X271681Y217998D02*
X288319D01*
X201417Y183169D02*
X203583D01*
X201417Y187303D02*
X203583D01*
X201417Y183169D02*
Y187303D01*
X203583Y183169D02*
Y187303D01*
X208405Y183839D02*
Y201161D01*
Y183839D02*
X246595D01*
Y201161D01*
X208405D02*
X246595D01*
X201417Y197697D02*
X203583D01*
X201417Y201831D02*
X203583D01*
X201417Y197697D02*
Y201831D01*
X203583Y197697D02*
Y201831D01*
X419803Y318917D02*
Y321083D01*
X415669Y318917D02*
Y321083D01*
Y318917D02*
X419803D01*
X415669Y321083D02*
X419803D01*
X380197Y348917D02*
Y351083D01*
X384331Y348917D02*
Y351083D01*
X380197D02*
X384331D01*
X380197Y348917D02*
X384331D01*
X419803Y293917D02*
Y296083D01*
X415669Y293917D02*
Y296083D01*
Y293917D02*
X419803D01*
X415669Y296083D02*
X419803D01*
Y348917D02*
Y351083D01*
X415669Y348917D02*
Y351083D01*
Y348917D02*
X419803D01*
X415669Y351083D02*
X419803D01*
X380197Y318917D02*
Y321083D01*
X384331Y318917D02*
Y321083D01*
X380197D02*
X384331D01*
X380197Y318917D02*
X384331D01*
X450197Y113917D02*
Y116083D01*
X454331Y113917D02*
Y116083D01*
X450197D02*
X454331D01*
X450197Y113917D02*
X454331D01*
X380197Y138917D02*
Y141083D01*
X384331Y138917D02*
Y141083D01*
X380197D02*
X384331D01*
X380197Y138917D02*
X384331D01*
X380197Y163917D02*
Y166083D01*
X384331Y163917D02*
Y166083D01*
X380197D02*
X384331D01*
X380197Y163917D02*
X384331D01*
X419803Y138917D02*
Y141083D01*
X415669Y138917D02*
Y141083D01*
Y138917D02*
X419803D01*
X415669Y141083D02*
X419803D01*
X349107Y113917D02*
Y116083D01*
X344973Y113917D02*
Y116083D01*
Y113917D02*
X349107D01*
X344973Y116083D02*
X349107D01*
X380197Y188917D02*
Y191083D01*
X384331Y188917D02*
Y191083D01*
X380197D02*
X384331D01*
X380197Y188917D02*
X384331D01*
X419803Y423917D02*
Y426083D01*
X415669Y423917D02*
Y426083D01*
Y423917D02*
X419803D01*
X415669Y426083D02*
X419803D01*
Y398917D02*
Y401083D01*
X415669Y398917D02*
Y401083D01*
Y398917D02*
X419803D01*
X415669Y401083D02*
X419803D01*
Y373917D02*
Y376083D01*
X415669Y373917D02*
Y376083D01*
Y373917D02*
X419803D01*
X415669Y376083D02*
X419803D01*
X380197Y398917D02*
Y401083D01*
X384331Y398917D02*
Y401083D01*
X380197D02*
X384331D01*
X380197Y398917D02*
X384331D01*
X380197Y423917D02*
Y426083D01*
X384331Y423917D02*
Y426083D01*
X380197D02*
X384331D01*
X380197Y423917D02*
X384331D01*
X380197Y373917D02*
Y376083D01*
X384331Y373917D02*
Y376083D01*
X380197D02*
X384331D01*
X380197Y373917D02*
X384331D01*
X419803Y163917D02*
Y166083D01*
X415669Y163917D02*
Y166083D01*
Y163917D02*
X419803D01*
X415669Y166083D02*
X419803D01*
Y243917D02*
Y246083D01*
X415669Y243917D02*
Y246083D01*
Y243917D02*
X419803D01*
X415669Y246083D02*
X419803D01*
Y188917D02*
Y191083D01*
X415669Y188917D02*
Y191083D01*
Y188917D02*
X419803D01*
X415669Y191083D02*
X419803D01*
X380197Y213917D02*
Y216083D01*
X384331Y213917D02*
Y216083D01*
X380197D02*
X384331D01*
X380197Y213917D02*
X384331D01*
X419803Y213917D02*
Y216083D01*
X415669Y213917D02*
Y216083D01*
Y213917D02*
X419803D01*
X415669Y216083D02*
X419803D01*
X380197Y243917D02*
Y246083D01*
X384331Y243917D02*
Y246083D01*
X380197D02*
X384331D01*
X380197Y243917D02*
X384331D01*
X380197Y293917D02*
Y296083D01*
X384331Y293917D02*
Y296083D01*
X380197D02*
X384331D01*
X380197Y293917D02*
X384331D01*
X380197Y268917D02*
Y271083D01*
X384331Y268917D02*
Y271083D01*
X380197D02*
X384331D01*
X380197Y268917D02*
X384331D01*
X419803Y268917D02*
Y271083D01*
X415669Y268917D02*
Y271083D01*
Y268917D02*
X419803D01*
X415669Y271083D02*
X419803D01*
X237083Y335721D02*
Y339855D01*
X234917Y335721D02*
Y339855D01*
X237083D01*
X234917Y335721D02*
X237083D01*
X130705Y218976D02*
X134760D01*
X130705Y221024D02*
X134760D01*
Y218976D02*
Y221024D01*
X130705Y218976D02*
Y221024D01*
X284705Y349815D02*
X292972D01*
X284705Y344500D02*
X292972D01*
X284705D02*
Y349815D01*
X292972Y344500D02*
Y349815D01*
X284705Y362657D02*
X292972D01*
X284705Y357343D02*
X292972D01*
X284705D02*
Y362657D01*
X292972Y357343D02*
Y362657D01*
X218917Y341669D02*
X221083D01*
X218917Y345803D02*
X221083D01*
X218917Y341669D02*
Y345803D01*
X221083Y341669D02*
Y345803D01*
X224488Y352756D02*
X235512D01*
X224488Y347244D02*
X235512D01*
Y352756D01*
X224488Y347244D02*
Y352756D01*
X222240Y431976D02*
X226295D01*
X222240Y434024D02*
X226295D01*
Y431976D02*
Y434024D01*
X222240Y431976D02*
Y434024D01*
X232917Y439331D02*
X235083D01*
X232917Y435197D02*
X235083D01*
Y439331D01*
X232917Y435197D02*
Y439331D01*
X251705Y416024D02*
X255760D01*
X251705Y413976D02*
X255760D01*
X251705D02*
Y416024D01*
X255760Y413976D02*
Y416024D01*
X216024Y412972D02*
Y417028D01*
X213976Y412972D02*
Y417028D01*
X216024D01*
X213976Y412972D02*
X216024D01*
X246197Y441917D02*
Y444083D01*
X250331Y441917D02*
Y444083D01*
X246197D02*
X250331D01*
X246197Y441917D02*
X250331D01*
X246197Y435917D02*
Y438083D01*
X250331Y435917D02*
Y438083D01*
X246197D02*
X250331D01*
X246197Y435917D02*
X250331D01*
X276976Y404972D02*
Y409028D01*
X279024Y404972D02*
Y409028D01*
X276976Y404972D02*
X279024D01*
X276976Y409028D02*
X279024D01*
X244917Y428803D02*
X247083D01*
X244917Y424669D02*
X247083D01*
Y428803D01*
X244917Y424669D02*
Y428803D01*
X221803Y443917D02*
Y446083D01*
X217669Y443917D02*
Y446083D01*
Y443917D02*
X221803D01*
X217669Y446083D02*
X221803D01*
Y437917D02*
Y440083D01*
X217669Y437917D02*
Y440083D01*
Y437917D02*
X221803D01*
X217669Y440083D02*
X221803D01*
X315322Y385669D02*
X317488D01*
X315322Y389803D02*
X317488D01*
X315322Y385669D02*
Y389803D01*
X317488Y385669D02*
Y389803D01*
X308917Y328528D02*
X311083D01*
X308917Y332662D02*
X311083D01*
X308917Y328528D02*
Y332662D01*
X311083Y328528D02*
Y332662D01*
X197240Y357976D02*
X201295D01*
X197240Y360024D02*
X201295D01*
Y357976D02*
Y360024D01*
X197240Y357976D02*
Y360024D01*
X204331Y338917D02*
Y341083D01*
X200197Y338917D02*
Y341083D01*
Y338917D02*
X204331D01*
X200197Y341083D02*
X204331D01*
X205976Y358705D02*
Y362760D01*
X208024Y358705D02*
Y362760D01*
X205976Y358705D02*
X208024D01*
X205976Y362760D02*
X208024D01*
X189976Y358705D02*
Y362760D01*
X192024Y358705D02*
Y362760D01*
X189976Y358705D02*
X192024D01*
X189976Y362760D02*
X192024D01*
X175331Y351917D02*
Y354083D01*
X171197Y351917D02*
Y354083D01*
Y351917D02*
X175331D01*
X171197Y354083D02*
X175331D01*
Y357917D02*
Y360083D01*
X171197Y357917D02*
Y360083D01*
Y357917D02*
X175331D01*
X171197Y360083D02*
X175331D01*
X174121Y325917D02*
Y328083D01*
X169988Y325917D02*
Y328083D01*
Y325917D02*
X174121D01*
X169988Y328083D02*
X174121D01*
D93*
X114307Y257835D02*
X110975D01*
X109309Y259501D01*
X110975Y261167D01*
X114307D01*
X111808D01*
Y257835D01*
X114307Y262833D02*
X109309D01*
X114307Y266165D01*
X109309D01*
Y267831D02*
Y271164D01*
Y269497D01*
X114307D01*
X109309Y276162D02*
Y272830D01*
X114307D01*
Y276162D01*
X111808Y272830D02*
Y274496D01*
X114307Y277828D02*
X109309D01*
X114307Y281160D01*
X109309D01*
X114307Y282826D02*
X109309D01*
X114307Y286159D01*
X109309D01*
X114307Y287825D02*
X110975D01*
X109309Y289491D01*
X110975Y291157D01*
X114307D01*
X111808D01*
Y287825D01*
M02*
