G04*
G04 #@! TF.GenerationSoftware,Altium Limited,Altium Designer,21.7.2 (23)*
G04*
G04 Layer_Color=255*
%FSLAX25Y25*%
%MOIN*%
G70*
G04*
G04 #@! TF.SameCoordinates,5233C9E9-E8BD-4DB4-A303-C3663256A2A9*
G04*
G04*
G04 #@! TF.FilePolarity,Positive*
G04*
G01*
G75*
%ADD19R,0.06496X0.04921*%
%ADD20R,0.05339X0.04638*%
%ADD21R,0.03937X0.03543*%
%ADD22R,0.04638X0.05339*%
%ADD23R,0.02362X0.02953*%
%ADD24R,0.02520X0.02362*%
%ADD25R,0.02362X0.02520*%
%ADD26R,0.02953X0.02362*%
%ADD27R,0.01575X0.05315*%
%ADD28R,0.02362X0.05315*%
%ADD29R,0.03150X0.03150*%
%ADD30R,0.03543X0.05906*%
%ADD31R,0.05906X0.03543*%
%ADD32R,0.03150X0.03150*%
%ADD33R,0.02284X0.01496*%
%ADD34R,0.06201X0.04134*%
%ADD35R,0.01181X0.02854*%
%ADD36R,0.02854X0.01181*%
%ADD37R,0.01181X0.02874*%
%ADD38C,0.01072*%
%ADD39C,0.04252*%
%ADD40C,0.03255*%
%ADD41R,0.05000X0.05512*%
%ADD42R,0.18583X0.18898*%
G04:AMPARAMS|DCode=43|XSize=39.54mil|YSize=125.28mil|CornerRadius=17.2mil|HoleSize=0mil|Usage=FLASHONLY|Rotation=270.000|XOffset=0mil|YOffset=0mil|HoleType=Round|Shape=RoundedRectangle|*
%AMROUNDEDRECTD43*
21,1,0.03954,0.09088,0,0,270.0*
21,1,0.00514,0.12528,0,0,270.0*
1,1,0.03440,-0.04544,-0.00257*
1,1,0.03440,-0.04544,0.00257*
1,1,0.03440,0.04544,0.00257*
1,1,0.03440,0.04544,-0.00257*
%
%ADD43ROUNDEDRECTD43*%
G04:AMPARAMS|DCode=44|XSize=39.54mil|YSize=34.34mil|CornerRadius=17.17mil|HoleSize=0mil|Usage=FLASHONLY|Rotation=270.000|XOffset=0mil|YOffset=0mil|HoleType=Round|Shape=RoundedRectangle|*
%AMROUNDEDRECTD44*
21,1,0.03954,0.00000,0,0,270.0*
21,1,0.00520,0.03434,0,0,270.0*
1,1,0.03434,0.00000,-0.00260*
1,1,0.03434,0.00000,0.00260*
1,1,0.03434,0.00000,0.00260*
1,1,0.03434,0.00000,-0.00260*
%
%ADD44ROUNDEDRECTD44*%
%ADD45R,0.03434X0.03954*%
%ADD46R,0.05315X0.05906*%
%ADD47R,0.03150X0.03543*%
%ADD48R,0.12500X0.19500*%
G04:AMPARAMS|DCode=49|XSize=47.64mil|YSize=23.23mil|CornerRadius=2.9mil|HoleSize=0mil|Usage=FLASHONLY|Rotation=0.000|XOffset=0mil|YOffset=0mil|HoleType=Round|Shape=RoundedRectangle|*
%AMROUNDEDRECTD49*
21,1,0.04764,0.01742,0,0,0.0*
21,1,0.04183,0.02323,0,0,0.0*
1,1,0.00581,0.02092,-0.00871*
1,1,0.00581,-0.02092,-0.00871*
1,1,0.00581,-0.02092,0.00871*
1,1,0.00581,0.02092,0.00871*
%
%ADD49ROUNDEDRECTD49*%
%ADD70C,0.06181*%
%ADD71R,0.06181X0.06181*%
%ADD73C,0.05512*%
%ADD74R,0.05512X0.05512*%
%ADD75C,0.02559*%
G04:AMPARAMS|DCode=76|XSize=35.43mil|YSize=94.49mil|CornerRadius=17.72mil|HoleSize=0mil|Usage=FLASHONLY|Rotation=270.000|XOffset=0mil|YOffset=0mil|HoleType=Round|Shape=RoundedRectangle|*
%AMROUNDEDRECTD76*
21,1,0.03543,0.05906,0,0,270.0*
21,1,0.00000,0.09449,0,0,270.0*
1,1,0.03543,-0.02953,0.00000*
1,1,0.03543,-0.02953,0.00000*
1,1,0.03543,0.02953,0.00000*
1,1,0.03543,0.02953,0.00000*
%
%ADD76ROUNDEDRECTD76*%
G04:AMPARAMS|DCode=77|XSize=35.43mil|YSize=66.93mil|CornerRadius=17.72mil|HoleSize=0mil|Usage=FLASHONLY|Rotation=270.000|XOffset=0mil|YOffset=0mil|HoleType=Round|Shape=RoundedRectangle|*
%AMROUNDEDRECTD77*
21,1,0.03543,0.03150,0,0,270.0*
21,1,0.00000,0.06693,0,0,270.0*
1,1,0.03543,-0.01575,0.00000*
1,1,0.03543,-0.01575,0.00000*
1,1,0.03543,0.01575,0.00000*
1,1,0.03543,0.01575,0.00000*
%
%ADD77ROUNDEDRECTD77*%
%ADD79C,0.06102*%
%ADD80R,0.06102X0.06102*%
%ADD83C,0.06000*%
%ADD84C,0.15000*%
%ADD85R,0.23622X0.23622*%
%ADD86R,0.05512X0.05512*%
%ADD87R,0.05906X0.05906*%
%ADD88C,0.05906*%
%ADD89O,0.08268X0.05512*%
%ADD90C,0.23622*%
D19*
X166366Y409291D02*
D03*
Y395709D02*
D03*
D20*
X175723Y412386D02*
D03*
Y417614D02*
D03*
X306093Y409614D02*
D03*
Y404386D02*
D03*
X186654Y412057D02*
D03*
Y417286D02*
D03*
X196701Y412057D02*
D03*
Y417286D02*
D03*
X296047Y409614D02*
D03*
Y404386D02*
D03*
X286000Y409614D02*
D03*
Y404386D02*
D03*
X206747Y412057D02*
D03*
Y417286D02*
D03*
D21*
X246000Y411925D02*
D03*
Y406610D02*
D03*
X213000Y363390D02*
D03*
Y358075D02*
D03*
D22*
X131535Y228000D02*
D03*
X136764D02*
D03*
D23*
X161303Y205000D02*
D03*
Y200472D02*
D03*
X202500Y182972D02*
D03*
Y187500D02*
D03*
Y197500D02*
D03*
Y202028D02*
D03*
X236000Y340052D02*
D03*
Y335524D02*
D03*
X220000Y341472D02*
D03*
Y346000D02*
D03*
X234000Y439528D02*
D03*
Y435000D02*
D03*
X246000Y429000D02*
D03*
Y424472D02*
D03*
X316405Y385472D02*
D03*
Y390000D02*
D03*
X310000Y328331D02*
D03*
Y332859D02*
D03*
D24*
X161303Y211000D02*
D03*
Y214465D02*
D03*
X215000Y416732D02*
D03*
Y413268D02*
D03*
X278000Y405268D02*
D03*
Y408732D02*
D03*
X207000Y359000D02*
D03*
Y362465D02*
D03*
X191000Y359000D02*
D03*
Y362465D02*
D03*
D25*
X151303Y205562D02*
D03*
X147839D02*
D03*
X134465Y220000D02*
D03*
X131000D02*
D03*
X226000Y433000D02*
D03*
X222535D02*
D03*
X252000Y415000D02*
D03*
X255465D02*
D03*
X201000Y359000D02*
D03*
X197535D02*
D03*
D26*
X155831Y211000D02*
D03*
X151303D02*
D03*
X420000Y320000D02*
D03*
X415472D02*
D03*
X380000Y350000D02*
D03*
X384528D02*
D03*
X420000Y295000D02*
D03*
X415472D02*
D03*
X420000Y350000D02*
D03*
X415472D02*
D03*
X380000Y320000D02*
D03*
X384528D02*
D03*
X450000Y115000D02*
D03*
X454528D02*
D03*
X380000Y140000D02*
D03*
X384528D02*
D03*
X380000Y165000D02*
D03*
X384528D02*
D03*
X420000Y140000D02*
D03*
X415472D02*
D03*
X349304Y115000D02*
D03*
X344776D02*
D03*
X380000Y190000D02*
D03*
X384528D02*
D03*
X420000Y425000D02*
D03*
X415472D02*
D03*
X420000Y400000D02*
D03*
X415472D02*
D03*
X420000Y375000D02*
D03*
X415472D02*
D03*
X380000Y400000D02*
D03*
X384528D02*
D03*
X380000Y425000D02*
D03*
X384528D02*
D03*
X380000Y375000D02*
D03*
X384528D02*
D03*
X420000Y165000D02*
D03*
X415472D02*
D03*
X420000Y245000D02*
D03*
X415472D02*
D03*
X420000Y190000D02*
D03*
X415472D02*
D03*
X380000Y215000D02*
D03*
X384528D02*
D03*
X420000D02*
D03*
X415472D02*
D03*
X380000Y245000D02*
D03*
X384528D02*
D03*
X380000Y295000D02*
D03*
X384528D02*
D03*
X380000Y270000D02*
D03*
X384528D02*
D03*
X420000D02*
D03*
X415472D02*
D03*
X246000Y443000D02*
D03*
X250528D02*
D03*
X246000Y437000D02*
D03*
X250528D02*
D03*
X222000Y445000D02*
D03*
X217472D02*
D03*
X222000Y439000D02*
D03*
X217472D02*
D03*
X204528Y340000D02*
D03*
X200000D02*
D03*
X175528Y353000D02*
D03*
X171000D02*
D03*
X175528Y359000D02*
D03*
X171000D02*
D03*
X174318Y327000D02*
D03*
X169791D02*
D03*
D27*
X218543Y204016D02*
D03*
X215984D02*
D03*
X213425D02*
D03*
X221102D02*
D03*
X223661D02*
D03*
Y180984D02*
D03*
X221102D02*
D03*
X213425D02*
D03*
X215984D02*
D03*
X218543D02*
D03*
X226220D02*
D03*
X228780D02*
D03*
X231339D02*
D03*
X233898D02*
D03*
X241575D02*
D03*
X239016D02*
D03*
X236457D02*
D03*
Y204016D02*
D03*
X239016D02*
D03*
X241575D02*
D03*
X233898D02*
D03*
X231339D02*
D03*
X228780D02*
D03*
X226220D02*
D03*
D28*
X210472Y180984D02*
D03*
X244528D02*
D03*
Y204016D02*
D03*
X210472D02*
D03*
D29*
X470000Y125000D02*
D03*
Y119095D02*
D03*
X395000Y150000D02*
D03*
Y144095D02*
D03*
X405000Y150000D02*
D03*
Y144095D02*
D03*
Y175000D02*
D03*
Y169095D02*
D03*
X395000Y175000D02*
D03*
Y169095D02*
D03*
X330000Y125000D02*
D03*
Y119095D02*
D03*
X405000Y435000D02*
D03*
Y429095D02*
D03*
X395000Y410000D02*
D03*
Y404095D02*
D03*
X405000Y410000D02*
D03*
Y404095D02*
D03*
X395000Y435000D02*
D03*
Y429095D02*
D03*
Y360000D02*
D03*
Y354095D02*
D03*
X405000Y385000D02*
D03*
Y379095D02*
D03*
Y360000D02*
D03*
Y354095D02*
D03*
X395000Y385000D02*
D03*
Y379095D02*
D03*
X405000Y255000D02*
D03*
Y249095D02*
D03*
X395000Y225000D02*
D03*
Y219094D02*
D03*
X405000Y305000D02*
D03*
Y299095D02*
D03*
Y280000D02*
D03*
Y274095D02*
D03*
X395000Y305000D02*
D03*
Y299095D02*
D03*
Y280000D02*
D03*
Y274095D02*
D03*
X405000Y330000D02*
D03*
Y324095D02*
D03*
X395000Y330000D02*
D03*
Y324095D02*
D03*
Y255000D02*
D03*
Y249095D02*
D03*
X405000Y200000D02*
D03*
Y194095D02*
D03*
X395000Y200000D02*
D03*
Y194095D02*
D03*
X405000Y225000D02*
D03*
Y219094D02*
D03*
X310000Y345000D02*
D03*
Y339094D02*
D03*
Y384095D02*
D03*
Y390000D02*
D03*
D30*
X131000Y241102D02*
D03*
X136000D02*
D03*
X141000D02*
D03*
X146000D02*
D03*
X151000D02*
D03*
X156000D02*
D03*
X161000D02*
D03*
X166000D02*
D03*
X171000D02*
D03*
X176000D02*
D03*
X181000D02*
D03*
X186000D02*
D03*
X191000D02*
D03*
X196000D02*
D03*
Y310000D02*
D03*
X191000D02*
D03*
X186000D02*
D03*
X181000D02*
D03*
X176000D02*
D03*
X171000D02*
D03*
X166000D02*
D03*
X161000D02*
D03*
X156000D02*
D03*
X151000D02*
D03*
X146000D02*
D03*
X141000D02*
D03*
X136000D02*
D03*
X131000D02*
D03*
D31*
X200921Y248051D02*
D03*
Y253051D02*
D03*
Y258051D02*
D03*
Y263051D02*
D03*
Y268051D02*
D03*
Y273051D02*
D03*
Y278051D02*
D03*
Y283051D02*
D03*
Y288051D02*
D03*
Y293051D02*
D03*
Y298051D02*
D03*
Y303051D02*
D03*
D32*
X205000Y330000D02*
D03*
X199094D02*
D03*
D33*
X233878Y411102D02*
D03*
D34*
X231919Y417953D02*
D03*
D35*
X224193Y422628D02*
D03*
X225965D02*
D03*
X227736D02*
D03*
X230492D02*
D03*
X232264D02*
D03*
X234035D02*
D03*
X235807D02*
D03*
D36*
X237628Y420020D02*
D03*
Y418248D02*
D03*
Y416476D02*
D03*
Y414705D02*
D03*
Y412933D02*
D03*
Y411161D02*
D03*
Y409390D02*
D03*
D37*
X234035Y407382D02*
D03*
D38*
X224316Y408086D02*
D03*
D39*
X227589Y412343D02*
D03*
D40*
X225337Y418211D02*
D03*
D41*
X245000Y342685D02*
D03*
Y350873D02*
D03*
X230000Y316811D02*
D03*
Y325000D02*
D03*
D42*
X259980Y346779D02*
D03*
X244980Y320905D02*
D03*
D43*
X286000Y313028D02*
D03*
D44*
X276984Y338972D02*
D03*
X286000D02*
D03*
D45*
X295016D02*
D03*
D46*
X285000Y347158D02*
D03*
X292677D02*
D03*
X285000Y360000D02*
D03*
X292677D02*
D03*
D47*
X233740Y353937D02*
D03*
X226260D02*
D03*
X230000Y346063D02*
D03*
D48*
X265500Y380000D02*
D03*
X230000D02*
D03*
D49*
X175000Y345000D02*
D03*
Y341260D02*
D03*
Y337520D02*
D03*
X184882D02*
D03*
Y341260D02*
D03*
Y345000D02*
D03*
D70*
X265000Y120000D02*
D03*
Y130000D02*
D03*
X235000Y120000D02*
D03*
Y130000D02*
D03*
X250000Y120000D02*
D03*
Y130000D02*
D03*
X205000Y120000D02*
D03*
Y130000D02*
D03*
X220000Y120000D02*
D03*
Y130000D02*
D03*
X190000Y120000D02*
D03*
Y130000D02*
D03*
X145000Y120000D02*
D03*
Y130000D02*
D03*
X160000Y120000D02*
D03*
Y130000D02*
D03*
X175000Y120000D02*
D03*
Y130000D02*
D03*
X310000Y120000D02*
D03*
Y130000D02*
D03*
X295000Y120000D02*
D03*
Y130000D02*
D03*
X280000Y120000D02*
D03*
Y130000D02*
D03*
D71*
X265000Y140000D02*
D03*
X235000D02*
D03*
X250000D02*
D03*
X205000D02*
D03*
X220000D02*
D03*
X190000D02*
D03*
X145000D02*
D03*
X160000D02*
D03*
X175000D02*
D03*
X310000D02*
D03*
X295000D02*
D03*
X280000D02*
D03*
D73*
X293000Y302000D02*
D03*
X283000D02*
D03*
X273000D02*
D03*
X263000D02*
D03*
X253000D02*
D03*
X243000D02*
D03*
X233000D02*
D03*
X303000Y272000D02*
D03*
X293000D02*
D03*
X283000D02*
D03*
X273000D02*
D03*
X263000D02*
D03*
X253000D02*
D03*
X243000D02*
D03*
X233000D02*
D03*
X459685Y435000D02*
D03*
X449843D02*
D03*
X459842Y410000D02*
D03*
X450000D02*
D03*
X459842Y385000D02*
D03*
X450000D02*
D03*
X459842Y360000D02*
D03*
X450000D02*
D03*
X359842Y255000D02*
D03*
X350000D02*
D03*
X359842Y280000D02*
D03*
X350000D02*
D03*
X359842Y330000D02*
D03*
X350000D02*
D03*
X359842Y305000D02*
D03*
X350000D02*
D03*
X359842Y225000D02*
D03*
X350000D02*
D03*
X359842Y200000D02*
D03*
X350000D02*
D03*
X359842Y175000D02*
D03*
X350000D02*
D03*
X359842Y150000D02*
D03*
X350000D02*
D03*
X359842Y385000D02*
D03*
X350000D02*
D03*
X359842Y435000D02*
D03*
X350000D02*
D03*
X359842Y410000D02*
D03*
X350000D02*
D03*
X359842Y360000D02*
D03*
X350000D02*
D03*
X459842Y150000D02*
D03*
X450000D02*
D03*
X459842Y175000D02*
D03*
X450000D02*
D03*
X434842Y125000D02*
D03*
X425000D02*
D03*
X384842D02*
D03*
X375000D02*
D03*
X459842Y280000D02*
D03*
X450000D02*
D03*
X459842Y255000D02*
D03*
X450000D02*
D03*
X459842Y225000D02*
D03*
X450000D02*
D03*
X459842Y200000D02*
D03*
X450000D02*
D03*
X459842Y305000D02*
D03*
X450000D02*
D03*
X459842Y330000D02*
D03*
X450000D02*
D03*
D74*
X440000Y435000D02*
D03*
X440158Y410000D02*
D03*
Y385000D02*
D03*
Y360000D02*
D03*
X340158Y255000D02*
D03*
Y280000D02*
D03*
Y330000D02*
D03*
Y305000D02*
D03*
Y225000D02*
D03*
Y200000D02*
D03*
Y175000D02*
D03*
Y150000D02*
D03*
Y385000D02*
D03*
Y435000D02*
D03*
Y410000D02*
D03*
Y360000D02*
D03*
X440158Y150000D02*
D03*
Y175000D02*
D03*
X415158Y125000D02*
D03*
X365158D02*
D03*
X440158Y280000D02*
D03*
Y255000D02*
D03*
Y225000D02*
D03*
Y200000D02*
D03*
Y305000D02*
D03*
Y330000D02*
D03*
D75*
X155532Y356713D02*
D03*
Y353366D02*
D03*
Y350020D02*
D03*
Y346673D02*
D03*
Y343327D02*
D03*
Y339980D02*
D03*
Y336634D02*
D03*
Y333287D02*
D03*
X160846D02*
D03*
Y336634D02*
D03*
Y339980D02*
D03*
Y343327D02*
D03*
Y346673D02*
D03*
Y350020D02*
D03*
Y353366D02*
D03*
Y356713D02*
D03*
D76*
X156988Y327972D02*
D03*
Y362028D02*
D03*
D77*
X143681Y327972D02*
D03*
Y362028D02*
D03*
D79*
X280157Y250000D02*
D03*
X245000D02*
D03*
D80*
X290000D02*
D03*
X254842D02*
D03*
D83*
X170000Y278000D02*
D03*
X172000Y259000D02*
D03*
X151000Y280000D02*
D03*
Y259000D02*
D03*
D84*
X470000Y105000D02*
D03*
X190000Y380000D02*
D03*
X290000Y430000D02*
D03*
D85*
X145000Y429173D02*
D03*
D86*
X303000Y302000D02*
D03*
D87*
X151161Y196795D02*
D03*
D88*
X133445D02*
D03*
Y171205D02*
D03*
X151161D02*
D03*
D89*
X280000Y210000D02*
D03*
Y190315D02*
D03*
D90*
X146201Y400827D02*
D03*
M02*
