G04*
G04 #@! TF.GenerationSoftware,Altium Limited,Altium Designer,21.7.2 (23)*
G04*
G04 Layer_Physical_Order=1*
G04 Layer_Color=255*
%FSLAX25Y25*%
%MOIN*%
G70*
G04*
G04 #@! TF.SameCoordinates,5233C9E9-E8BD-4DB4-A303-C3663256A2A9*
G04*
G04*
G04 #@! TF.FilePolarity,Positive*
G04*
G01*
G75*
%ADD10C,0.01000*%
%ADD19R,0.06496X0.04921*%
%ADD20R,0.05339X0.04638*%
%ADD21R,0.03937X0.03543*%
%ADD22R,0.04638X0.05339*%
%ADD23R,0.02362X0.02953*%
%ADD24R,0.02520X0.02362*%
%ADD25R,0.02362X0.02520*%
%ADD26R,0.02953X0.02362*%
%ADD27R,0.01575X0.05315*%
%ADD28R,0.02362X0.05315*%
%ADD29R,0.03150X0.03150*%
%ADD30R,0.03543X0.05906*%
%ADD31R,0.05906X0.03543*%
%ADD32R,0.03150X0.03150*%
%ADD33R,0.02284X0.01496*%
%ADD34R,0.06201X0.04134*%
%ADD35R,0.01181X0.02854*%
%ADD36R,0.02854X0.01181*%
%ADD37R,0.01181X0.02874*%
%ADD38C,0.01072*%
%ADD39C,0.04252*%
%ADD40C,0.03255*%
%ADD41R,0.05000X0.05512*%
%ADD42R,0.18583X0.18898*%
G04:AMPARAMS|DCode=43|XSize=39.54mil|YSize=125.28mil|CornerRadius=17.2mil|HoleSize=0mil|Usage=FLASHONLY|Rotation=270.000|XOffset=0mil|YOffset=0mil|HoleType=Round|Shape=RoundedRectangle|*
%AMROUNDEDRECTD43*
21,1,0.03954,0.09088,0,0,270.0*
21,1,0.00514,0.12528,0,0,270.0*
1,1,0.03440,-0.04544,-0.00257*
1,1,0.03440,-0.04544,0.00257*
1,1,0.03440,0.04544,0.00257*
1,1,0.03440,0.04544,-0.00257*
%
%ADD43ROUNDEDRECTD43*%
G04:AMPARAMS|DCode=44|XSize=39.54mil|YSize=34.34mil|CornerRadius=17.17mil|HoleSize=0mil|Usage=FLASHONLY|Rotation=270.000|XOffset=0mil|YOffset=0mil|HoleType=Round|Shape=RoundedRectangle|*
%AMROUNDEDRECTD44*
21,1,0.03954,0.00000,0,0,270.0*
21,1,0.00520,0.03434,0,0,270.0*
1,1,0.03434,0.00000,-0.00260*
1,1,0.03434,0.00000,0.00260*
1,1,0.03434,0.00000,0.00260*
1,1,0.03434,0.00000,-0.00260*
%
%ADD44ROUNDEDRECTD44*%
%ADD45R,0.03434X0.03954*%
%ADD46R,0.05315X0.05906*%
%ADD47R,0.03150X0.03543*%
%ADD48R,0.12500X0.19500*%
G04:AMPARAMS|DCode=49|XSize=47.64mil|YSize=23.23mil|CornerRadius=2.9mil|HoleSize=0mil|Usage=FLASHONLY|Rotation=0.000|XOffset=0mil|YOffset=0mil|HoleType=Round|Shape=RoundedRectangle|*
%AMROUNDEDRECTD49*
21,1,0.04764,0.01742,0,0,0.0*
21,1,0.04183,0.02323,0,0,0.0*
1,1,0.00581,0.02092,-0.00871*
1,1,0.00581,-0.02092,-0.00871*
1,1,0.00581,-0.02092,0.00871*
1,1,0.00581,0.02092,0.00871*
%
%ADD49ROUNDEDRECTD49*%
%ADD70C,0.06181*%
%ADD71R,0.06181X0.06181*%
%ADD73C,0.05512*%
%ADD74R,0.05512X0.05512*%
%ADD75C,0.02559*%
G04:AMPARAMS|DCode=76|XSize=35.43mil|YSize=94.49mil|CornerRadius=17.72mil|HoleSize=0mil|Usage=FLASHONLY|Rotation=270.000|XOffset=0mil|YOffset=0mil|HoleType=Round|Shape=RoundedRectangle|*
%AMROUNDEDRECTD76*
21,1,0.03543,0.05906,0,0,270.0*
21,1,0.00000,0.09449,0,0,270.0*
1,1,0.03543,-0.02953,0.00000*
1,1,0.03543,-0.02953,0.00000*
1,1,0.03543,0.02953,0.00000*
1,1,0.03543,0.02953,0.00000*
%
%ADD76ROUNDEDRECTD76*%
G04:AMPARAMS|DCode=77|XSize=35.43mil|YSize=66.93mil|CornerRadius=17.72mil|HoleSize=0mil|Usage=FLASHONLY|Rotation=270.000|XOffset=0mil|YOffset=0mil|HoleType=Round|Shape=RoundedRectangle|*
%AMROUNDEDRECTD77*
21,1,0.03543,0.03150,0,0,270.0*
21,1,0.00000,0.06693,0,0,270.0*
1,1,0.03543,-0.01575,0.00000*
1,1,0.03543,-0.01575,0.00000*
1,1,0.03543,0.01575,0.00000*
1,1,0.03543,0.01575,0.00000*
%
%ADD77ROUNDEDRECTD77*%
%ADD79C,0.06102*%
%ADD80R,0.06102X0.06102*%
%ADD81C,0.01500*%
%ADD82C,0.01200*%
%ADD83C,0.06000*%
%ADD84C,0.15000*%
%ADD85R,0.23622X0.23622*%
%ADD86R,0.05512X0.05512*%
%ADD87R,0.05906X0.05906*%
%ADD88C,0.05906*%
%ADD89O,0.08268X0.05512*%
%ADD90C,0.23622*%
%ADD91C,0.01968*%
G36*
X252000Y423000D02*
X264000D01*
X266000Y421000D01*
Y413000D01*
X264000Y411000D01*
X256000D01*
X254000Y413000D01*
Y417000D01*
X252000Y419000D01*
X246500D01*
X244967Y417467D01*
X235467D01*
X235000Y417000D01*
Y415000D01*
X235801Y414199D01*
Y413714D01*
X239455D01*
Y414000D01*
X248000D01*
X253000Y409000D01*
X266000D01*
X276000Y419000D01*
X307000D01*
X311000Y415000D01*
Y408000D01*
X310000Y407000D01*
X309163D01*
Y407105D01*
X303024D01*
Y407000D01*
X299116D01*
Y407105D01*
X292977D01*
Y407000D01*
X289070D01*
Y407105D01*
X282930D01*
Y407000D01*
X274000D01*
X270000Y403000D01*
X254000D01*
X248369Y408632D01*
Y408782D01*
X248218D01*
X248000Y409000D01*
X244000D01*
X243000Y410000D01*
Y411000D01*
X242000Y412000D01*
X239455D01*
Y412152D01*
X235848D01*
X235087Y412913D01*
X232953D01*
X232039Y412000D01*
X232000D01*
Y410000D01*
X231232Y409232D01*
X223602D01*
X223296Y409105D01*
X223253Y409000D01*
X220000D01*
X204000Y393000D01*
X175046Y392454D01*
X170014Y397486D01*
Y398569D01*
X170000D01*
Y404388D01*
X170306Y404694D01*
X170433Y405000D01*
Y412321D01*
X172697Y414585D01*
X172906Y414672D01*
X178540D01*
X178793Y414567D01*
X222800D01*
X222879Y414600D01*
X222965Y414600D01*
X222981Y414615D01*
X223110Y414669D01*
Y414705D01*
X228063D01*
X228215Y414768D01*
X228366Y414828D01*
X228722Y415176D01*
X228723Y415179D01*
X228725Y415180D01*
X228788Y415331D01*
X228852Y415481D01*
X228851Y415484D01*
X228852Y415486D01*
Y420224D01*
X228933Y420420D01*
Y420424D01*
X229101Y420560D01*
X229502Y420801D01*
X234199D01*
X235000Y420000D01*
Y419000D01*
X240000D01*
X242000Y421000D01*
Y425000D01*
X244000Y427000D01*
X248000D01*
X252000Y423000D01*
D02*
G37*
G36*
X218500Y420500D02*
X227000D01*
Y424000D01*
X227500Y424500D01*
X228000D01*
X228500Y424000D01*
Y420420D01*
X228419D01*
Y415486D01*
X228063Y415138D01*
X223110D01*
X222804Y415011D01*
X222800Y415000D01*
X178793D01*
Y415105D01*
X172654D01*
Y415000D01*
X172500D01*
X170000Y412500D01*
Y405000D01*
X167500Y402500D01*
X165000D01*
X162000Y405500D01*
Y429000D01*
X165000Y431000D01*
X208000D01*
X218500Y420500D01*
D02*
G37*
G36*
X311000Y406000D02*
Y402000D01*
X309000Y400000D01*
X304000D01*
X302000Y398000D01*
Y367000D01*
X300000Y365000D01*
X257000D01*
X250000Y358000D01*
Y336000D01*
X248000Y334000D01*
X242000D01*
X240000Y336000D01*
Y350000D01*
X238000Y352000D01*
X232000D01*
Y356000D01*
X236000D01*
X250000Y370000D01*
Y391000D01*
X261567Y402567D01*
X270000D01*
X270306Y402694D01*
X274179Y406567D01*
X282930D01*
X283183Y406672D01*
X288817D01*
X289070Y406567D01*
X292977D01*
X293230Y406672D01*
X298864D01*
X299116Y406567D01*
X303024D01*
X303276Y406672D01*
X308910D01*
X309163Y406567D01*
X310000D01*
X310306Y406694D01*
X311000Y406000D01*
D02*
G37*
G36*
X160000Y412500D02*
Y402500D01*
X162500Y400000D01*
X167500D01*
X169581Y397919D01*
Y397486D01*
X169707Y397180D01*
X170000Y396888D01*
Y387500D01*
X167500Y385000D01*
X135000D01*
X130000Y390000D01*
Y410000D01*
X135000Y415000D01*
X157500D01*
X160000Y412500D01*
D02*
G37*
G36*
X233000Y403000D02*
X245000Y391000D01*
Y370000D01*
X240000Y365000D01*
X220000D01*
X215000Y370000D01*
Y403388D01*
X220179Y408567D01*
X223253D01*
X223332Y408600D01*
X223418D01*
X223479Y408661D01*
X223559Y408694D01*
X223585Y408756D01*
X223602Y408764D01*
Y408799D01*
X231232D01*
X231538Y408926D01*
X232112Y409500D01*
X233000D01*
Y403000D01*
D02*
G37*
G36*
X217000Y367000D02*
Y363000D01*
X215306Y361306D01*
X215000Y361433D01*
X208660D01*
X208379Y361316D01*
X205622D01*
X205340Y361433D01*
X199433D01*
X199216Y361343D01*
X199000Y361433D01*
X192660D01*
X192378Y361316D01*
X189621D01*
X189340Y361433D01*
X185000D01*
X184694Y361306D01*
X183000Y363000D01*
Y367000D01*
X185000Y369000D01*
X215000D01*
X217000Y367000D01*
D02*
G37*
G36*
X220000Y356000D02*
X228000D01*
X229000Y355000D01*
Y350000D01*
X228000Y349000D01*
X201000D01*
X199306Y350694D01*
X199433Y351000D01*
Y361000D01*
X205340D01*
Y360883D01*
X208660D01*
Y361000D01*
X215000D01*
X220000Y356000D01*
D02*
G37*
G36*
X199000Y351000D02*
X197000Y349000D01*
X185000D01*
X183000Y351000D01*
Y359000D01*
X185000Y361000D01*
X189340D01*
Y360883D01*
X192660D01*
Y361000D01*
X199000D01*
Y351000D01*
D02*
G37*
G36*
X302000Y362000D02*
Y338000D01*
X298000Y334000D01*
X294433D01*
X294306Y334306D01*
X289000Y339612D01*
Y364000D01*
X300000D01*
X302000Y362000D01*
D02*
G37*
G36*
X288000Y364000D02*
Y356000D01*
X286000Y354000D01*
X282000D01*
X280000Y352000D01*
Y320000D01*
X274000Y314000D01*
X256000D01*
X254000Y312000D01*
X236000D01*
X234306Y313694D01*
X234433Y314000D01*
Y330000D01*
X234306Y330306D01*
X238000Y334000D01*
X241388D01*
X241694Y333694D01*
X242000Y333567D01*
X248000D01*
X248306Y333694D01*
X250306Y335694D01*
X250433Y336000D01*
Y356433D01*
X252000Y358000D01*
X268000D01*
X274000Y364000D01*
X288000Y364000D01*
D02*
G37*
G36*
X163000Y363000D02*
Y361000D01*
X161000Y359000D01*
X149000D01*
X147000Y357000D01*
Y333000D01*
X149000Y331000D01*
X169000D01*
X171000Y329000D01*
Y325000D01*
X139000D01*
X137000Y327000D01*
Y363000D01*
X139000Y365000D01*
X161000D01*
X163000Y363000D01*
D02*
G37*
G36*
X288000Y352612D02*
Y340000D01*
X294000Y334000D01*
Y314000D01*
X292000Y312000D01*
X280000D01*
X278000Y314000D01*
Y317388D01*
X280306Y319694D01*
X280433Y320000D01*
Y351821D01*
X282179Y353567D01*
X286000D01*
X286306Y353694D01*
X286612Y354000D01*
X288000Y352612D01*
D02*
G37*
G36*
X234000Y346000D02*
Y342000D01*
X230000Y338000D01*
Y334000D01*
X234000Y330000D01*
Y314000D01*
X232000Y312000D01*
X228000D01*
X223000Y317000D01*
Y343000D01*
X228000Y348000D01*
X232000D01*
X234000Y346000D01*
D02*
G37*
G36*
X176000Y278000D02*
Y257000D01*
X174000Y255000D01*
Y255000D01*
X150000D01*
X149000Y255000D01*
X147000Y257000D01*
Y282000D01*
X149000Y284000D01*
X170000D01*
X176000Y278000D01*
D02*
G37*
G36*
X222000Y165000D02*
X220000Y163000D01*
X210000D01*
X208000Y165000D01*
Y183000D01*
X210000Y185000D01*
X222000D01*
Y165000D01*
D02*
G37*
D10*
X310000Y390000D02*
X316405D01*
Y380188D02*
Y385472D01*
X243465Y407535D02*
X246000D01*
X239929Y411071D02*
X243465Y407535D01*
X237719Y411071D02*
X239929D01*
X247524Y416476D02*
X249000Y415000D01*
X252000D01*
X237628Y416476D02*
X247524D01*
X156000Y241102D02*
Y250000D01*
X151000Y241102D02*
Y250000D01*
X146000Y241102D02*
Y250000D01*
X184000Y296000D02*
X192000D01*
Y304000D02*
Y304262D01*
X182000Y304000D02*
X192000D01*
X182000Y300000D02*
X192000D01*
X151000Y310000D02*
Y315000D01*
X146000Y310000D02*
Y316000D01*
X150000Y320000D01*
X216000D01*
X146000Y322000D02*
X214000D01*
X142000Y324000D02*
X216000D01*
X141000Y317000D02*
X146000Y322000D01*
X136000Y318000D02*
X142000Y324000D01*
X239031Y432030D02*
X241969D01*
X239031D02*
X243611Y436611D01*
X235807Y428807D02*
X239031Y432030D01*
X258000Y396000D02*
X260000D01*
X252000Y402000D02*
X258000Y396000D01*
X270000Y296000D02*
X274000Y292000D01*
X224000Y296000D02*
X270000D01*
X310000D02*
Y300000D01*
X306000Y292000D02*
X310000Y296000D01*
X303000Y302000D02*
X308000D01*
X310000Y300000D01*
X292491Y302509D02*
X293000Y302000D01*
X288000Y310000D02*
X292491Y305509D01*
X196000Y310000D02*
X288000D01*
X292491Y302509D02*
Y305509D01*
X240000Y298000D02*
X243000Y301000D01*
Y302000D01*
X180000Y340000D02*
X181260Y341260D01*
X184882D01*
X151000Y315000D02*
X154000Y318000D01*
X214000D01*
X176000Y234000D02*
X180000Y230000D01*
X176000Y234000D02*
Y241102D01*
X244500Y227500D02*
X250000Y222000D01*
X177500Y227500D02*
X244500D01*
X180000Y230000D02*
X246000D01*
X252000Y224000D01*
X171000Y234000D02*
X177500Y227500D01*
X171000Y234000D02*
Y241102D01*
X220000Y242500D02*
X222500D01*
X210000Y232500D02*
X220000Y242500D01*
X185000Y232500D02*
X210000D01*
X181000Y236500D02*
X185000Y232500D01*
X181000Y236500D02*
Y241102D01*
X220000Y245000D02*
X225000D01*
X210000Y235000D02*
X220000Y245000D01*
X187500Y235000D02*
X210000D01*
X186000Y236500D02*
X187500Y235000D01*
X186000Y236500D02*
Y241102D01*
X222238Y247500D02*
X222500D01*
X221687Y248051D02*
X222238Y247500D01*
X200921Y248051D02*
X221687D01*
X221949Y253051D02*
X225000Y250000D01*
X200921Y253051D02*
X221949D01*
X200921Y258051D02*
X215551D01*
X217500Y260000D02*
X222500D01*
X215551Y258051D02*
X217500Y260000D01*
X214332Y262500D02*
X225000D01*
X213780Y263051D02*
X214332Y262500D01*
X200921Y263051D02*
X213780D01*
X217500Y265000D02*
X222500D01*
X214449Y268051D02*
X217500Y265000D01*
X200921Y268051D02*
X214449D01*
X219449Y273051D02*
X225000Y267500D01*
X200921Y273051D02*
X219449D01*
X252500Y290000D02*
X260000D01*
X249449Y293051D02*
X252500Y290000D01*
X200921Y293051D02*
X249449D01*
X252500Y287500D02*
X257500D01*
X251949Y288051D02*
X252500Y287500D01*
X200921Y288051D02*
X251949D01*
X200921Y278051D02*
X248051D01*
X252500Y282500D01*
X257500D01*
X250551Y283051D02*
X252500Y285000D01*
X260000D01*
X200921Y283051D02*
X250551D01*
X221949Y298051D02*
X224000Y296000D01*
X200921Y298051D02*
X221949D01*
X226000Y298000D02*
X240000D01*
X220949Y303051D02*
X226000Y298000D01*
X200921Y303051D02*
X220949D01*
X405000Y410000D02*
X440158D01*
X411083Y404095D02*
X415177Y400000D01*
X415472D01*
X405000Y404095D02*
X411083D01*
Y379095D02*
X415177Y375000D01*
X405000Y379095D02*
X411083D01*
X415177Y375000D02*
X415472D01*
X405000Y385000D02*
X440158D01*
X405000Y360000D02*
X440158D01*
X411083Y354095D02*
X415177Y350000D01*
X405000Y354095D02*
X411083D01*
X415177Y350000D02*
X415472D01*
X359842Y330000D02*
X369843Y320000D01*
X380000D01*
X384528D02*
X384823D01*
X388917Y324095D02*
X395000D01*
X384823Y320000D02*
X388917Y324095D01*
X405000D02*
X411083D01*
X415177Y320000D01*
X415472D01*
X405000Y330000D02*
X440158D01*
X405000Y305000D02*
X440158D01*
X405000Y255000D02*
X440158D01*
X405000Y280000D02*
X440158D01*
X415177Y295000D02*
X415472D01*
X405000Y299095D02*
X411083D01*
X415177Y295000D01*
X405000Y274095D02*
X411083D01*
X415177Y270000D01*
X415472D01*
X415177Y245000D02*
X415472D01*
X405000Y249095D02*
X411083D01*
X415177Y245000D01*
X411083Y219094D02*
X415177Y215000D01*
X415472D01*
X405000Y219094D02*
X411083D01*
X405000Y225000D02*
X440158D01*
X405000Y200000D02*
X440158D01*
X415177Y190000D02*
X415472D01*
X405000Y194095D02*
X411083D01*
X415177Y190000D01*
Y140000D02*
X415472D01*
X405000Y144095D02*
X411083D01*
X415177Y140000D01*
X411083Y169095D02*
X415177Y165000D01*
X405000Y169095D02*
X411083D01*
X415177Y165000D02*
X415472D01*
X405000Y175000D02*
X440158D01*
X405000Y150000D02*
X440158D01*
X415158Y125000D02*
X419830D01*
X423486Y128656D01*
X444378D01*
X448033Y125000D01*
X470000D01*
X454823Y115000D02*
X458917Y119095D01*
X470000D01*
X454528Y115000D02*
X454823D01*
X434842Y125000D02*
X444842Y115000D01*
X450000D01*
X374843D02*
X384842Y125000D01*
X349304Y115000D02*
X374843D01*
X340386Y119095D02*
X344481Y115000D01*
X330000Y119095D02*
X340386D01*
X344481Y115000D02*
X344776D01*
X330000Y125000D02*
X365158D01*
X449843Y140000D02*
X459842Y150000D01*
X420000Y140000D02*
X449843D01*
X420000Y165000D02*
X449843D01*
X459842Y175000D01*
X420000Y190000D02*
X449843D01*
X459842Y200000D01*
X420000Y215000D02*
X449843D01*
X459842Y225000D01*
X449843Y245000D02*
X459842Y255000D01*
X420000Y245000D02*
X449843D01*
X420000Y270000D02*
X449843D01*
X459842Y280000D01*
X420000Y295000D02*
X449843D01*
X459842Y305000D01*
X420000Y320000D02*
X449843D01*
X459842Y330000D01*
X449843Y350000D02*
X459842Y360000D01*
X420000Y350000D02*
X449843D01*
Y375000D02*
X459842Y385000D01*
X420000Y375000D02*
X449843D01*
X420000Y400000D02*
X449843D01*
X459842Y410000D01*
X449685Y425000D02*
X459685Y435000D01*
X420000Y425000D02*
X449685D01*
X411083Y429095D02*
X415177Y425000D01*
X415472D01*
X405000Y429095D02*
X411083D01*
X405000Y435000D02*
X440000D01*
X384528Y140000D02*
X384823D01*
X388917Y144095D02*
X395000D01*
X384823Y140000D02*
X388917Y144095D01*
X369843Y140000D02*
X380000D01*
X359842Y150000D02*
X369843Y140000D01*
X359842Y175000D02*
X369843Y165000D01*
X380000D01*
X384528D02*
X384823D01*
X388917Y169095D02*
X395000D01*
X384823Y165000D02*
X388917Y169095D01*
X359842Y200000D02*
X369843Y190000D01*
X380000D01*
X384823D02*
X388917Y194095D01*
X395000D01*
X384528Y190000D02*
X384823D01*
X369843Y215000D02*
X380000D01*
X359842Y225000D02*
X369843Y215000D01*
X388917Y219094D02*
X395000D01*
X384823Y215000D02*
X388917Y219094D01*
X384528Y215000D02*
X384823D01*
X359842Y255000D02*
X369843Y245000D01*
X380000D01*
X388917Y249095D02*
X395000D01*
X384823Y245000D02*
X388917Y249095D01*
X384528Y245000D02*
X384823D01*
X369843Y270000D02*
X380000D01*
X359842Y280000D02*
X369843Y270000D01*
X384528D02*
X384823D01*
X388917Y274095D02*
X395000D01*
X384823Y270000D02*
X388917Y274095D01*
X359842Y305000D02*
X369843Y295000D01*
X380000D01*
X384528D02*
X384823D01*
X388917Y299095D02*
X395000D01*
X384823Y295000D02*
X388917Y299095D01*
X369843Y350000D02*
X380000D01*
X359842Y360000D02*
X369843Y350000D01*
X388917Y354095D02*
X395000D01*
X384823Y350000D02*
X388917Y354095D01*
X384528Y350000D02*
X384823D01*
X359842Y385000D02*
X369843Y375000D01*
X380000D01*
X384823D02*
X388917Y379095D01*
X384528Y375000D02*
X384823D01*
X388917Y379095D02*
X395000D01*
X359842Y435000D02*
X369843Y425000D01*
X380000D01*
X359842Y410000D02*
X369843Y400000D01*
X380000D01*
X384823D02*
X388917Y404095D01*
X384528Y400000D02*
X384823D01*
X388917Y404095D02*
X395000D01*
X384823Y425000D02*
X388917Y429095D01*
X395000D01*
X384528Y425000D02*
X384823D01*
X391344Y438656D02*
X395000Y435000D01*
X348486Y438656D02*
X391344D01*
X344830Y435000D02*
X348486Y438656D01*
X340158Y435000D02*
X344830D01*
X391344Y413656D02*
X395000Y410000D01*
X348486Y413656D02*
X391344D01*
X344830Y410000D02*
X348486Y413656D01*
X340158Y410000D02*
X344830D01*
X391344Y388656D02*
X395000Y385000D01*
X348486Y388656D02*
X391344D01*
X344830Y385000D02*
X348486Y388656D01*
X340158Y385000D02*
X344830D01*
X391344Y363656D02*
X395000Y360000D01*
X348486Y363656D02*
X391344D01*
X344830Y360000D02*
X348486Y363656D01*
X340158Y360000D02*
X344830D01*
X391344Y333656D02*
X395000Y330000D01*
X348486Y333656D02*
X391344D01*
X344830Y330000D02*
X348486Y333656D01*
X340158Y330000D02*
X344830D01*
X391344Y308656D02*
X395000Y305000D01*
X348486Y308656D02*
X391344D01*
X344830Y305000D02*
X348486Y308656D01*
X340158Y305000D02*
X344830D01*
X391344Y283656D02*
X395000Y280000D01*
X348486Y283656D02*
X391344D01*
X344830Y280000D02*
X348486Y283656D01*
X340158Y280000D02*
X344830D01*
X391344Y258656D02*
X395000Y255000D01*
X348486Y258656D02*
X391344D01*
X344830Y255000D02*
X348486Y258656D01*
X340158Y255000D02*
X344830D01*
X391344Y228656D02*
X395000Y225000D01*
X348486Y228656D02*
X391344D01*
X344830Y225000D02*
X348486Y228656D01*
X340158Y225000D02*
X344830D01*
X391344Y203656D02*
X395000Y200000D01*
X348486Y203656D02*
X391344D01*
X344830Y200000D02*
X348486Y203656D01*
X340158Y200000D02*
X344830D01*
X348486Y178656D02*
X391344D01*
X340158Y175000D02*
X344830D01*
X348486Y178656D01*
X391344D02*
X395000Y175000D01*
X391344Y153656D02*
X395000Y150000D01*
X348486Y153656D02*
X391344D01*
X344830Y150000D02*
X348486Y153656D01*
X340158Y150000D02*
X344830D01*
X141000Y310000D02*
Y317000D01*
X136000Y310000D02*
Y318000D01*
X176000Y300000D02*
Y310000D01*
X184000Y292000D02*
X192000D01*
X176000Y300000D02*
X184000Y292000D01*
X171000Y301000D02*
Y310000D01*
X184000Y288000D02*
X192000D01*
X171000Y301000D02*
X184000Y288000D01*
X166000Y300000D02*
Y310000D01*
X182000Y284000D02*
X192000D01*
X166000Y300000D02*
X182000Y284000D01*
X161000Y301000D02*
X182000Y280000D01*
X161000Y301000D02*
Y310000D01*
X182000Y280000D02*
X192000D01*
X156000Y300000D02*
Y310000D01*
Y300000D02*
X180000Y276000D01*
X192000D01*
X215000Y335000D02*
Y350000D01*
X151161Y171205D02*
Y196795D01*
X151303Y196937D01*
Y205562D01*
X144000Y206000D02*
X144262D01*
X144700Y205562D01*
X147839D01*
X165273Y214465D02*
X165738Y214000D01*
X166000D01*
X161303Y214465D02*
X165273D01*
X161303Y200431D02*
X161734Y200000D01*
X165000D01*
X161303Y200431D02*
Y200472D01*
Y205000D02*
Y211000D01*
X155831D02*
X161303D01*
X151303Y205562D02*
Y211000D01*
X141000Y234000D02*
X155831Y219169D01*
Y211000D02*
Y219169D01*
X141000Y234000D02*
Y241102D01*
X246000Y175000D02*
Y175262D01*
X244528Y176734D02*
X246000Y175262D01*
X202500Y177762D02*
Y182972D01*
X202000Y206738D02*
Y207000D01*
Y206738D02*
X202500Y206238D01*
X223661Y204016D02*
Y208399D01*
X220000Y209000D02*
X221102Y207898D01*
Y204016D02*
Y207898D01*
X223661Y208399D02*
X224000Y208738D01*
Y209000D01*
X244528Y176734D02*
Y180984D01*
X202500Y202028D02*
Y206238D01*
X210000Y209000D02*
X210185Y208815D01*
Y204303D02*
Y208815D01*
Y204303D02*
X210472Y204016D01*
X202000Y177000D02*
Y177262D01*
X202500Y177762D01*
X131000Y310000D02*
Y316000D01*
X236000Y340052D02*
X239948D01*
X240000Y340000D01*
X232262Y336000D02*
X232738Y335524D01*
X232000Y336000D02*
X232262D01*
X232738Y335524D02*
X236000D01*
X300000Y396000D02*
X300188Y396188D01*
X220000Y336000D02*
Y341472D01*
Y346000D02*
Y350000D01*
X204528Y340000D02*
X210000D01*
X200000Y334000D02*
Y340000D01*
X199094Y333095D02*
X200000Y334000D01*
X199094Y330000D02*
Y333095D01*
X210000Y330000D02*
X215000Y335000D01*
X205000Y330000D02*
X210000D01*
X302000Y384000D02*
X302095Y384095D01*
X310000D01*
Y324000D02*
Y328331D01*
X307000Y345000D02*
X310000D01*
X304000Y342000D02*
X307000Y345000D01*
X304000Y336000D02*
Y342000D01*
X300000Y332000D02*
X304000Y336000D01*
X292000Y332000D02*
X300000D01*
X310000Y332859D02*
Y339094D01*
X174318Y327000D02*
X181000D01*
X175528Y353000D02*
X181000D01*
X175528Y359000D02*
X181000D01*
X167000D02*
X171000D01*
X149000Y343000D02*
X152020Y339980D01*
X155532D01*
X167724Y350020D02*
X170705Y353000D01*
X160846Y350020D02*
X167724D01*
X170705Y353000D02*
X171000D01*
X169033Y343000D02*
X170773Y341260D01*
X169000Y343000D02*
X169033D01*
X170773Y341260D02*
X175000D01*
X170480Y337520D02*
X175000D01*
X164673Y343327D02*
X170480Y337520D01*
X160846Y343327D02*
X164673D01*
X165000Y345000D02*
X175000D01*
X163625Y346375D02*
X165000Y345000D01*
X160846Y346673D02*
X161145Y346375D01*
X163625D01*
X160548D02*
X160846Y346673D01*
X155532Y343327D02*
X158580Y346375D01*
X160548D01*
X212000Y439000D02*
X217472D01*
X212000Y445000D02*
X217472D01*
X222000D02*
X228000D01*
X222000Y439000D02*
X228000D01*
X230000Y433000D02*
Y438942D01*
X227736Y430736D02*
X230000Y433000D01*
X227736Y422628D02*
Y430736D01*
X230000Y438942D02*
X230586Y439528D01*
X234000D01*
X250528Y443000D02*
X256000D01*
X242000D02*
X246000D01*
X240000Y441000D02*
X242000Y443000D01*
X240000Y437000D02*
Y441000D01*
X234000Y435000D02*
X238000D01*
X240000Y437000D01*
X245611Y436611D02*
X246000Y437000D01*
X243611Y436611D02*
X245611D01*
X246000Y429000D02*
X248000D01*
X250528Y431528D02*
Y437000D01*
X248000Y429000D02*
X250528Y431528D01*
X240000Y429000D02*
X246000D01*
X235807Y422628D02*
Y428807D01*
X238000Y427000D02*
X240000Y429000D01*
X238000Y420110D02*
Y427000D01*
X237910Y420020D02*
X238000Y420110D01*
X237628Y420020D02*
X237910D01*
X237628Y411161D02*
X237719Y411071D01*
X234018Y422646D02*
Y434982D01*
X232000Y427000D02*
X232173Y426827D01*
Y422718D02*
Y426827D01*
X229720Y426327D02*
Y429000D01*
Y426327D02*
X230492Y425555D01*
X234018Y422646D02*
X234035Y422628D01*
X234000Y435000D02*
X234018Y434982D01*
X232173Y422718D02*
X232264Y422628D01*
X230492D02*
Y425555D01*
X225982Y422646D02*
Y432982D01*
X226000Y433000D01*
X225965Y422628D02*
X225982Y422646D01*
X222535Y429067D02*
X224193Y427410D01*
X222535Y429067D02*
Y433000D01*
X224193Y422628D02*
Y427410D01*
D19*
X166366Y409291D02*
D03*
Y395709D02*
D03*
D20*
X175723Y412386D02*
D03*
Y417614D02*
D03*
X306093Y409614D02*
D03*
Y404386D02*
D03*
X186654Y412057D02*
D03*
Y417286D02*
D03*
X196701Y412057D02*
D03*
Y417286D02*
D03*
X296047Y409614D02*
D03*
Y404386D02*
D03*
X286000Y409614D02*
D03*
Y404386D02*
D03*
X206747Y412057D02*
D03*
Y417286D02*
D03*
D21*
X246000Y411925D02*
D03*
Y406610D02*
D03*
X213000Y363390D02*
D03*
Y358075D02*
D03*
D22*
X131535Y228000D02*
D03*
X136764D02*
D03*
D23*
X161303Y205000D02*
D03*
Y200472D02*
D03*
X202500Y182972D02*
D03*
Y187500D02*
D03*
Y197500D02*
D03*
Y202028D02*
D03*
X236000Y340052D02*
D03*
Y335524D02*
D03*
X220000Y341472D02*
D03*
Y346000D02*
D03*
X234000Y439528D02*
D03*
Y435000D02*
D03*
X246000Y429000D02*
D03*
Y424472D02*
D03*
X316405Y385472D02*
D03*
Y390000D02*
D03*
X310000Y328331D02*
D03*
Y332859D02*
D03*
D24*
X161303Y211000D02*
D03*
Y214465D02*
D03*
X215000Y416732D02*
D03*
Y413268D02*
D03*
X278000Y405268D02*
D03*
Y408732D02*
D03*
X207000Y359000D02*
D03*
Y362465D02*
D03*
X191000Y359000D02*
D03*
Y362465D02*
D03*
D25*
X151303Y205562D02*
D03*
X147839D02*
D03*
X134465Y220000D02*
D03*
X131000D02*
D03*
X226000Y433000D02*
D03*
X222535D02*
D03*
X252000Y415000D02*
D03*
X255465D02*
D03*
X201000Y359000D02*
D03*
X197535D02*
D03*
D26*
X155831Y211000D02*
D03*
X151303D02*
D03*
X420000Y320000D02*
D03*
X415472D02*
D03*
X380000Y350000D02*
D03*
X384528D02*
D03*
X420000Y295000D02*
D03*
X415472D02*
D03*
X420000Y350000D02*
D03*
X415472D02*
D03*
X380000Y320000D02*
D03*
X384528D02*
D03*
X450000Y115000D02*
D03*
X454528D02*
D03*
X380000Y140000D02*
D03*
X384528D02*
D03*
X380000Y165000D02*
D03*
X384528D02*
D03*
X420000Y140000D02*
D03*
X415472D02*
D03*
X349304Y115000D02*
D03*
X344776D02*
D03*
X380000Y190000D02*
D03*
X384528D02*
D03*
X420000Y425000D02*
D03*
X415472D02*
D03*
X420000Y400000D02*
D03*
X415472D02*
D03*
X420000Y375000D02*
D03*
X415472D02*
D03*
X380000Y400000D02*
D03*
X384528D02*
D03*
X380000Y425000D02*
D03*
X384528D02*
D03*
X380000Y375000D02*
D03*
X384528D02*
D03*
X420000Y165000D02*
D03*
X415472D02*
D03*
X420000Y245000D02*
D03*
X415472D02*
D03*
X420000Y190000D02*
D03*
X415472D02*
D03*
X380000Y215000D02*
D03*
X384528D02*
D03*
X420000D02*
D03*
X415472D02*
D03*
X380000Y245000D02*
D03*
X384528D02*
D03*
X380000Y295000D02*
D03*
X384528D02*
D03*
X380000Y270000D02*
D03*
X384528D02*
D03*
X420000D02*
D03*
X415472D02*
D03*
X246000Y443000D02*
D03*
X250528D02*
D03*
X246000Y437000D02*
D03*
X250528D02*
D03*
X222000Y445000D02*
D03*
X217472D02*
D03*
X222000Y439000D02*
D03*
X217472D02*
D03*
X204528Y340000D02*
D03*
X200000D02*
D03*
X175528Y353000D02*
D03*
X171000D02*
D03*
X175528Y359000D02*
D03*
X171000D02*
D03*
X174318Y327000D02*
D03*
X169791D02*
D03*
D27*
X218543Y204016D02*
D03*
X215984D02*
D03*
X213425D02*
D03*
X221102D02*
D03*
X223661D02*
D03*
Y180984D02*
D03*
X221102D02*
D03*
X213425D02*
D03*
X215984D02*
D03*
X218543D02*
D03*
X226220D02*
D03*
X228780D02*
D03*
X231339D02*
D03*
X233898D02*
D03*
X241575D02*
D03*
X239016D02*
D03*
X236457D02*
D03*
Y204016D02*
D03*
X239016D02*
D03*
X241575D02*
D03*
X233898D02*
D03*
X231339D02*
D03*
X228780D02*
D03*
X226220D02*
D03*
D28*
X210472Y180984D02*
D03*
X244528D02*
D03*
Y204016D02*
D03*
X210472D02*
D03*
D29*
X470000Y125000D02*
D03*
Y119095D02*
D03*
X395000Y150000D02*
D03*
Y144095D02*
D03*
X405000Y150000D02*
D03*
Y144095D02*
D03*
Y175000D02*
D03*
Y169095D02*
D03*
X395000Y175000D02*
D03*
Y169095D02*
D03*
X330000Y125000D02*
D03*
Y119095D02*
D03*
X405000Y435000D02*
D03*
Y429095D02*
D03*
X395000Y410000D02*
D03*
Y404095D02*
D03*
X405000Y410000D02*
D03*
Y404095D02*
D03*
X395000Y435000D02*
D03*
Y429095D02*
D03*
Y360000D02*
D03*
Y354095D02*
D03*
X405000Y385000D02*
D03*
Y379095D02*
D03*
Y360000D02*
D03*
Y354095D02*
D03*
X395000Y385000D02*
D03*
Y379095D02*
D03*
X405000Y255000D02*
D03*
Y249095D02*
D03*
X395000Y225000D02*
D03*
Y219094D02*
D03*
X405000Y305000D02*
D03*
Y299095D02*
D03*
Y280000D02*
D03*
Y274095D02*
D03*
X395000Y305000D02*
D03*
Y299095D02*
D03*
Y280000D02*
D03*
Y274095D02*
D03*
X405000Y330000D02*
D03*
Y324095D02*
D03*
X395000Y330000D02*
D03*
Y324095D02*
D03*
Y255000D02*
D03*
Y249095D02*
D03*
X405000Y200000D02*
D03*
Y194095D02*
D03*
X395000Y200000D02*
D03*
Y194095D02*
D03*
X405000Y225000D02*
D03*
Y219094D02*
D03*
X310000Y345000D02*
D03*
Y339094D02*
D03*
Y384095D02*
D03*
Y390000D02*
D03*
D30*
X131000Y241102D02*
D03*
X136000D02*
D03*
X141000D02*
D03*
X146000D02*
D03*
X151000D02*
D03*
X156000D02*
D03*
X161000D02*
D03*
X166000D02*
D03*
X171000D02*
D03*
X176000D02*
D03*
X181000D02*
D03*
X186000D02*
D03*
X191000D02*
D03*
X196000D02*
D03*
Y310000D02*
D03*
X191000D02*
D03*
X186000D02*
D03*
X181000D02*
D03*
X176000D02*
D03*
X171000D02*
D03*
X166000D02*
D03*
X161000D02*
D03*
X156000D02*
D03*
X151000D02*
D03*
X146000D02*
D03*
X141000D02*
D03*
X136000D02*
D03*
X131000D02*
D03*
D31*
X200921Y248051D02*
D03*
Y253051D02*
D03*
Y258051D02*
D03*
Y263051D02*
D03*
Y268051D02*
D03*
Y273051D02*
D03*
Y278051D02*
D03*
Y283051D02*
D03*
Y288051D02*
D03*
Y293051D02*
D03*
Y298051D02*
D03*
Y303051D02*
D03*
D32*
X205000Y330000D02*
D03*
X199094D02*
D03*
D33*
X233878Y411102D02*
D03*
D34*
X231919Y417953D02*
D03*
D35*
X224193Y422628D02*
D03*
X225965D02*
D03*
X227736D02*
D03*
X230492D02*
D03*
X232264D02*
D03*
X234035D02*
D03*
X235807D02*
D03*
D36*
X237628Y420020D02*
D03*
Y418248D02*
D03*
Y416476D02*
D03*
Y414705D02*
D03*
Y412933D02*
D03*
Y411161D02*
D03*
Y409390D02*
D03*
D37*
X234035Y407382D02*
D03*
D38*
X224316Y408086D02*
D03*
D39*
X227589Y412343D02*
D03*
D40*
X225337Y418211D02*
D03*
D41*
X245000Y342685D02*
D03*
Y350873D02*
D03*
X230000Y316811D02*
D03*
Y325000D02*
D03*
D42*
X259980Y346779D02*
D03*
X244980Y320905D02*
D03*
D43*
X286000Y313028D02*
D03*
D44*
X276984Y338972D02*
D03*
X286000D02*
D03*
D45*
X295016D02*
D03*
D46*
X285000Y347158D02*
D03*
X292677D02*
D03*
X285000Y360000D02*
D03*
X292677D02*
D03*
D47*
X233740Y353937D02*
D03*
X226260D02*
D03*
X230000Y346063D02*
D03*
D48*
X265500Y380000D02*
D03*
X230000D02*
D03*
D49*
X175000Y345000D02*
D03*
Y341260D02*
D03*
Y337520D02*
D03*
X184882D02*
D03*
Y341260D02*
D03*
Y345000D02*
D03*
D70*
X265000Y120000D02*
D03*
Y130000D02*
D03*
X235000Y120000D02*
D03*
Y130000D02*
D03*
X250000Y120000D02*
D03*
Y130000D02*
D03*
X205000Y120000D02*
D03*
Y130000D02*
D03*
X220000Y120000D02*
D03*
Y130000D02*
D03*
X190000Y120000D02*
D03*
Y130000D02*
D03*
X145000Y120000D02*
D03*
Y130000D02*
D03*
X160000Y120000D02*
D03*
Y130000D02*
D03*
X175000Y120000D02*
D03*
Y130000D02*
D03*
X310000Y120000D02*
D03*
Y130000D02*
D03*
X295000Y120000D02*
D03*
Y130000D02*
D03*
X280000Y120000D02*
D03*
Y130000D02*
D03*
D71*
X265000Y140000D02*
D03*
X235000D02*
D03*
X250000D02*
D03*
X205000D02*
D03*
X220000D02*
D03*
X190000D02*
D03*
X145000D02*
D03*
X160000D02*
D03*
X175000D02*
D03*
X310000D02*
D03*
X295000D02*
D03*
X280000D02*
D03*
D73*
X293000Y302000D02*
D03*
X283000D02*
D03*
X273000D02*
D03*
X263000D02*
D03*
X253000D02*
D03*
X243000D02*
D03*
X233000D02*
D03*
X303000Y272000D02*
D03*
X293000D02*
D03*
X283000D02*
D03*
X273000D02*
D03*
X263000D02*
D03*
X253000D02*
D03*
X243000D02*
D03*
X233000D02*
D03*
X459685Y435000D02*
D03*
X449843D02*
D03*
X459842Y410000D02*
D03*
X450000D02*
D03*
X459842Y385000D02*
D03*
X450000D02*
D03*
X459842Y360000D02*
D03*
X450000D02*
D03*
X359842Y255000D02*
D03*
X350000D02*
D03*
X359842Y280000D02*
D03*
X350000D02*
D03*
X359842Y330000D02*
D03*
X350000D02*
D03*
X359842Y305000D02*
D03*
X350000D02*
D03*
X359842Y225000D02*
D03*
X350000D02*
D03*
X359842Y200000D02*
D03*
X350000D02*
D03*
X359842Y175000D02*
D03*
X350000D02*
D03*
X359842Y150000D02*
D03*
X350000D02*
D03*
X359842Y385000D02*
D03*
X350000D02*
D03*
X359842Y435000D02*
D03*
X350000D02*
D03*
X359842Y410000D02*
D03*
X350000D02*
D03*
X359842Y360000D02*
D03*
X350000D02*
D03*
X459842Y150000D02*
D03*
X450000D02*
D03*
X459842Y175000D02*
D03*
X450000D02*
D03*
X434842Y125000D02*
D03*
X425000D02*
D03*
X384842D02*
D03*
X375000D02*
D03*
X459842Y280000D02*
D03*
X450000D02*
D03*
X459842Y255000D02*
D03*
X450000D02*
D03*
X459842Y225000D02*
D03*
X450000D02*
D03*
X459842Y200000D02*
D03*
X450000D02*
D03*
X459842Y305000D02*
D03*
X450000D02*
D03*
X459842Y330000D02*
D03*
X450000D02*
D03*
D74*
X440000Y435000D02*
D03*
X440158Y410000D02*
D03*
Y385000D02*
D03*
Y360000D02*
D03*
X340158Y255000D02*
D03*
Y280000D02*
D03*
Y330000D02*
D03*
Y305000D02*
D03*
Y225000D02*
D03*
Y200000D02*
D03*
Y175000D02*
D03*
Y150000D02*
D03*
Y385000D02*
D03*
Y435000D02*
D03*
Y410000D02*
D03*
Y360000D02*
D03*
X440158Y150000D02*
D03*
Y175000D02*
D03*
X415158Y125000D02*
D03*
X365158D02*
D03*
X440158Y280000D02*
D03*
Y255000D02*
D03*
Y225000D02*
D03*
Y200000D02*
D03*
Y305000D02*
D03*
Y330000D02*
D03*
D75*
X155532Y356713D02*
D03*
Y353366D02*
D03*
Y350020D02*
D03*
Y346673D02*
D03*
Y343327D02*
D03*
Y339980D02*
D03*
Y336634D02*
D03*
Y333287D02*
D03*
X160846D02*
D03*
Y336634D02*
D03*
Y339980D02*
D03*
Y343327D02*
D03*
Y346673D02*
D03*
Y350020D02*
D03*
Y353366D02*
D03*
Y356713D02*
D03*
D76*
X156988Y327972D02*
D03*
Y362028D02*
D03*
D77*
X143681Y327972D02*
D03*
Y362028D02*
D03*
D79*
X280157Y250000D02*
D03*
X245000D02*
D03*
D80*
X290000D02*
D03*
X254842D02*
D03*
D81*
X134465Y220079D02*
X134896Y219648D01*
Y218716D02*
X135000Y218612D01*
Y216000D02*
Y218612D01*
X134896Y218716D02*
Y219648D01*
X131000Y216000D02*
Y220000D01*
X136000Y228764D02*
Y241102D01*
Y228764D02*
X136764Y228000D01*
Y222378D02*
Y228000D01*
X134465Y220079D02*
X136764Y222378D01*
X131535Y220614D02*
Y228000D01*
X131000Y228535D02*
Y241102D01*
Y228535D02*
X131535Y228000D01*
X286000Y308000D02*
X288000Y306000D01*
Y252000D02*
Y306000D01*
X259000Y308000D02*
X286000D01*
X253000Y302000D02*
X259000Y308000D01*
X288000Y252000D02*
X290000Y250000D01*
Y246000D02*
Y250000D01*
X278000Y253180D02*
X280157Y251022D01*
X275180Y256000D02*
X278000Y253180D01*
Y297000D01*
X283000Y302000D01*
X245000Y250000D02*
X251000Y256000D01*
X275180D01*
X280157Y250000D02*
Y251022D01*
X254842Y245158D02*
X256000Y244000D01*
X254842Y245158D02*
Y250000D01*
X256000Y244000D02*
X288000D01*
X290000Y246000D01*
D82*
X194300Y244767D02*
Y266577D01*
Y244767D02*
X194828Y244239D01*
Y242274D02*
X196000Y241102D01*
X194828Y242274D02*
Y244239D01*
X189745Y271745D02*
X189892Y271599D01*
Y270984D02*
X194300Y266577D01*
X189892Y270984D02*
Y271599D01*
X192700Y244767D02*
Y265914D01*
X192172Y244239D02*
X192700Y244767D01*
X188761Y269853D02*
X192700Y265914D01*
X191000Y241102D02*
X192172Y242274D01*
Y244239D01*
X188254Y329746D02*
X188462D01*
X189315Y330569D02*
X190664Y331917D01*
X188967Y340460D02*
X189961D01*
X188264Y339681D02*
Y339757D01*
X188967Y340460D01*
X184882Y337520D02*
X186102D01*
X190084Y328000D02*
X190231Y328147D01*
Y328775D01*
X190339Y328882D02*
Y329329D01*
X192264Y331255D01*
Y340420D01*
X188967Y342060D02*
X190624D01*
X186102Y337520D02*
X188264Y339681D01*
Y342763D02*
X188967Y342060D01*
X189286Y330569D02*
X189315D01*
X188462Y329746D02*
X189286Y330569D01*
X188264Y342763D02*
Y342839D01*
X190231Y328775D02*
X190339Y328882D01*
X190664Y331917D02*
Y339757D01*
X186102Y345000D02*
X188264Y342839D01*
X189961Y340460D02*
X190664Y339757D01*
X184882Y345000D02*
X186102D01*
X190624Y342060D02*
X192264Y340420D01*
X190000Y187500D02*
X195000D01*
X192500Y197500D02*
X195000D01*
X161000Y234000D02*
X185000Y210000D01*
X161000Y234000D02*
Y241102D01*
X185000Y205000D02*
Y210000D01*
Y192500D02*
Y205000D01*
Y192500D02*
X190000Y187500D01*
X187500Y202500D02*
Y212500D01*
Y202500D02*
X192500Y197500D01*
X170000Y230000D02*
X187500Y212500D01*
X166000Y234000D02*
X170000Y230000D01*
X166000Y234000D02*
Y241102D01*
X195000Y197500D02*
X202500D01*
X239016Y204016D02*
Y215984D01*
X241575Y204016D02*
Y218425D01*
X244528Y204016D02*
Y220472D01*
X250000Y140000D02*
Y145000D01*
X236457Y204016D02*
Y213543D01*
X195000Y187500D02*
X202500D01*
X241575Y173425D02*
Y180984D01*
X239016Y170984D02*
Y180984D01*
X236457Y168543D02*
Y180984D01*
X215984Y190984D02*
Y204016D01*
X212500Y187500D02*
X215984Y190984D01*
X212546Y197500D02*
X213425Y198379D01*
Y204016D01*
X202500Y197500D02*
X212546D01*
X202500Y187500D02*
X212500D01*
X223661Y163661D02*
Y180984D01*
X228780Y161221D02*
Y180984D01*
X235000Y140000D02*
Y155000D01*
X233898Y166102D02*
Y180984D01*
X231339Y163661D02*
Y180984D01*
X226220Y161221D02*
Y180984D01*
X205000Y140000D02*
Y150000D01*
X220000Y140000D02*
Y155000D01*
X310000Y140000D02*
Y155000D01*
X265000Y140000D02*
Y150000D01*
X295000Y140000D02*
Y160000D01*
X280000Y140000D02*
Y155000D01*
X205000Y150000D02*
X210000Y155000D01*
X215000D01*
X223661Y163661D01*
X220000Y155000D02*
X226220Y161221D01*
X231339Y163661D02*
X250000Y145000D01*
X228780Y161221D02*
X235000Y155000D01*
X245000D02*
X260000D01*
X245000Y160000D02*
X275000D01*
X233898Y166102D02*
X245000Y155000D01*
X236457Y168543D02*
X245000Y160000D01*
X239016Y170984D02*
X245000Y165000D01*
X290000D01*
X275000Y160000D02*
X280000Y155000D01*
X241575Y173425D02*
X245000Y170000D01*
X295000D01*
X260000Y155000D02*
X265000Y150000D01*
X290000Y165000D02*
X295000Y160000D01*
Y170000D02*
X310000Y155000D01*
D83*
X170000Y278000D02*
D03*
X172000Y259000D02*
D03*
X151000Y280000D02*
D03*
Y259000D02*
D03*
D84*
X470000Y105000D02*
D03*
X190000Y380000D02*
D03*
X290000Y430000D02*
D03*
D85*
X145000Y429173D02*
D03*
D86*
X303000Y302000D02*
D03*
D87*
X151161Y196795D02*
D03*
D88*
X133445D02*
D03*
Y171205D02*
D03*
X151161D02*
D03*
D89*
X280000Y210000D02*
D03*
Y190315D02*
D03*
D90*
X146201Y400827D02*
D03*
D91*
X308000Y415000D02*
D03*
X304000Y417000D02*
D03*
X176000Y397000D02*
D03*
Y401000D02*
D03*
Y405000D02*
D03*
X156000Y250000D02*
D03*
X151000D02*
D03*
X146000D02*
D03*
X184000Y296000D02*
D03*
X192000Y304000D02*
D03*
X182000Y300000D02*
D03*
Y304000D02*
D03*
X241969Y432030D02*
D03*
X252000Y402000D02*
D03*
X274000Y292000D02*
D03*
X306000D02*
D03*
X188254Y329746D02*
D03*
X190084Y328000D02*
D03*
X189745Y271745D02*
D03*
X188000Y270000D02*
D03*
X180000Y340000D02*
D03*
X214000Y318000D02*
D03*
X216000Y320000D02*
D03*
X214000Y322000D02*
D03*
X216000Y324000D02*
D03*
X252000Y224000D02*
D03*
X250000Y222000D02*
D03*
X239016Y215984D02*
D03*
X244528Y220472D02*
D03*
X222500Y242500D02*
D03*
X225000Y245000D02*
D03*
X222500Y247500D02*
D03*
X225000Y250000D02*
D03*
X222500Y260000D02*
D03*
X225000Y262500D02*
D03*
X222500Y265000D02*
D03*
X225000Y267500D02*
D03*
X257500Y282500D02*
D03*
X260000Y285000D02*
D03*
Y290000D02*
D03*
X257500Y287500D02*
D03*
X292000Y322000D02*
D03*
X282000D02*
D03*
X286000Y326000D02*
D03*
X294000Y354010D02*
D03*
X300000D02*
D03*
X274000Y377000D02*
D03*
X290000D02*
D03*
X282000D02*
D03*
X298000D02*
D03*
X300000Y360000D02*
D03*
X274000Y369000D02*
D03*
X290000D02*
D03*
X282000D02*
D03*
X298000D02*
D03*
X290000Y385000D02*
D03*
X298000D02*
D03*
Y393000D02*
D03*
X236457Y213543D02*
D03*
X241575Y218425D02*
D03*
X192000Y276000D02*
D03*
Y280000D02*
D03*
Y284000D02*
D03*
Y288000D02*
D03*
Y292000D02*
D03*
Y296000D02*
D03*
Y300000D02*
D03*
X215000Y335000D02*
D03*
X144000Y206000D02*
D03*
X166000Y214000D02*
D03*
X165000Y200000D02*
D03*
X224000Y209000D02*
D03*
X218000Y167000D02*
D03*
X220000Y209000D02*
D03*
X210000D02*
D03*
X212000Y173000D02*
D03*
X218000D02*
D03*
X246000Y175000D02*
D03*
X202000Y177000D02*
D03*
X212000Y167000D02*
D03*
X202000Y207000D02*
D03*
X131000Y316000D02*
D03*
Y216000D02*
D03*
X135000D02*
D03*
X232000Y336000D02*
D03*
X220000D02*
D03*
X210000Y340000D02*
D03*
X316405Y380188D02*
D03*
X310000Y324000D02*
D03*
X282000Y330000D02*
D03*
X292000D02*
D03*
X300000Y348000D02*
D03*
X197000Y367000D02*
D03*
X191000D02*
D03*
X207000D02*
D03*
X213000D02*
D03*
X195000Y353000D02*
D03*
X187000Y359000D02*
D03*
Y353000D02*
D03*
X191000D02*
D03*
X181000Y327000D02*
D03*
Y353000D02*
D03*
Y359000D02*
D03*
X167000D02*
D03*
X149000Y343000D02*
D03*
X169000D02*
D03*
X256000Y421000D02*
D03*
X262000D02*
D03*
Y415000D02*
D03*
X290000D02*
D03*
X282000D02*
D03*
X278000Y417000D02*
D03*
X286000D02*
D03*
X274000Y385000D02*
D03*
Y393000D02*
D03*
X290000D02*
D03*
X282000D02*
D03*
Y385000D02*
D03*
X200000Y397000D02*
D03*
X194000D02*
D03*
X188000D02*
D03*
X182000D02*
D03*
Y401000D02*
D03*
X188000D02*
D03*
X194000D02*
D03*
X200000D02*
D03*
X206000D02*
D03*
Y405000D02*
D03*
X200000D02*
D03*
X194000D02*
D03*
X188000D02*
D03*
X182000D02*
D03*
X212000Y439000D02*
D03*
Y445000D02*
D03*
X228000D02*
D03*
Y439000D02*
D03*
X256000Y443000D02*
D03*
X232000Y427000D02*
D03*
X229720Y429000D02*
D03*
M02*
