G04*
G04 #@! TF.GenerationSoftware,Altium Limited,Altium Designer,21.7.2 (23)*
G04*
G04 Layer_Physical_Order=4*
G04 Layer_Color=16711680*
%FSLAX25Y25*%
%MOIN*%
G70*
G04*
G04 #@! TF.SameCoordinates,5233C9E9-E8BD-4DB4-A303-C3663256A2A9*
G04*
G04*
G04 #@! TF.FilePolarity,Positive*
G04*
G01*
G75*
%ADD10C,0.01000*%
%ADD70C,0.06181*%
%ADD71R,0.06181X0.06181*%
%ADD73C,0.05512*%
%ADD74R,0.05512X0.05512*%
%ADD75C,0.02559*%
G04:AMPARAMS|DCode=76|XSize=35.43mil|YSize=94.49mil|CornerRadius=17.72mil|HoleSize=0mil|Usage=FLASHONLY|Rotation=270.000|XOffset=0mil|YOffset=0mil|HoleType=Round|Shape=RoundedRectangle|*
%AMROUNDEDRECTD76*
21,1,0.03543,0.05906,0,0,270.0*
21,1,0.00000,0.09449,0,0,270.0*
1,1,0.03543,-0.02953,0.00000*
1,1,0.03543,-0.02953,0.00000*
1,1,0.03543,0.02953,0.00000*
1,1,0.03543,0.02953,0.00000*
%
%ADD76ROUNDEDRECTD76*%
G04:AMPARAMS|DCode=77|XSize=35.43mil|YSize=66.93mil|CornerRadius=17.72mil|HoleSize=0mil|Usage=FLASHONLY|Rotation=270.000|XOffset=0mil|YOffset=0mil|HoleType=Round|Shape=RoundedRectangle|*
%AMROUNDEDRECTD77*
21,1,0.03543,0.03150,0,0,270.0*
21,1,0.00000,0.06693,0,0,270.0*
1,1,0.03543,-0.01575,0.00000*
1,1,0.03543,-0.01575,0.00000*
1,1,0.03543,0.01575,0.00000*
1,1,0.03543,0.01575,0.00000*
%
%ADD77ROUNDEDRECTD77*%
%ADD79C,0.06102*%
%ADD80R,0.06102X0.06102*%
%ADD82C,0.01200*%
%ADD83C,0.06000*%
%ADD84C,0.15000*%
%ADD85R,0.23622X0.23622*%
%ADD86R,0.05512X0.05512*%
%ADD87R,0.05906X0.05906*%
%ADD88C,0.05906*%
%ADD89O,0.08268X0.05512*%
%ADD90C,0.23622*%
%ADD91C,0.01968*%
D10*
X180000Y296000D02*
X184000D01*
X178000Y300000D02*
X182000D01*
X156000Y304000D02*
X182000D01*
X178000Y294000D02*
X180000Y296000D01*
X178000Y256000D02*
Y294000D01*
X174000Y252000D02*
X178000Y256000D01*
X158000Y252000D02*
X174000D01*
X156000Y250000D02*
X158000Y252000D01*
X176000Y298000D02*
X178000Y300000D01*
X176000Y256000D02*
Y298000D01*
X174000Y254000D02*
X176000Y256000D01*
X155000Y254000D02*
X174000D01*
X151000Y250000D02*
X155000Y254000D01*
X146000Y294000D02*
X156000Y304000D01*
X146000Y250000D02*
Y294000D01*
X192000Y304000D02*
X202600Y314600D01*
X241969Y432030D02*
X245970D01*
X252000Y426000D01*
Y402000D02*
Y426000D01*
X365000Y125157D02*
Y130000D01*
Y125157D02*
X365158Y125000D01*
X415000Y125157D02*
Y130000D01*
Y125157D02*
X415158Y125000D01*
X440000Y145000D02*
Y149843D01*
X440158Y150000D01*
X440000Y170000D02*
Y174843D01*
X440158Y175000D01*
X340000Y150157D02*
Y155000D01*
Y150157D02*
X340158Y150000D01*
X340000Y175157D02*
Y180000D01*
Y175157D02*
X340158Y175000D01*
X440000Y195000D02*
Y199843D01*
X440158Y200000D01*
X440000Y220000D02*
Y224843D01*
X440158Y225000D01*
X340158Y200000D02*
Y209842D01*
X332500Y217500D02*
X340158Y209842D01*
X317500Y267500D02*
X340158Y244843D01*
Y225000D02*
Y244843D01*
X440158Y250157D02*
Y255000D01*
X437500Y247500D02*
X440158Y250157D01*
X440000Y275000D02*
Y279842D01*
X440158Y280000D01*
X325000Y285000D02*
X340158Y269843D01*
Y255000D02*
Y269843D01*
X340000Y272500D02*
X437500D01*
X325000Y287500D02*
X340000Y272500D01*
X257500Y287500D02*
X325000D01*
X437500Y272500D02*
X440000Y275000D01*
X260000Y285000D02*
X325000D01*
X340000Y280157D02*
X340158Y280000D01*
X340000Y280157D02*
Y285000D01*
X440000Y300000D02*
Y304842D01*
X440158Y305000D01*
X247500Y287500D02*
X255000Y295000D01*
X203500Y287500D02*
X247500D01*
X255000Y295000D02*
X435000D01*
X440000Y329842D02*
X440158Y330000D01*
X440000Y322500D02*
Y329842D01*
X340000Y300000D02*
Y304842D01*
X340158Y305000D01*
X247500Y297500D02*
Y307500D01*
X257500Y317500D02*
X435000D01*
X337500Y297500D02*
X340000Y300000D01*
X247500Y307500D02*
X257500Y317500D01*
X242500Y292500D02*
X247500Y297500D01*
X435000Y295000D02*
X440000Y300000D01*
X340000Y325000D02*
Y329842D01*
X340158Y330000D01*
X440000Y359842D02*
X440158Y360000D01*
X440000Y355000D02*
Y359842D01*
Y384842D02*
X440158Y385000D01*
X440000Y380000D02*
Y384842D01*
X340000Y381344D02*
Y384842D01*
X340158Y385000D01*
X435000Y350000D02*
X440000Y355000D01*
X262500Y350000D02*
X435000D01*
X257500Y345000D02*
X262500Y350000D01*
X257500Y330000D02*
Y345000D01*
X340000Y355000D02*
Y359842D01*
X340158Y360000D01*
X340000Y406344D02*
Y409842D01*
X340158Y410000D01*
X440000Y405000D02*
Y409842D01*
X440158Y410000D01*
X440000Y430000D02*
Y435000D01*
X315000D02*
X340158D01*
X274000Y292000D02*
X306000D01*
X207500Y332500D02*
X210000Y335000D01*
X180000D02*
Y340000D01*
X182500Y332500D02*
X207500D01*
X180000Y335000D02*
X182500Y332500D01*
X210000Y335000D02*
X215000D01*
X235500Y318000D02*
X247500Y330000D01*
X214000Y318000D02*
X235500D01*
X216000Y320000D02*
X235000D01*
X245000Y330000D01*
X234500Y322000D02*
X242500Y330000D01*
X214000Y322000D02*
X234500D01*
X234000Y324000D02*
X240000Y330000D01*
X216000Y324000D02*
X234000D01*
X202600Y314600D02*
X234600D01*
X357500Y137500D02*
X365000Y130000D01*
X330000Y137500D02*
X357500D01*
X315000Y152500D02*
X330000Y137500D01*
X315000Y152500D02*
Y200000D01*
X312500Y202500D02*
X315000Y200000D01*
X269500Y202500D02*
X312500D01*
X250000Y222000D02*
X269500Y202500D01*
X405000Y140000D02*
X415000Y130000D01*
X330000Y140000D02*
X405000D01*
X317500Y152500D02*
X330000Y140000D01*
X317500Y152500D02*
Y200000D01*
X312500Y205000D02*
X317500Y200000D01*
X271000Y205000D02*
X312500D01*
X252000Y224000D02*
X271000Y205000D01*
X325000Y182500D02*
Y232500D01*
Y182500D02*
X340000Y167500D01*
X437500D01*
X330000Y142500D02*
X437500D01*
X320000Y152500D02*
X330000Y142500D01*
X437500D02*
X440000Y145000D01*
X320000Y152500D02*
Y232500D01*
X315000Y237500D02*
X320000Y232500D01*
X237500Y237500D02*
X315000D01*
X232500Y242500D02*
X237500Y237500D01*
X222500Y242500D02*
X232500D01*
X322500Y172500D02*
X340000Y155000D01*
X322500Y172500D02*
Y232500D01*
X315000Y240000D02*
X322500Y232500D01*
X237500Y240000D02*
X315000D01*
X232500Y245000D02*
X237500Y240000D01*
X225000Y245000D02*
X232500D01*
X327500Y192500D02*
Y232500D01*
X315000Y245000D02*
X327500Y232500D01*
X315000Y242500D02*
X325000Y232500D01*
X237500Y242500D02*
X315000D01*
X437500Y167500D02*
X440000Y170000D01*
X232500Y247500D02*
X237500Y242500D01*
X222500Y247500D02*
X232500D01*
X327500Y192500D02*
X340000Y180000D01*
X237631Y245000D02*
X315000D01*
X232631Y250000D02*
X237631Y245000D01*
X225000Y250000D02*
X232631D01*
X337500Y192500D02*
X437500D01*
X330000Y200000D02*
X337500Y192500D01*
X437500D02*
X440000Y195000D01*
X330000Y200000D02*
Y247500D01*
X317500Y260000D02*
X330000Y247500D01*
X222500Y260000D02*
X317500D01*
X332500Y217500D02*
Y247500D01*
X317500Y262500D02*
X332500Y247500D01*
X225000Y262500D02*
X317500D01*
X437500Y217500D02*
X440000Y220000D01*
X340000Y217500D02*
X437500D01*
X335000Y222500D02*
X340000Y217500D01*
X335000Y222500D02*
Y247500D01*
X317500Y265000D02*
X335000Y247500D01*
X222500Y265000D02*
X317500D01*
X225000Y267500D02*
X317500D01*
X340000Y247500D02*
X437500D01*
X335000Y252500D02*
X340000Y247500D01*
X335000Y252500D02*
Y272500D01*
X325000Y282500D02*
X335000Y272500D01*
X257500Y282500D02*
X325000D01*
X335000Y290000D02*
X340000Y285000D01*
X260000Y290000D02*
X335000D01*
X192000Y276000D02*
X203500Y287500D01*
X252500Y297500D02*
X337500D01*
X245000Y290000D02*
X252500Y297500D01*
X202000Y290000D02*
X245000D01*
X192000Y280000D02*
X202000Y290000D01*
X435000Y317500D02*
X440000Y322500D01*
X200500Y292500D02*
X242500D01*
X192000Y284000D02*
X200500Y292500D01*
X335000Y320000D02*
X340000Y325000D01*
X250000Y320000D02*
X335000D01*
X237500Y307500D02*
X250000Y320000D01*
X237500Y300000D02*
Y307500D01*
X232500Y295000D02*
X237500Y300000D01*
X199000Y295000D02*
X232500D01*
X192000Y288000D02*
X199000Y295000D01*
X235000Y307500D02*
X257500Y330000D01*
X207500Y307500D02*
X235000D01*
X192000Y292000D02*
X207500Y307500D01*
X337026Y352026D02*
X340000Y355000D01*
X262026Y352026D02*
X337026D01*
X255000Y330000D02*
Y345000D01*
X262026Y352026D01*
X235000Y310000D02*
X255000Y330000D01*
X240000D02*
Y385000D01*
X245000Y330000D02*
Y385000D01*
X247500Y330000D02*
Y385000D01*
X242500Y330000D02*
Y385000D01*
X240000D02*
X265000Y410000D01*
X192000Y296000D02*
X206000Y310000D01*
X235000D01*
X435000Y375000D02*
X440000Y380000D01*
X260000Y375000D02*
X435000D01*
X252500Y367500D02*
X260000Y375000D01*
X252500Y330000D02*
Y367500D01*
X235000Y312500D02*
X252500Y330000D01*
X192000Y300000D02*
X204500Y312500D01*
X235000D01*
X250000Y367500D02*
X262500Y380000D01*
X250000Y330000D02*
Y367500D01*
X262500Y380000D02*
X338656D01*
X340000Y381344D01*
X234600Y314600D02*
X250000Y330000D01*
X437500Y402500D02*
X440000Y405000D01*
X265000Y402500D02*
X437500D01*
X247500Y385000D02*
X265000Y402500D01*
X435000Y425000D02*
X440000Y430000D01*
X337656Y404000D02*
X340000Y406344D01*
X264000Y404000D02*
X337656D01*
X242500Y385000D02*
X265000Y407500D01*
X245000Y385000D02*
X264000Y404000D01*
X265000Y407500D02*
X291500D01*
X309000Y425000D01*
X435000D01*
X290000Y410000D02*
X315000Y435000D01*
X265000Y410000D02*
X290000D01*
X151000Y359000D02*
X167000D01*
X149000Y357000D02*
X151000Y359000D01*
X149000Y343000D02*
Y357000D01*
X160548Y343625D02*
X160846Y343327D01*
X155532Y346673D02*
X158580Y343625D01*
X160548D01*
X228000Y445000D02*
X232000Y441000D01*
Y427000D02*
Y441000D01*
X228000Y438928D02*
X229720Y437207D01*
X228000Y438928D02*
Y439000D01*
X229720Y429000D02*
Y437207D01*
D70*
X265000Y120000D02*
D03*
Y130000D02*
D03*
X235000Y120000D02*
D03*
Y130000D02*
D03*
X250000Y120000D02*
D03*
Y130000D02*
D03*
X205000Y120000D02*
D03*
Y130000D02*
D03*
X220000Y120000D02*
D03*
Y130000D02*
D03*
X190000Y120000D02*
D03*
Y130000D02*
D03*
X145000Y120000D02*
D03*
Y130000D02*
D03*
X160000Y120000D02*
D03*
Y130000D02*
D03*
X175000Y120000D02*
D03*
Y130000D02*
D03*
X310000Y120000D02*
D03*
Y130000D02*
D03*
X295000Y120000D02*
D03*
Y130000D02*
D03*
X280000Y120000D02*
D03*
Y130000D02*
D03*
D71*
X265000Y140000D02*
D03*
X235000D02*
D03*
X250000D02*
D03*
X205000D02*
D03*
X220000D02*
D03*
X190000D02*
D03*
X145000D02*
D03*
X160000D02*
D03*
X175000D02*
D03*
X310000D02*
D03*
X295000D02*
D03*
X280000D02*
D03*
D73*
X293000Y302000D02*
D03*
X283000D02*
D03*
X273000D02*
D03*
X263000D02*
D03*
X253000D02*
D03*
X243000D02*
D03*
X233000D02*
D03*
X303000Y272000D02*
D03*
X293000D02*
D03*
X283000D02*
D03*
X273000D02*
D03*
X263000D02*
D03*
X253000D02*
D03*
X243000D02*
D03*
X233000D02*
D03*
X459685Y435000D02*
D03*
X449843D02*
D03*
X459842Y410000D02*
D03*
X450000D02*
D03*
X459842Y385000D02*
D03*
X450000D02*
D03*
X459842Y360000D02*
D03*
X450000D02*
D03*
X359842Y255000D02*
D03*
X350000D02*
D03*
X359842Y280000D02*
D03*
X350000D02*
D03*
X359842Y330000D02*
D03*
X350000D02*
D03*
X359842Y305000D02*
D03*
X350000D02*
D03*
X359842Y225000D02*
D03*
X350000D02*
D03*
X359842Y200000D02*
D03*
X350000D02*
D03*
X359842Y175000D02*
D03*
X350000D02*
D03*
X359842Y150000D02*
D03*
X350000D02*
D03*
X359842Y385000D02*
D03*
X350000D02*
D03*
X359842Y435000D02*
D03*
X350000D02*
D03*
X359842Y410000D02*
D03*
X350000D02*
D03*
X359842Y360000D02*
D03*
X350000D02*
D03*
X459842Y150000D02*
D03*
X450000D02*
D03*
X459842Y175000D02*
D03*
X450000D02*
D03*
X434842Y125000D02*
D03*
X425000D02*
D03*
X384842D02*
D03*
X375000D02*
D03*
X459842Y280000D02*
D03*
X450000D02*
D03*
X459842Y255000D02*
D03*
X450000D02*
D03*
X459842Y225000D02*
D03*
X450000D02*
D03*
X459842Y200000D02*
D03*
X450000D02*
D03*
X459842Y305000D02*
D03*
X450000D02*
D03*
X459842Y330000D02*
D03*
X450000D02*
D03*
D74*
X440000Y435000D02*
D03*
X440158Y410000D02*
D03*
Y385000D02*
D03*
Y360000D02*
D03*
X340158Y255000D02*
D03*
Y280000D02*
D03*
Y330000D02*
D03*
Y305000D02*
D03*
Y225000D02*
D03*
Y200000D02*
D03*
Y175000D02*
D03*
Y150000D02*
D03*
Y385000D02*
D03*
Y435000D02*
D03*
Y410000D02*
D03*
Y360000D02*
D03*
X440158Y150000D02*
D03*
Y175000D02*
D03*
X415158Y125000D02*
D03*
X365158D02*
D03*
X440158Y280000D02*
D03*
Y255000D02*
D03*
Y225000D02*
D03*
Y200000D02*
D03*
Y305000D02*
D03*
Y330000D02*
D03*
D75*
X155532Y356713D02*
D03*
Y353366D02*
D03*
Y350020D02*
D03*
Y346673D02*
D03*
Y343327D02*
D03*
Y339980D02*
D03*
Y336634D02*
D03*
Y333287D02*
D03*
X160846D02*
D03*
Y336634D02*
D03*
Y339980D02*
D03*
Y343327D02*
D03*
Y346673D02*
D03*
Y350020D02*
D03*
Y353366D02*
D03*
Y356713D02*
D03*
D76*
X156988Y327972D02*
D03*
Y362028D02*
D03*
D77*
X143681Y327972D02*
D03*
Y362028D02*
D03*
D79*
X280157Y250000D02*
D03*
X245000D02*
D03*
D80*
X290000D02*
D03*
X254842D02*
D03*
D82*
X187661Y270882D02*
Y271337D01*
X188000Y328416D02*
Y328863D01*
X186214Y272784D02*
Y326630D01*
X188000Y328416D01*
X187814Y273447D02*
X188692Y272568D01*
X187814Y325967D02*
X189024Y327177D01*
X189053D01*
X187814Y273447D02*
Y325967D01*
X188692Y272568D02*
X188715D01*
X186214Y272784D02*
X187661Y271337D01*
Y270882D02*
X187853Y270690D01*
Y270147D02*
X188000Y270000D01*
Y328863D02*
X188108Y328971D01*
Y329598D01*
X188254Y329746D01*
X187853Y270147D02*
Y270690D01*
X189876Y328000D02*
X190084D01*
X188715Y272568D02*
X189538Y271745D01*
X189745D01*
X189053Y327177D02*
X189876Y328000D01*
X235000Y220000D02*
X239016Y215984D01*
X235000Y230000D02*
X244528Y220472D01*
X190000Y205000D02*
X200000Y215000D01*
X190000Y140000D02*
Y205000D01*
X185000D02*
X200000Y220000D01*
X175000Y140000D02*
Y150000D01*
X185000Y160000D02*
Y205000D01*
X200000Y220000D02*
X235000D01*
X175000Y150000D02*
X185000Y160000D01*
X200000Y225000D02*
X235000D01*
X160000Y140000D02*
Y155000D01*
X180000Y175000D02*
Y205000D01*
X160000Y155000D02*
X180000Y175000D01*
Y205000D02*
X200000Y225000D01*
X145000Y140000D02*
Y150000D01*
X175000Y205000D02*
X200000Y230000D01*
X145000Y150000D02*
X175000Y180000D01*
Y205000D01*
X200000Y230000D02*
X235000D01*
Y215000D02*
X236457Y213543D01*
X200000Y215000D02*
X235000D01*
Y225000D02*
X241575Y218425D01*
D83*
X170000Y278000D02*
D03*
X172000Y259000D02*
D03*
X151000Y280000D02*
D03*
Y259000D02*
D03*
D84*
X470000Y105000D02*
D03*
X190000Y380000D02*
D03*
X290000Y430000D02*
D03*
D85*
X145000Y429173D02*
D03*
D86*
X303000Y302000D02*
D03*
D87*
X151161Y196795D02*
D03*
D88*
X133445D02*
D03*
Y171205D02*
D03*
X151161D02*
D03*
D89*
X280000Y210000D02*
D03*
Y190315D02*
D03*
D90*
X146201Y400827D02*
D03*
D91*
X308000Y415000D02*
D03*
X304000Y417000D02*
D03*
X176000Y397000D02*
D03*
Y401000D02*
D03*
Y405000D02*
D03*
X156000Y250000D02*
D03*
X151000D02*
D03*
X146000D02*
D03*
X184000Y296000D02*
D03*
X192000Y304000D02*
D03*
X182000Y300000D02*
D03*
Y304000D02*
D03*
X241969Y432030D02*
D03*
X252000Y402000D02*
D03*
X274000Y292000D02*
D03*
X306000D02*
D03*
X188254Y329746D02*
D03*
X190084Y328000D02*
D03*
X189745Y271745D02*
D03*
X188000Y270000D02*
D03*
X180000Y340000D02*
D03*
X214000Y318000D02*
D03*
X216000Y320000D02*
D03*
X214000Y322000D02*
D03*
X216000Y324000D02*
D03*
X252000Y224000D02*
D03*
X250000Y222000D02*
D03*
X239016Y215984D02*
D03*
X244528Y220472D02*
D03*
X222500Y242500D02*
D03*
X225000Y245000D02*
D03*
X222500Y247500D02*
D03*
X225000Y250000D02*
D03*
X222500Y260000D02*
D03*
X225000Y262500D02*
D03*
X222500Y265000D02*
D03*
X225000Y267500D02*
D03*
X257500Y282500D02*
D03*
X260000Y285000D02*
D03*
Y290000D02*
D03*
X257500Y287500D02*
D03*
X292000Y322000D02*
D03*
X282000D02*
D03*
X286000Y326000D02*
D03*
X294000Y354010D02*
D03*
X300000D02*
D03*
X274000Y377000D02*
D03*
X290000D02*
D03*
X282000D02*
D03*
X298000D02*
D03*
X300000Y360000D02*
D03*
X274000Y369000D02*
D03*
X290000D02*
D03*
X282000D02*
D03*
X298000D02*
D03*
X290000Y385000D02*
D03*
X298000D02*
D03*
Y393000D02*
D03*
X236457Y213543D02*
D03*
X241575Y218425D02*
D03*
X192000Y276000D02*
D03*
Y280000D02*
D03*
Y284000D02*
D03*
Y288000D02*
D03*
Y292000D02*
D03*
Y296000D02*
D03*
Y300000D02*
D03*
X215000Y335000D02*
D03*
X144000Y206000D02*
D03*
X166000Y214000D02*
D03*
X165000Y200000D02*
D03*
X224000Y209000D02*
D03*
X218000Y167000D02*
D03*
X220000Y209000D02*
D03*
X210000D02*
D03*
X212000Y173000D02*
D03*
X218000D02*
D03*
X246000Y175000D02*
D03*
X202000Y177000D02*
D03*
X212000Y167000D02*
D03*
X202000Y207000D02*
D03*
X131000Y316000D02*
D03*
Y216000D02*
D03*
X135000D02*
D03*
X232000Y336000D02*
D03*
X220000D02*
D03*
X210000Y340000D02*
D03*
X316405Y380188D02*
D03*
X310000Y324000D02*
D03*
X282000Y330000D02*
D03*
X292000D02*
D03*
X300000Y348000D02*
D03*
X197000Y367000D02*
D03*
X191000D02*
D03*
X207000D02*
D03*
X213000D02*
D03*
X195000Y353000D02*
D03*
X187000Y359000D02*
D03*
Y353000D02*
D03*
X191000D02*
D03*
X181000Y327000D02*
D03*
Y353000D02*
D03*
Y359000D02*
D03*
X167000D02*
D03*
X149000Y343000D02*
D03*
X169000D02*
D03*
X256000Y421000D02*
D03*
X262000D02*
D03*
Y415000D02*
D03*
X290000D02*
D03*
X282000D02*
D03*
X278000Y417000D02*
D03*
X286000D02*
D03*
X274000Y385000D02*
D03*
Y393000D02*
D03*
X290000D02*
D03*
X282000D02*
D03*
Y385000D02*
D03*
X200000Y397000D02*
D03*
X194000D02*
D03*
X188000D02*
D03*
X182000D02*
D03*
Y401000D02*
D03*
X188000D02*
D03*
X194000D02*
D03*
X200000D02*
D03*
X206000D02*
D03*
Y405000D02*
D03*
X200000D02*
D03*
X194000D02*
D03*
X188000D02*
D03*
X182000D02*
D03*
X212000Y439000D02*
D03*
Y445000D02*
D03*
X228000D02*
D03*
Y439000D02*
D03*
X256000Y443000D02*
D03*
X232000Y427000D02*
D03*
X229720Y429000D02*
D03*
M02*
