G04*
G04 #@! TF.GenerationSoftware,Altium Limited,Altium Designer,21.7.2 (23)*
G04*
G04 Layer_Color=8388736*
%FSLAX25Y25*%
%MOIN*%
G70*
G04*
G04 #@! TF.SameCoordinates,5233C9E9-E8BD-4DB4-A303-C3663256A2A9*
G04*
G04*
G04 #@! TF.FilePolarity,Positive*
G04*
G01*
G75*
%ADD11C,0.00787*%
D11*
X173263Y418937D02*
X178184D01*
X173263Y411063D02*
Y418937D01*
Y411063D02*
X178184D01*
Y418937D01*
X303633Y403063D02*
X308554D01*
Y410937D01*
X303633D02*
X308554D01*
X303633Y403063D02*
Y410937D01*
X138087Y225539D02*
Y230461D01*
X130213D02*
X138087D01*
X130213Y225539D02*
Y230461D01*
Y225539D02*
X138087D01*
X259606Y145492D02*
X270394D01*
X259606Y114508D02*
Y145492D01*
Y114508D02*
X270394D01*
Y145492D01*
X229606D02*
X240394D01*
X229606Y114508D02*
Y145492D01*
Y114508D02*
X240394D01*
Y145492D01*
X244606D02*
X255394D01*
X244606Y114508D02*
Y145492D01*
Y114508D02*
X255394D01*
Y145492D01*
X199606D02*
X210394D01*
X199606Y114508D02*
Y145492D01*
Y114508D02*
X210394D01*
Y145492D01*
X214606D02*
X225394D01*
X214606Y114508D02*
Y145492D01*
Y114508D02*
X225394D01*
Y145492D01*
X184606D02*
X195394D01*
X184606Y114508D02*
Y145492D01*
Y114508D02*
X195394D01*
Y145492D01*
X139606D02*
X150394D01*
X139606Y114508D02*
Y145492D01*
Y114508D02*
X150394D01*
Y145492D01*
X154606D02*
X165394D01*
X154606Y114508D02*
Y145492D01*
Y114508D02*
X165394D01*
Y145492D01*
X169606D02*
X180394D01*
X169606Y114508D02*
Y145492D01*
Y114508D02*
X180394D01*
Y145492D01*
X304606D02*
X315394D01*
X304606Y114508D02*
Y145492D01*
Y114508D02*
X315394D01*
Y145492D01*
X289606D02*
X300394D01*
X289606Y114508D02*
Y145492D01*
Y114508D02*
X300394D01*
Y145492D01*
X274606D02*
X285394D01*
X274606Y114508D02*
Y145492D01*
Y114508D02*
X285394D01*
Y145492D01*
X430354Y421614D02*
Y444252D01*
Y421614D02*
X469331D01*
Y444252D01*
X430354D02*
X469331D01*
X430512Y396614D02*
Y419252D01*
Y396614D02*
X469488D01*
Y419252D01*
X430512D02*
X469488D01*
X430512Y371614D02*
Y394252D01*
Y371614D02*
X469488D01*
Y394252D01*
X430512D02*
X469488D01*
X430512Y346614D02*
Y369252D01*
Y346614D02*
X469488D01*
Y369252D01*
X430512D02*
X469488D01*
X330512Y241614D02*
Y264252D01*
Y241614D02*
X369488D01*
Y264252D01*
X330512D02*
X369488D01*
X330512Y266614D02*
Y289252D01*
Y266614D02*
X369488D01*
Y289252D01*
X330512D02*
X369488D01*
X330512Y316614D02*
Y339252D01*
Y316614D02*
X369488D01*
Y339252D01*
X330512D02*
X369488D01*
X330512Y291614D02*
Y314252D01*
Y291614D02*
X369488D01*
Y314252D01*
X330512D02*
X369488D01*
X330512Y211614D02*
Y234252D01*
Y211614D02*
X369488D01*
Y234252D01*
X330512D02*
X369488D01*
X330512Y186614D02*
Y209252D01*
Y186614D02*
X369488D01*
Y209252D01*
X330512D02*
X369488D01*
X330512Y161614D02*
Y184252D01*
Y161614D02*
X369488D01*
Y184252D01*
X330512D02*
X369488D01*
X330512Y136614D02*
Y159252D01*
Y136614D02*
X369488D01*
Y159252D01*
X330512D02*
X369488D01*
X330512Y371614D02*
Y394252D01*
Y371614D02*
X369488D01*
Y394252D01*
X330512D02*
X369488D01*
X330512Y421614D02*
Y444252D01*
Y421614D02*
X369488D01*
Y444252D01*
X330512D02*
X369488D01*
X330512Y396614D02*
Y419252D01*
Y396614D02*
X369488D01*
Y419252D01*
X330512D02*
X369488D01*
X330512Y346614D02*
Y369252D01*
Y346614D02*
X369488D01*
Y369252D01*
X330512D02*
X369488D01*
X430512Y136614D02*
Y159252D01*
Y136614D02*
X469488D01*
Y159252D01*
X430512D02*
X469488D01*
X430512Y161614D02*
Y184252D01*
Y161614D02*
X469488D01*
Y184252D01*
X430512D02*
X469488D01*
X405512Y111614D02*
Y134252D01*
Y111614D02*
X444488D01*
Y134252D01*
X405512D02*
X444488D01*
X355512Y111614D02*
Y134252D01*
Y111614D02*
X394488D01*
Y134252D01*
X355512D02*
X394488D01*
X430512Y266614D02*
Y289252D01*
Y266614D02*
X469488D01*
Y289252D01*
X430512D02*
X469488D01*
X430512Y241614D02*
Y264252D01*
Y241614D02*
X469488D01*
Y264252D01*
X430512D02*
X469488D01*
X430512Y211614D02*
Y234252D01*
Y211614D02*
X469488D01*
Y234252D01*
X430512D02*
X469488D01*
X430512Y186614D02*
Y209252D01*
Y186614D02*
X469488D01*
Y209252D01*
X430512D02*
X469488D01*
X430512Y291614D02*
Y314252D01*
Y291614D02*
X469488D01*
Y314252D01*
X430512D02*
X469488D01*
X430512Y316614D02*
Y339252D01*
Y316614D02*
X469488D01*
Y339252D01*
X430512D02*
X469488D01*
X468228Y118701D02*
X471772D01*
Y125394D01*
X468228D02*
X471772D01*
X468228Y118701D02*
Y125394D01*
X393228Y143701D02*
X396772D01*
Y150394D01*
X393228D02*
X396772D01*
X393228Y143701D02*
Y150394D01*
X403228Y143701D02*
X406772D01*
Y150394D01*
X403228D02*
X406772D01*
X403228Y143701D02*
Y150394D01*
Y168701D02*
X406772D01*
Y175394D01*
X403228D02*
X406772D01*
X403228Y168701D02*
Y175394D01*
X393228Y168701D02*
X396772D01*
Y175394D01*
X393228D02*
X396772D01*
X393228Y168701D02*
Y175394D01*
X328228Y118701D02*
X331772D01*
Y125394D01*
X328228D02*
X331772D01*
X328228Y118701D02*
Y125394D01*
X403228Y428701D02*
X406772D01*
Y435394D01*
X403228D02*
X406772D01*
X403228Y428701D02*
Y435394D01*
X393228Y403701D02*
X396772D01*
Y410394D01*
X393228D02*
X396772D01*
X393228Y403701D02*
Y410394D01*
X403228Y403701D02*
X406772D01*
Y410394D01*
X403228D02*
X406772D01*
X403228Y403701D02*
Y410394D01*
X393228Y428701D02*
X396772D01*
Y435394D01*
X393228D02*
X396772D01*
X393228Y428701D02*
Y435394D01*
Y353701D02*
X396772D01*
Y360394D01*
X393228D02*
X396772D01*
X393228Y353701D02*
Y360394D01*
X403228Y378701D02*
X406772D01*
Y385394D01*
X403228D02*
X406772D01*
X403228Y378701D02*
Y385394D01*
Y353701D02*
X406772D01*
Y360394D01*
X403228D02*
X406772D01*
X403228Y353701D02*
Y360394D01*
X393228Y378701D02*
X396772D01*
Y385394D01*
X393228D02*
X396772D01*
X393228Y378701D02*
Y385394D01*
X403228Y248701D02*
X406772D01*
Y255394D01*
X403228D02*
X406772D01*
X403228Y248701D02*
Y255394D01*
X393228Y218701D02*
X396772D01*
Y225394D01*
X393228D02*
X396772D01*
X393228Y218701D02*
Y225394D01*
X403228Y298701D02*
X406772D01*
Y305394D01*
X403228D02*
X406772D01*
X403228Y298701D02*
Y305394D01*
Y273701D02*
X406772D01*
Y280394D01*
X403228D02*
X406772D01*
X403228Y273701D02*
Y280394D01*
X393228Y298701D02*
X396772D01*
Y305394D01*
X393228D02*
X396772D01*
X393228Y298701D02*
Y305394D01*
Y273701D02*
X396772D01*
Y280394D01*
X393228D02*
X396772D01*
X393228Y273701D02*
Y280394D01*
X403228Y323701D02*
X406772D01*
Y330394D01*
X403228D02*
X406772D01*
X403228Y323701D02*
Y330394D01*
X393228Y323701D02*
X396772D01*
Y330394D01*
X393228D02*
X396772D01*
X393228Y323701D02*
Y330394D01*
Y248701D02*
X396772D01*
Y255394D01*
X393228D02*
X396772D01*
X393228Y248701D02*
Y255394D01*
X403228Y193701D02*
X406772D01*
Y200394D01*
X403228D02*
X406772D01*
X403228Y193701D02*
Y200394D01*
X393228Y193701D02*
X396772D01*
Y200394D01*
X393228D02*
X396772D01*
X393228Y193701D02*
Y200394D01*
X403228Y218701D02*
X406772D01*
Y225394D01*
X403228D02*
X406772D01*
X403228Y218701D02*
Y225394D01*
X198701Y328228D02*
Y331772D01*
Y328228D02*
X205394D01*
Y331772D01*
X198701D02*
X205394D01*
X308228Y338701D02*
X311772D01*
Y345394D01*
X308228D02*
X311772D01*
X308228Y338701D02*
Y345394D01*
X136831Y325807D02*
Y364193D01*
X126358Y363012D02*
X163642D01*
X126358Y326988D02*
Y363012D01*
Y326988D02*
X163642D01*
Y363012D01*
X184194Y418609D02*
X189115D01*
X184194Y410735D02*
Y418609D01*
Y410735D02*
X189115D01*
Y418609D01*
X194240D02*
X199161D01*
X194240Y410735D02*
Y418609D01*
Y410735D02*
X199161D01*
Y418609D01*
X293586Y403063D02*
X298507D01*
Y410937D01*
X293586D02*
X298507D01*
X293586Y403063D02*
Y410937D01*
X283539Y403063D02*
X288461D01*
Y410937D01*
X283539D02*
X288461D01*
X283539Y403063D02*
Y410937D01*
X204287Y418609D02*
X209208D01*
X204287Y410735D02*
Y418609D01*
Y410735D02*
X209208D01*
Y418609D01*
X221929Y406929D02*
Y423071D01*
Y406929D02*
X238071D01*
Y423071D01*
X221929D02*
X238071D01*
X243779Y355342D02*
X267992D01*
X243779Y338216D02*
Y355342D01*
Y338216D02*
X267992D01*
Y355342D01*
X273195Y332900D02*
X298805D01*
X273195Y319100D02*
Y332900D01*
Y319100D02*
X298805D01*
Y332900D01*
X228780Y329468D02*
X252992D01*
X228780Y312343D02*
Y329468D01*
Y312343D02*
X252992D01*
Y329468D01*
X227500Y359750D02*
Y400250D01*
Y359750D02*
X268000D01*
Y400250D01*
X227500D02*
X268000D01*
X308228Y390394D02*
X311772D01*
X308228Y383701D02*
Y390394D01*
Y383701D02*
X311772D01*
Y390394D01*
X299646Y240748D02*
Y263386D01*
X270512D02*
X299646D01*
X270512Y240748D02*
Y263386D01*
Y240748D02*
X299646D01*
X264488D02*
Y263386D01*
X235354D02*
X264488D01*
X235354Y240748D02*
Y263386D01*
Y240748D02*
X264488D01*
M02*
