G04*
G04 #@! TF.GenerationSoftware,Altium Limited,Altium Designer,21.7.2 (23)*
G04*
G04 Layer_Physical_Order=2*
G04 Layer_Color=36540*
%FSLAX25Y25*%
%MOIN*%
G70*
G04*
G04 #@! TF.SameCoordinates,5233C9E9-E8BD-4DB4-A303-C3663256A2A9*
G04*
G04*
G04 #@! TF.FilePolarity,Positive*
G04*
G01*
G75*
%ADD70C,0.06181*%
%ADD73C,0.05512*%
%ADD75C,0.02559*%
%ADD83C,0.06000*%
%ADD84C,0.15000*%
%ADD88C,0.05906*%
%ADD89O,0.08268X0.05512*%
%ADD90C,0.23622*%
%ADD91C,0.01968*%
G36*
X475000Y449197D02*
X475906D01*
X477683Y448844D01*
X479356Y448150D01*
X480863Y447144D01*
X482144Y445863D01*
X483150Y444356D01*
X483844Y442683D01*
X484197Y440906D01*
X484197Y440000D01*
X484197Y110000D01*
Y108742D01*
X483869Y106247D01*
X483217Y103816D01*
X482254Y101491D01*
X480996Y99312D01*
X479464Y97315D01*
X477685Y95536D01*
X475688Y94004D01*
X473509Y92746D01*
X471184Y91783D01*
X468753Y91131D01*
X466258Y90803D01*
X465000Y90803D01*
X135000Y90803D01*
X134094D01*
X132317Y91156D01*
X130643Y91849D01*
X129137Y92856D01*
X127856Y94137D01*
X126849Y95643D01*
X126156Y97317D01*
X125803Y99094D01*
X125803Y100000D01*
Y200000D01*
X125803Y435000D01*
Y435930D01*
X126046Y437776D01*
X126527Y439573D01*
X127240Y441293D01*
X128170Y442904D01*
X129303Y444381D01*
X130619Y445697D01*
X132096Y446830D01*
X133707Y447760D01*
X135427Y448473D01*
X137224Y448954D01*
X139069Y449197D01*
X140000Y449197D01*
X475000Y449197D01*
D02*
G37*
%LPC*%
G36*
X228295Y446484D02*
X227705D01*
X227159Y446258D01*
X226742Y445841D01*
X226516Y445295D01*
Y444705D01*
X226742Y444159D01*
X227159Y443742D01*
X227705Y443516D01*
X228295D01*
X228841Y443742D01*
X229258Y444159D01*
X229484Y444705D01*
Y445295D01*
X229258Y445841D01*
X228841Y446258D01*
X228295Y446484D01*
D02*
G37*
G36*
Y440484D02*
X227705D01*
X227159Y440258D01*
X226742Y439841D01*
X226516Y439295D01*
Y438705D01*
X226742Y438159D01*
X227159Y437742D01*
X227705Y437516D01*
X228295D01*
X228841Y437742D01*
X229258Y438159D01*
X229484Y438705D01*
Y439295D01*
X229258Y439841D01*
X228841Y440258D01*
X228295Y440484D01*
D02*
G37*
G36*
X450258Y438156D02*
X449427D01*
X448624Y437941D01*
X447905Y437525D01*
X447317Y436938D01*
X446902Y436218D01*
X446687Y435416D01*
Y434585D01*
X446902Y433782D01*
X447317Y433062D01*
X447905Y432475D01*
X448624Y432059D01*
X449427Y431844D01*
X450258D01*
X451061Y432059D01*
X451780Y432475D01*
X452368Y433062D01*
X452783Y433782D01*
X452998Y434585D01*
Y435416D01*
X452783Y436218D01*
X452368Y436938D01*
X451780Y437525D01*
X451061Y437941D01*
X450258Y438156D01*
D02*
G37*
G36*
X443156D02*
X436844D01*
Y431844D01*
X443156D01*
Y438156D01*
D02*
G37*
G36*
X350415D02*
X349585D01*
X348782Y437941D01*
X348062Y437525D01*
X347475Y436938D01*
X347059Y436218D01*
X346844Y435416D01*
Y434585D01*
X347059Y433782D01*
X347475Y433062D01*
X348062Y432475D01*
X348782Y432059D01*
X349585Y431844D01*
X350415D01*
X351218Y432059D01*
X351938Y432475D01*
X352525Y433062D01*
X352941Y433782D01*
X353156Y434585D01*
Y435416D01*
X352941Y436218D01*
X352525Y436938D01*
X351938Y437525D01*
X351218Y437941D01*
X350415Y438156D01*
D02*
G37*
G36*
X343313D02*
X337002D01*
Y431844D01*
X343313D01*
Y438156D01*
D02*
G37*
G36*
X242265Y433515D02*
X241674D01*
X241129Y433289D01*
X240711Y432871D01*
X240485Y432326D01*
Y431735D01*
X240711Y431190D01*
X241129Y430772D01*
X241674Y430546D01*
X242265D01*
X242810Y430772D01*
X243228Y431190D01*
X243454Y431735D01*
Y432326D01*
X243228Y432871D01*
X242810Y433289D01*
X242265Y433515D01*
D02*
G37*
G36*
X230016Y430484D02*
X229425D01*
X228880Y430258D01*
X228462Y429841D01*
X228236Y429295D01*
Y428705D01*
X228462Y428159D01*
X228880Y427742D01*
X229425Y427516D01*
X230016D01*
X230076Y427541D01*
X230242Y427448D01*
X230516Y427182D01*
Y426705D01*
X230742Y426159D01*
X231159Y425742D01*
X231705Y425516D01*
X232295D01*
X232841Y425742D01*
X233258Y426159D01*
X233484Y426705D01*
Y427295D01*
X233258Y427841D01*
X232841Y428258D01*
X232295Y428484D01*
X231705D01*
X231644Y428459D01*
X231478Y428552D01*
X231205Y428818D01*
Y429295D01*
X230979Y429841D01*
X230561Y430258D01*
X230016Y430484D01*
D02*
G37*
G36*
X450416Y413156D02*
X449584D01*
X448782Y412941D01*
X448062Y412525D01*
X447475Y411938D01*
X447059Y411218D01*
X446844Y410416D01*
Y409585D01*
X447059Y408782D01*
X447475Y408062D01*
X448062Y407475D01*
X448782Y407059D01*
X449584Y406844D01*
X450416D01*
X451218Y407059D01*
X451938Y407475D01*
X452525Y408062D01*
X452941Y408782D01*
X453156Y409585D01*
Y410416D01*
X452941Y411218D01*
X452525Y411938D01*
X451938Y412525D01*
X451218Y412941D01*
X450416Y413156D01*
D02*
G37*
G36*
X443313D02*
X437002D01*
Y406844D01*
X443313D01*
Y413156D01*
D02*
G37*
G36*
X350415D02*
X349585D01*
X348782Y412941D01*
X348062Y412525D01*
X347475Y411938D01*
X347059Y411218D01*
X346844Y410416D01*
Y409585D01*
X347059Y408782D01*
X347475Y408062D01*
X348062Y407475D01*
X348782Y407059D01*
X349585Y406844D01*
X350415D01*
X351218Y407059D01*
X351938Y407475D01*
X352525Y408062D01*
X352941Y408782D01*
X353156Y409585D01*
Y410416D01*
X352941Y411218D01*
X352525Y411938D01*
X351938Y412525D01*
X351218Y412941D01*
X350415Y413156D01*
D02*
G37*
G36*
X343313D02*
X337002D01*
Y406844D01*
X343313D01*
Y413156D01*
D02*
G37*
G36*
X252295Y403484D02*
X251705D01*
X251159Y403258D01*
X250742Y402841D01*
X250516Y402295D01*
Y401705D01*
X250742Y401159D01*
X251159Y400742D01*
X251705Y400516D01*
X252295D01*
X252841Y400742D01*
X253258Y401159D01*
X253484Y401705D01*
Y402295D01*
X253258Y402841D01*
X252841Y403258D01*
X252295Y403484D01*
D02*
G37*
G36*
X298295Y394484D02*
X297705D01*
X297159Y394258D01*
X296742Y393841D01*
X296516Y393295D01*
Y392705D01*
X296742Y392159D01*
X297159Y391742D01*
X297705Y391516D01*
X298295D01*
X298841Y391742D01*
X299258Y392159D01*
X299484Y392705D01*
Y393295D01*
X299258Y393841D01*
X298841Y394258D01*
X298295Y394484D01*
D02*
G37*
G36*
X290295D02*
X289705D01*
X289159Y394258D01*
X288742Y393841D01*
X288516Y393295D01*
Y392705D01*
X288742Y392159D01*
X289159Y391742D01*
X289705Y391516D01*
X290295D01*
X290841Y391742D01*
X291258Y392159D01*
X291484Y392705D01*
Y393295D01*
X291258Y393841D01*
X290841Y394258D01*
X290295Y394484D01*
D02*
G37*
G36*
X282295D02*
X281705D01*
X281159Y394258D01*
X280742Y393841D01*
X280516Y393295D01*
Y392705D01*
X280742Y392159D01*
X281159Y391742D01*
X281705Y391516D01*
X282295D01*
X282841Y391742D01*
X283258Y392159D01*
X283484Y392705D01*
Y393295D01*
X283258Y393841D01*
X282841Y394258D01*
X282295Y394484D01*
D02*
G37*
G36*
X274295D02*
X273705D01*
X273159Y394258D01*
X272742Y393841D01*
X272516Y393295D01*
Y392705D01*
X272742Y392159D01*
X273159Y391742D01*
X273705Y391516D01*
X274295D01*
X274841Y391742D01*
X275258Y392159D01*
X275484Y392705D01*
Y393295D01*
X275258Y393841D01*
X274841Y394258D01*
X274295Y394484D01*
D02*
G37*
G36*
X147162Y413038D02*
X145240D01*
X143341Y412737D01*
X141513Y412143D01*
X139801Y411271D01*
X138246Y410141D01*
X136887Y408782D01*
X135757Y407227D01*
X134884Y405514D01*
X134290Y403686D01*
X133990Y401788D01*
Y399866D01*
X134290Y397967D01*
X134884Y396139D01*
X135757Y394427D01*
X136887Y392872D01*
X138246Y391513D01*
X139801Y390383D01*
X141513Y389510D01*
X143341Y388916D01*
X145240Y388616D01*
X147162D01*
X149060Y388916D01*
X150888Y389510D01*
X152601Y390383D01*
X154156Y391513D01*
X155515Y392872D01*
X156645Y394427D01*
X157517Y396139D01*
X158111Y397967D01*
X158412Y399866D01*
Y401788D01*
X158111Y403686D01*
X157517Y405514D01*
X156645Y407227D01*
X155515Y408782D01*
X154156Y410141D01*
X152601Y411271D01*
X150888Y412143D01*
X149060Y412737D01*
X147162Y413038D01*
D02*
G37*
G36*
X298295Y386484D02*
X297705D01*
X297159Y386258D01*
X296742Y385841D01*
X296516Y385295D01*
Y384705D01*
X296742Y384159D01*
X297159Y383742D01*
X297705Y383516D01*
X298295D01*
X298841Y383742D01*
X299258Y384159D01*
X299484Y384705D01*
Y385295D01*
X299258Y385841D01*
X298841Y386258D01*
X298295Y386484D01*
D02*
G37*
G36*
X290295D02*
X289705D01*
X289159Y386258D01*
X288742Y385841D01*
X288516Y385295D01*
Y384705D01*
X288742Y384159D01*
X289159Y383742D01*
X289705Y383516D01*
X290295D01*
X290841Y383742D01*
X291258Y384159D01*
X291484Y384705D01*
Y385295D01*
X291258Y385841D01*
X290841Y386258D01*
X290295Y386484D01*
D02*
G37*
G36*
X282295D02*
X281705D01*
X281159Y386258D01*
X280742Y385841D01*
X280516Y385295D01*
Y384705D01*
X280742Y384159D01*
X281159Y383742D01*
X281705Y383516D01*
X282295D01*
X282841Y383742D01*
X283258Y384159D01*
X283484Y384705D01*
Y385295D01*
X283258Y385841D01*
X282841Y386258D01*
X282295Y386484D01*
D02*
G37*
G36*
X274295D02*
X273705D01*
X273159Y386258D01*
X272742Y385841D01*
X272516Y385295D01*
Y384705D01*
X272742Y384159D01*
X273159Y383742D01*
X273705Y383516D01*
X274295D01*
X274841Y383742D01*
X275258Y384159D01*
X275484Y384705D01*
Y385295D01*
X275258Y385841D01*
X274841Y386258D01*
X274295Y386484D01*
D02*
G37*
G36*
X450416Y388156D02*
X449584D01*
X448782Y387941D01*
X448062Y387525D01*
X447475Y386938D01*
X447059Y386218D01*
X446844Y385416D01*
Y384584D01*
X447059Y383782D01*
X447475Y383062D01*
X448062Y382475D01*
X448782Y382059D01*
X449584Y381844D01*
X450416D01*
X451218Y382059D01*
X451938Y382475D01*
X452525Y383062D01*
X452941Y383782D01*
X453156Y384584D01*
Y385416D01*
X452941Y386218D01*
X452525Y386938D01*
X451938Y387525D01*
X451218Y387941D01*
X450416Y388156D01*
D02*
G37*
G36*
X443313D02*
X437002D01*
Y381844D01*
X443313D01*
Y388156D01*
D02*
G37*
G36*
X350415D02*
X349585D01*
X348782Y387941D01*
X348062Y387525D01*
X347475Y386938D01*
X347059Y386218D01*
X346844Y385416D01*
Y384584D01*
X347059Y383782D01*
X347475Y383062D01*
X348062Y382475D01*
X348782Y382059D01*
X349585Y381844D01*
X350415D01*
X351218Y382059D01*
X351938Y382475D01*
X352525Y383062D01*
X352941Y383782D01*
X353156Y384584D01*
Y385416D01*
X352941Y386218D01*
X352525Y386938D01*
X351938Y387525D01*
X351218Y387941D01*
X350415Y388156D01*
D02*
G37*
G36*
X343313D02*
X337002D01*
Y381844D01*
X343313D01*
Y388156D01*
D02*
G37*
G36*
X298295Y378484D02*
X297705D01*
X297159Y378258D01*
X296742Y377841D01*
X296516Y377295D01*
Y376705D01*
X296742Y376159D01*
X297159Y375742D01*
X297705Y375516D01*
X298295D01*
X298841Y375742D01*
X299258Y376159D01*
X299484Y376705D01*
Y377295D01*
X299258Y377841D01*
X298841Y378258D01*
X298295Y378484D01*
D02*
G37*
G36*
X290295D02*
X289705D01*
X289159Y378258D01*
X288742Y377841D01*
X288516Y377295D01*
Y376705D01*
X288742Y376159D01*
X289159Y375742D01*
X289705Y375516D01*
X290295D01*
X290841Y375742D01*
X291258Y376159D01*
X291484Y376705D01*
Y377295D01*
X291258Y377841D01*
X290841Y378258D01*
X290295Y378484D01*
D02*
G37*
G36*
X282295D02*
X281705D01*
X281159Y378258D01*
X280742Y377841D01*
X280516Y377295D01*
Y376705D01*
X280742Y376159D01*
X281159Y375742D01*
X281705Y375516D01*
X282295D01*
X282841Y375742D01*
X283258Y376159D01*
X283484Y376705D01*
Y377295D01*
X283258Y377841D01*
X282841Y378258D01*
X282295Y378484D01*
D02*
G37*
G36*
X274295D02*
X273705D01*
X273159Y378258D01*
X272742Y377841D01*
X272516Y377295D01*
Y376705D01*
X272742Y376159D01*
X273159Y375742D01*
X273705Y375516D01*
X274295D01*
X274841Y375742D01*
X275258Y376159D01*
X275484Y376705D01*
Y377295D01*
X275258Y377841D01*
X274841Y378258D01*
X274295Y378484D01*
D02*
G37*
G36*
X298295Y370484D02*
X297705D01*
X297159Y370258D01*
X296742Y369841D01*
X296516Y369295D01*
Y368705D01*
X296742Y368159D01*
X297159Y367742D01*
X297705Y367516D01*
X298295D01*
X298841Y367742D01*
X299258Y368159D01*
X299484Y368705D01*
Y369295D01*
X299258Y369841D01*
X298841Y370258D01*
X298295Y370484D01*
D02*
G37*
G36*
X290295D02*
X289705D01*
X289159Y370258D01*
X288742Y369841D01*
X288516Y369295D01*
Y368705D01*
X288742Y368159D01*
X289159Y367742D01*
X289705Y367516D01*
X290295D01*
X290841Y367742D01*
X291258Y368159D01*
X291484Y368705D01*
Y369295D01*
X291258Y369841D01*
X290841Y370258D01*
X290295Y370484D01*
D02*
G37*
G36*
X282295D02*
X281705D01*
X281159Y370258D01*
X280742Y369841D01*
X280516Y369295D01*
Y368705D01*
X280742Y368159D01*
X281159Y367742D01*
X281705Y367516D01*
X282295D01*
X282841Y367742D01*
X283258Y368159D01*
X283484Y368705D01*
Y369295D01*
X283258Y369841D01*
X282841Y370258D01*
X282295Y370484D01*
D02*
G37*
G36*
X274295D02*
X273705D01*
X273159Y370258D01*
X272742Y369841D01*
X272516Y369295D01*
Y368705D01*
X272742Y368159D01*
X273159Y367742D01*
X273705Y367516D01*
X274295D01*
X274841Y367742D01*
X275258Y368159D01*
X275484Y368705D01*
Y369295D01*
X275258Y369841D01*
X274841Y370258D01*
X274295Y370484D01*
D02*
G37*
G36*
X159941Y364242D02*
X154035D01*
X153188Y364073D01*
X152470Y363593D01*
X151990Y362875D01*
X151821Y362028D01*
X151990Y361180D01*
X152470Y360462D01*
X153188Y359982D01*
X154035Y359813D01*
X159941D01*
X160788Y359982D01*
X161507Y360462D01*
X161987Y361180D01*
X162155Y362028D01*
X161987Y362875D01*
X161507Y363593D01*
X160788Y364073D01*
X159941Y364242D01*
D02*
G37*
G36*
X145256D02*
X142106D01*
X141259Y364073D01*
X140541Y363593D01*
X140061Y362875D01*
X139892Y362028D01*
X140061Y361180D01*
X140541Y360462D01*
X141259Y359982D01*
X142106Y359813D01*
X145256D01*
X146103Y359982D01*
X146822Y360462D01*
X147301Y361180D01*
X147470Y362028D01*
X147301Y362875D01*
X146822Y363593D01*
X146103Y364073D01*
X145256Y364242D01*
D02*
G37*
G36*
X187295Y360484D02*
X186705D01*
X186159Y360258D01*
X185742Y359841D01*
X185516Y359295D01*
Y358705D01*
X185742Y358159D01*
X186159Y357742D01*
X186705Y357516D01*
X187295D01*
X187841Y357742D01*
X188258Y358159D01*
X188484Y358705D01*
Y359295D01*
X188258Y359841D01*
X187841Y360258D01*
X187295Y360484D01*
D02*
G37*
G36*
X167295D02*
X166705D01*
X166159Y360258D01*
X165742Y359841D01*
X165516Y359295D01*
Y358705D01*
X165742Y358159D01*
X166159Y357742D01*
X166705Y357516D01*
X167295D01*
X167841Y357742D01*
X168258Y358159D01*
X168484Y358705D01*
Y359295D01*
X168258Y359841D01*
X167841Y360258D01*
X167295Y360484D01*
D02*
G37*
G36*
X450416Y363156D02*
X449584D01*
X448782Y362941D01*
X448062Y362525D01*
X447475Y361938D01*
X447059Y361218D01*
X446844Y360416D01*
Y359584D01*
X447059Y358782D01*
X447475Y358062D01*
X448062Y357475D01*
X448782Y357059D01*
X449584Y356844D01*
X450416D01*
X451218Y357059D01*
X451938Y357475D01*
X452525Y358062D01*
X452941Y358782D01*
X453156Y359584D01*
Y360416D01*
X452941Y361218D01*
X452525Y361938D01*
X451938Y362525D01*
X451218Y362941D01*
X450416Y363156D01*
D02*
G37*
G36*
X443313D02*
X437002D01*
Y356844D01*
X443313D01*
Y363156D01*
D02*
G37*
G36*
X350415D02*
X349585D01*
X348782Y362941D01*
X348062Y362525D01*
X347475Y361938D01*
X347059Y361218D01*
X346844Y360416D01*
Y359584D01*
X347059Y358782D01*
X347475Y358062D01*
X348062Y357475D01*
X348782Y357059D01*
X349585Y356844D01*
X350415D01*
X351218Y357059D01*
X351938Y357475D01*
X352525Y358062D01*
X352941Y358782D01*
X353156Y359584D01*
Y360416D01*
X352941Y361218D01*
X352525Y361938D01*
X351938Y362525D01*
X351218Y362941D01*
X350415Y363156D01*
D02*
G37*
G36*
X343313D02*
X337002D01*
Y356844D01*
X343313D01*
Y363156D01*
D02*
G37*
G36*
X195295Y354484D02*
X194705D01*
X194159Y354258D01*
X193742Y353841D01*
X193516Y353295D01*
Y352705D01*
X193742Y352159D01*
X194159Y351742D01*
X194705Y351516D01*
X195295D01*
X195841Y351742D01*
X196258Y352159D01*
X196484Y352705D01*
Y353295D01*
X196258Y353841D01*
X195841Y354258D01*
X195295Y354484D01*
D02*
G37*
G36*
X191295D02*
X190705D01*
X190159Y354258D01*
X189742Y353841D01*
X189516Y353295D01*
Y352705D01*
X189742Y352159D01*
X190159Y351742D01*
X190705Y351516D01*
X191295D01*
X191841Y351742D01*
X192258Y352159D01*
X192484Y352705D01*
Y353295D01*
X192258Y353841D01*
X191841Y354258D01*
X191295Y354484D01*
D02*
G37*
G36*
X187295D02*
X186705D01*
X186159Y354258D01*
X185742Y353841D01*
X185516Y353295D01*
Y352705D01*
X185742Y352159D01*
X186159Y351742D01*
X186705Y351516D01*
X187295D01*
X187841Y351742D01*
X188258Y352159D01*
X188484Y352705D01*
Y353295D01*
X188258Y353841D01*
X187841Y354258D01*
X187295Y354484D01*
D02*
G37*
G36*
X149295Y344484D02*
X148705D01*
X148159Y344258D01*
X147742Y343841D01*
X147516Y343295D01*
Y342705D01*
X147742Y342159D01*
X148159Y341742D01*
X148705Y341516D01*
X149295D01*
X149841Y341742D01*
X150258Y342159D01*
X150484Y342705D01*
Y343295D01*
X150258Y343841D01*
X149841Y344258D01*
X149295Y344484D01*
D02*
G37*
G36*
X180295Y341484D02*
X179705D01*
X179159Y341258D01*
X178742Y340841D01*
X178516Y340295D01*
Y339705D01*
X178742Y339159D01*
X179159Y338742D01*
X179705Y338516D01*
X180295D01*
X180841Y338742D01*
X181258Y339159D01*
X181484Y339705D01*
Y340295D01*
X181258Y340841D01*
X180841Y341258D01*
X180295Y341484D01*
D02*
G37*
G36*
X161199Y355138D02*
X160494D01*
X159843Y354868D01*
X159344Y354370D01*
X159075Y353718D01*
Y353014D01*
X159344Y352363D01*
X159703Y352005D01*
X159793Y351693D01*
X159703Y351381D01*
X159344Y351023D01*
X159075Y350372D01*
Y349667D01*
X159344Y349016D01*
X159703Y348658D01*
X159793Y348346D01*
X159703Y348035D01*
X159344Y347677D01*
X159075Y347026D01*
Y346321D01*
X159344Y345670D01*
X159703Y345312D01*
X159793Y345000D01*
X159703Y344688D01*
X159344Y344330D01*
X159075Y343679D01*
Y342974D01*
X159344Y342323D01*
X159703Y341965D01*
X159793Y341653D01*
X159703Y341342D01*
X159344Y340984D01*
X159075Y340333D01*
Y339628D01*
X159344Y338977D01*
X159703Y338619D01*
X159793Y338307D01*
X159703Y337995D01*
X159344Y337637D01*
X159075Y336986D01*
Y336281D01*
X159344Y335630D01*
X159843Y335132D01*
X160494Y334862D01*
X161199D01*
X161850Y335132D01*
X162348Y335630D01*
X162618Y336281D01*
Y336986D01*
X162348Y337637D01*
X161990Y337995D01*
X161900Y338307D01*
X161990Y338619D01*
X162348Y338977D01*
X162618Y339628D01*
Y340333D01*
X162348Y340984D01*
X161990Y341342D01*
X161900Y341653D01*
X161990Y341965D01*
X162348Y342323D01*
X162618Y342974D01*
Y343679D01*
X162348Y344330D01*
X161990Y344688D01*
X161900Y345000D01*
X161990Y345312D01*
X162348Y345670D01*
X162618Y346321D01*
Y347026D01*
X162348Y347677D01*
X161990Y348035D01*
X161900Y348346D01*
X161990Y348658D01*
X162348Y349016D01*
X162618Y349667D01*
Y350372D01*
X162348Y351023D01*
X161990Y351381D01*
X161900Y351693D01*
X161990Y352005D01*
X162348Y352363D01*
X162618Y353014D01*
Y353718D01*
X162348Y354370D01*
X161850Y354868D01*
X161199Y355138D01*
D02*
G37*
G36*
X155884D02*
X155179D01*
X154528Y354868D01*
X154030Y354370D01*
X153760Y353718D01*
Y353014D01*
X154030Y352363D01*
X154387Y352005D01*
X154478Y351693D01*
X154387Y351381D01*
X154030Y351023D01*
X153760Y350372D01*
Y349667D01*
X154030Y349016D01*
X154387Y348658D01*
X154478Y348346D01*
X154387Y348035D01*
X154030Y347677D01*
X153760Y347026D01*
Y346321D01*
X154030Y345670D01*
X154387Y345312D01*
X154478Y345000D01*
X154387Y344688D01*
X154030Y344330D01*
X153760Y343679D01*
Y342974D01*
X154030Y342323D01*
X154387Y341965D01*
X154478Y341653D01*
X154387Y341342D01*
X154030Y340984D01*
X153760Y340333D01*
Y339628D01*
X154030Y338977D01*
X154387Y338619D01*
X154478Y338307D01*
X154387Y337995D01*
X154030Y337637D01*
X153760Y336986D01*
Y336281D01*
X154030Y335630D01*
X154528Y335132D01*
X155179Y334862D01*
X155884D01*
X156535Y335132D01*
X157033Y335630D01*
X157303Y336281D01*
Y336986D01*
X157033Y337637D01*
X156676Y337995D01*
X156585Y338307D01*
X156676Y338619D01*
X157033Y338977D01*
X157303Y339628D01*
Y340333D01*
X157033Y340984D01*
X156676Y341342D01*
X156585Y341653D01*
X156676Y341965D01*
X157033Y342323D01*
X157303Y342974D01*
Y343679D01*
X157033Y344330D01*
X156676Y344688D01*
X156585Y345000D01*
X156676Y345312D01*
X157033Y345670D01*
X157303Y346321D01*
Y347026D01*
X157033Y347677D01*
X156676Y348035D01*
X156585Y348346D01*
X156676Y348658D01*
X157033Y349016D01*
X157303Y349667D01*
Y350372D01*
X157033Y351023D01*
X156676Y351381D01*
X156585Y351693D01*
X156676Y352005D01*
X157033Y352363D01*
X157303Y353014D01*
Y353718D01*
X157033Y354370D01*
X156535Y354868D01*
X155884Y355138D01*
D02*
G37*
G36*
X215295Y336484D02*
X214705D01*
X214159Y336258D01*
X213742Y335841D01*
X213516Y335295D01*
Y334705D01*
X213742Y334159D01*
X214159Y333742D01*
X214705Y333516D01*
X215295D01*
X215841Y333742D01*
X216258Y334159D01*
X216484Y334705D01*
Y335295D01*
X216258Y335841D01*
X215841Y336258D01*
X215295Y336484D01*
D02*
G37*
G36*
X292295Y331484D02*
X291705D01*
X291159Y331258D01*
X290742Y330841D01*
X290516Y330295D01*
Y329705D01*
X290742Y329159D01*
X291159Y328742D01*
X291705Y328516D01*
X292295D01*
X292841Y328742D01*
X293258Y329159D01*
X293484Y329705D01*
Y330295D01*
X293258Y330841D01*
X292841Y331258D01*
X292295Y331484D01*
D02*
G37*
G36*
X282295D02*
X281705D01*
X281159Y331258D01*
X280742Y330841D01*
X280516Y330295D01*
Y329705D01*
X280742Y329159D01*
X281159Y328742D01*
X281705Y328516D01*
X282295D01*
X282841Y328742D01*
X283258Y329159D01*
X283484Y329705D01*
Y330295D01*
X283258Y330841D01*
X282841Y331258D01*
X282295Y331484D01*
D02*
G37*
G36*
X450416Y333156D02*
X449584D01*
X448782Y332941D01*
X448062Y332525D01*
X447475Y331938D01*
X447059Y331218D01*
X446844Y330416D01*
Y329585D01*
X447059Y328782D01*
X447475Y328062D01*
X448062Y327475D01*
X448782Y327059D01*
X449584Y326844D01*
X450416D01*
X451218Y327059D01*
X451938Y327475D01*
X452525Y328062D01*
X452941Y328782D01*
X453156Y329585D01*
Y330416D01*
X452941Y331218D01*
X452525Y331938D01*
X451938Y332525D01*
X451218Y332941D01*
X450416Y333156D01*
D02*
G37*
G36*
X443313D02*
X437002D01*
Y326844D01*
X443313D01*
Y333156D01*
D02*
G37*
G36*
X350415D02*
X349585D01*
X348782Y332941D01*
X348062Y332525D01*
X347475Y331938D01*
X347059Y331218D01*
X346844Y330416D01*
Y329585D01*
X347059Y328782D01*
X347475Y328062D01*
X348062Y327475D01*
X348782Y327059D01*
X349585Y326844D01*
X350415D01*
X351218Y327059D01*
X351938Y327475D01*
X352525Y328062D01*
X352941Y328782D01*
X353156Y329585D01*
Y330416D01*
X352941Y331218D01*
X352525Y331938D01*
X351938Y332525D01*
X351218Y332941D01*
X350415Y333156D01*
D02*
G37*
G36*
X343313D02*
X337002D01*
Y326844D01*
X343313D01*
Y333156D01*
D02*
G37*
G36*
X188550Y331230D02*
X187959D01*
X187414Y331004D01*
X186996Y330586D01*
X186770Y330041D01*
Y329450D01*
X186996Y328905D01*
X187414Y328487D01*
X187959Y328261D01*
X188550D01*
X188600Y328228D01*
Y327705D01*
X188826Y327159D01*
X189243Y326742D01*
X189789Y326516D01*
X190380D01*
X190925Y326742D01*
X191342Y327159D01*
X191569Y327705D01*
Y328295D01*
X191342Y328841D01*
X190925Y329258D01*
X190380Y329484D01*
X189789D01*
X189739Y329518D01*
Y330041D01*
X189513Y330586D01*
X189095Y331004D01*
X188550Y331230D01*
D02*
G37*
G36*
X159941Y330187D02*
X154035D01*
X153188Y330018D01*
X152470Y329538D01*
X151990Y328820D01*
X151821Y327972D01*
X151990Y327125D01*
X152470Y326407D01*
X153188Y325927D01*
X154035Y325758D01*
X159941D01*
X160788Y325927D01*
X161507Y326407D01*
X161987Y327125D01*
X162155Y327972D01*
X161987Y328820D01*
X161507Y329538D01*
X160788Y330018D01*
X159941Y330187D01*
D02*
G37*
G36*
X145256D02*
X142106D01*
X141259Y330018D01*
X140541Y329538D01*
X140061Y328820D01*
X139892Y327972D01*
X140061Y327125D01*
X140541Y326407D01*
X141259Y325927D01*
X142106Y325758D01*
X145256D01*
X146103Y325927D01*
X146822Y326407D01*
X147301Y327125D01*
X147470Y327972D01*
X147301Y328820D01*
X146822Y329538D01*
X146103Y330018D01*
X145256Y330187D01*
D02*
G37*
G36*
X286295Y327484D02*
X285705D01*
X285159Y327258D01*
X284742Y326841D01*
X284516Y326295D01*
Y325705D01*
X284742Y325159D01*
X285159Y324742D01*
X285705Y324516D01*
X286295D01*
X286841Y324742D01*
X287258Y325159D01*
X287484Y325705D01*
Y326295D01*
X287258Y326841D01*
X286841Y327258D01*
X286295Y327484D01*
D02*
G37*
G36*
X292295Y323484D02*
X291705D01*
X291159Y323258D01*
X290742Y322841D01*
X290516Y322295D01*
Y321705D01*
X290742Y321159D01*
X291159Y320742D01*
X291705Y320516D01*
X292295D01*
X292841Y320742D01*
X293258Y321159D01*
X293484Y321705D01*
Y322295D01*
X293258Y322841D01*
X292841Y323258D01*
X292295Y323484D01*
D02*
G37*
G36*
X282295D02*
X281705D01*
X281159Y323258D01*
X280742Y322841D01*
X280516Y322295D01*
Y321705D01*
X280742Y321159D01*
X281159Y320742D01*
X281705Y320516D01*
X282295D01*
X282841Y320742D01*
X283258Y321159D01*
X283484Y321705D01*
Y322295D01*
X283258Y322841D01*
X282841Y323258D01*
X282295Y323484D01*
D02*
G37*
G36*
X216295Y325484D02*
X215705D01*
X215159Y325258D01*
X214742Y324841D01*
X214516Y324295D01*
Y323934D01*
X214368Y323632D01*
X214066Y323484D01*
X213705D01*
X213159Y323258D01*
X212742Y322841D01*
X212516Y322295D01*
Y321705D01*
X212742Y321159D01*
X213159Y320742D01*
X213705Y320516D01*
X214066D01*
X214330Y320386D01*
X214497Y319897D01*
X214368Y319632D01*
X214066Y319484D01*
X213705D01*
X213159Y319258D01*
X212742Y318841D01*
X212516Y318295D01*
Y317705D01*
X212742Y317159D01*
X213159Y316742D01*
X213705Y316516D01*
X214295D01*
X214841Y316742D01*
X215258Y317159D01*
X215484Y317705D01*
Y318066D01*
X215632Y318368D01*
X215934Y318516D01*
X216295D01*
X216841Y318742D01*
X217258Y319159D01*
X217484Y319705D01*
Y320295D01*
X217258Y320841D01*
X216841Y321258D01*
X216295Y321484D01*
X215934D01*
X215670Y321614D01*
X215503Y322103D01*
X215632Y322368D01*
X215934Y322516D01*
X216295D01*
X216841Y322742D01*
X217258Y323159D01*
X217484Y323705D01*
Y324295D01*
X217258Y324841D01*
X216841Y325258D01*
X216295Y325484D01*
D02*
G37*
G36*
X192295Y305484D02*
X191705D01*
X191159Y305258D01*
X190742Y304841D01*
X190516Y304295D01*
Y303705D01*
X190742Y303159D01*
X191159Y302742D01*
X191705Y302516D01*
X192295D01*
X192841Y302742D01*
X193258Y303159D01*
X193484Y303705D01*
Y304295D01*
X193258Y304841D01*
X192841Y305258D01*
X192295Y305484D01*
D02*
G37*
G36*
X182295D02*
X181705D01*
X181159Y305258D01*
X180742Y304841D01*
X180516Y304295D01*
Y303705D01*
X180742Y303159D01*
X181159Y302742D01*
X181705Y302516D01*
X182295D01*
X182841Y302742D01*
X183258Y303159D01*
X183484Y303705D01*
Y304295D01*
X183258Y304841D01*
X182841Y305258D01*
X182295Y305484D01*
D02*
G37*
G36*
X450416Y308156D02*
X449584D01*
X448782Y307941D01*
X448062Y307525D01*
X447475Y306938D01*
X447059Y306218D01*
X446844Y305416D01*
Y304585D01*
X447059Y303782D01*
X447475Y303062D01*
X448062Y302475D01*
X448782Y302059D01*
X449584Y301844D01*
X450416D01*
X451218Y302059D01*
X451938Y302475D01*
X452525Y303062D01*
X452941Y303782D01*
X453156Y304585D01*
Y305416D01*
X452941Y306218D01*
X452525Y306938D01*
X451938Y307525D01*
X451218Y307941D01*
X450416Y308156D01*
D02*
G37*
G36*
X443313D02*
X437002D01*
Y301844D01*
X443313D01*
Y308156D01*
D02*
G37*
G36*
X350415D02*
X349585D01*
X348782Y307941D01*
X348062Y307525D01*
X347475Y306938D01*
X347059Y306218D01*
X346844Y305416D01*
Y304585D01*
X347059Y303782D01*
X347475Y303062D01*
X348062Y302475D01*
X348782Y302059D01*
X349585Y301844D01*
X350415D01*
X351218Y302059D01*
X351938Y302475D01*
X352525Y303062D01*
X352941Y303782D01*
X353156Y304585D01*
Y305416D01*
X352941Y306218D01*
X352525Y306938D01*
X351938Y307525D01*
X351218Y307941D01*
X350415Y308156D01*
D02*
G37*
G36*
X343313D02*
X337002D01*
Y301844D01*
X343313D01*
Y308156D01*
D02*
G37*
G36*
X306156Y305156D02*
X299844D01*
Y298844D01*
X306156D01*
Y305156D01*
D02*
G37*
G36*
X293415D02*
X292584D01*
X291782Y304941D01*
X291062Y304525D01*
X290475Y303938D01*
X290059Y303218D01*
X289844Y302415D01*
Y301585D01*
X290059Y300782D01*
X290475Y300062D01*
X291062Y299475D01*
X291782Y299059D01*
X292584Y298844D01*
X293415D01*
X294218Y299059D01*
X294938Y299475D01*
X295525Y300062D01*
X295941Y300782D01*
X296156Y301585D01*
Y302415D01*
X295941Y303218D01*
X295525Y303938D01*
X294938Y304525D01*
X294218Y304941D01*
X293415Y305156D01*
D02*
G37*
G36*
X283416D02*
X282585D01*
X281782Y304941D01*
X281062Y304525D01*
X280475Y303938D01*
X280059Y303218D01*
X279844Y302415D01*
Y301585D01*
X280059Y300782D01*
X280475Y300062D01*
X281062Y299475D01*
X281782Y299059D01*
X282585Y298844D01*
X283416D01*
X284218Y299059D01*
X284938Y299475D01*
X285525Y300062D01*
X285941Y300782D01*
X286156Y301585D01*
Y302415D01*
X285941Y303218D01*
X285525Y303938D01*
X284938Y304525D01*
X284218Y304941D01*
X283416Y305156D01*
D02*
G37*
G36*
X253415D02*
X252585D01*
X251782Y304941D01*
X251062Y304525D01*
X250475Y303938D01*
X250059Y303218D01*
X249844Y302415D01*
Y301585D01*
X250059Y300782D01*
X250475Y300062D01*
X251062Y299475D01*
X251782Y299059D01*
X252585Y298844D01*
X253415D01*
X254218Y299059D01*
X254938Y299475D01*
X255525Y300062D01*
X255941Y300782D01*
X256156Y301585D01*
Y302415D01*
X255941Y303218D01*
X255525Y303938D01*
X254938Y304525D01*
X254218Y304941D01*
X253415Y305156D01*
D02*
G37*
G36*
X243415D02*
X242584D01*
X241782Y304941D01*
X241062Y304525D01*
X240475Y303938D01*
X240059Y303218D01*
X239844Y302415D01*
Y301585D01*
X240059Y300782D01*
X240475Y300062D01*
X241062Y299475D01*
X241782Y299059D01*
X242584Y298844D01*
X243415D01*
X244218Y299059D01*
X244938Y299475D01*
X245525Y300062D01*
X245941Y300782D01*
X246156Y301585D01*
Y302415D01*
X245941Y303218D01*
X245525Y303938D01*
X244938Y304525D01*
X244218Y304941D01*
X243415Y305156D01*
D02*
G37*
G36*
X233416D02*
X232585D01*
X231782Y304941D01*
X231062Y304525D01*
X230475Y303938D01*
X230059Y303218D01*
X229844Y302415D01*
Y301585D01*
X230059Y300782D01*
X230475Y300062D01*
X231062Y299475D01*
X231782Y299059D01*
X232585Y298844D01*
X233416D01*
X234218Y299059D01*
X234938Y299475D01*
X235525Y300062D01*
X235941Y300782D01*
X236156Y301585D01*
Y302415D01*
X235941Y303218D01*
X235525Y303938D01*
X234938Y304525D01*
X234218Y304941D01*
X233416Y305156D01*
D02*
G37*
G36*
X192295Y301484D02*
X191705D01*
X191159Y301258D01*
X190742Y300841D01*
X190516Y300295D01*
Y299705D01*
X190742Y299159D01*
X191159Y298742D01*
X191705Y298516D01*
X192295D01*
X192841Y298742D01*
X193258Y299159D01*
X193484Y299705D01*
Y300295D01*
X193258Y300841D01*
X192841Y301258D01*
X192295Y301484D01*
D02*
G37*
G36*
X182295D02*
X181705D01*
X181159Y301258D01*
X180742Y300841D01*
X180516Y300295D01*
Y299705D01*
X180742Y299159D01*
X181159Y298742D01*
X181705Y298516D01*
X182295D01*
X182841Y298742D01*
X183258Y299159D01*
X183484Y299705D01*
Y300295D01*
X183258Y300841D01*
X182841Y301258D01*
X182295Y301484D01*
D02*
G37*
G36*
X192295Y297484D02*
X191705D01*
X191159Y297258D01*
X190742Y296841D01*
X190516Y296295D01*
Y295705D01*
X190742Y295159D01*
X191159Y294742D01*
X191705Y294516D01*
X192295D01*
X192841Y294742D01*
X193258Y295159D01*
X193484Y295705D01*
Y296295D01*
X193258Y296841D01*
X192841Y297258D01*
X192295Y297484D01*
D02*
G37*
G36*
X184295D02*
X183705D01*
X183159Y297258D01*
X182742Y296841D01*
X182516Y296295D01*
Y295705D01*
X182742Y295159D01*
X183159Y294742D01*
X183705Y294516D01*
X184295D01*
X184841Y294742D01*
X185258Y295159D01*
X185484Y295705D01*
Y296295D01*
X185258Y296841D01*
X184841Y297258D01*
X184295Y297484D01*
D02*
G37*
G36*
X306295Y293484D02*
X305705D01*
X305159Y293258D01*
X304742Y292841D01*
X304516Y292295D01*
Y291705D01*
X304742Y291159D01*
X305159Y290742D01*
X305705Y290516D01*
X306295D01*
X306841Y290742D01*
X307258Y291159D01*
X307484Y291705D01*
Y292295D01*
X307258Y292841D01*
X306841Y293258D01*
X306295Y293484D01*
D02*
G37*
G36*
X274295D02*
X273705D01*
X273159Y293258D01*
X272742Y292841D01*
X272516Y292295D01*
Y291705D01*
X272742Y291159D01*
X273159Y290742D01*
X273705Y290516D01*
X274295D01*
X274841Y290742D01*
X275258Y291159D01*
X275484Y291705D01*
Y292295D01*
X275258Y292841D01*
X274841Y293258D01*
X274295Y293484D01*
D02*
G37*
G36*
X192295D02*
X191705D01*
X191159Y293258D01*
X190742Y292841D01*
X190516Y292295D01*
Y291705D01*
X190742Y291159D01*
X191159Y290742D01*
X191705Y290516D01*
X192295D01*
X192841Y290742D01*
X193258Y291159D01*
X193484Y291705D01*
Y292295D01*
X193258Y292841D01*
X192841Y293258D01*
X192295Y293484D01*
D02*
G37*
G36*
X260295Y291484D02*
X259705D01*
X259159Y291258D01*
X258742Y290841D01*
X258516Y290295D01*
Y289705D01*
X258742Y289159D01*
X259159Y288742D01*
X259705Y288516D01*
X260295D01*
X260841Y288742D01*
X261258Y289159D01*
X261484Y289705D01*
Y290295D01*
X261258Y290841D01*
X260841Y291258D01*
X260295Y291484D01*
D02*
G37*
G36*
X192295Y289484D02*
X191705D01*
X191159Y289258D01*
X190742Y288841D01*
X190516Y288295D01*
Y287705D01*
X190742Y287159D01*
X191159Y286742D01*
X191705Y286516D01*
X192295D01*
X192841Y286742D01*
X193258Y287159D01*
X193484Y287705D01*
Y288295D01*
X193258Y288841D01*
X192841Y289258D01*
X192295Y289484D01*
D02*
G37*
G36*
X257795Y288984D02*
X257205D01*
X256659Y288758D01*
X256242Y288341D01*
X256016Y287795D01*
Y287205D01*
X256242Y286659D01*
X256659Y286242D01*
X257205Y286016D01*
X257795D01*
X258341Y286242D01*
X258758Y286659D01*
X258984Y287205D01*
Y287795D01*
X258758Y288341D01*
X258341Y288758D01*
X257795Y288984D01*
D02*
G37*
G36*
X260295Y286484D02*
X259705D01*
X259159Y286258D01*
X258742Y285841D01*
X258516Y285295D01*
Y284705D01*
X258742Y284159D01*
X259159Y283742D01*
X259705Y283516D01*
X260295D01*
X260841Y283742D01*
X261258Y284159D01*
X261484Y284705D01*
Y285295D01*
X261258Y285841D01*
X260841Y286258D01*
X260295Y286484D01*
D02*
G37*
G36*
X192295Y285484D02*
X191705D01*
X191159Y285258D01*
X190742Y284841D01*
X190516Y284295D01*
Y283705D01*
X190742Y283159D01*
X191159Y282742D01*
X191705Y282516D01*
X192295D01*
X192841Y282742D01*
X193258Y283159D01*
X193484Y283705D01*
Y284295D01*
X193258Y284841D01*
X192841Y285258D01*
X192295Y285484D01*
D02*
G37*
G36*
X257795Y283984D02*
X257205D01*
X256659Y283758D01*
X256242Y283341D01*
X256016Y282795D01*
Y282205D01*
X256242Y281659D01*
X256659Y281242D01*
X257205Y281016D01*
X257795D01*
X258341Y281242D01*
X258758Y281659D01*
X258984Y282205D01*
Y282795D01*
X258758Y283341D01*
X258341Y283758D01*
X257795Y283984D01*
D02*
G37*
G36*
X192295Y281484D02*
X191705D01*
X191159Y281258D01*
X190742Y280841D01*
X190516Y280295D01*
Y279705D01*
X190742Y279159D01*
X191159Y278742D01*
X191705Y278516D01*
X192295D01*
X192841Y278742D01*
X193258Y279159D01*
X193484Y279705D01*
Y280295D01*
X193258Y280841D01*
X192841Y281258D01*
X192295Y281484D01*
D02*
G37*
G36*
X450416Y283156D02*
X449584D01*
X448782Y282941D01*
X448062Y282525D01*
X447475Y281938D01*
X447059Y281218D01*
X446844Y280416D01*
Y279585D01*
X447059Y278782D01*
X447475Y278062D01*
X448062Y277475D01*
X448782Y277059D01*
X449584Y276844D01*
X450416D01*
X451218Y277059D01*
X451938Y277475D01*
X452525Y278062D01*
X452941Y278782D01*
X453156Y279585D01*
Y280416D01*
X452941Y281218D01*
X452525Y281938D01*
X451938Y282525D01*
X451218Y282941D01*
X450416Y283156D01*
D02*
G37*
G36*
X443313D02*
X437002D01*
Y276844D01*
X443313D01*
Y283156D01*
D02*
G37*
G36*
X350415D02*
X349585D01*
X348782Y282941D01*
X348062Y282525D01*
X347475Y281938D01*
X347059Y281218D01*
X346844Y280416D01*
Y279585D01*
X347059Y278782D01*
X347475Y278062D01*
X348062Y277475D01*
X348782Y277059D01*
X349585Y276844D01*
X350415D01*
X351218Y277059D01*
X351938Y277475D01*
X352525Y278062D01*
X352941Y278782D01*
X353156Y279585D01*
Y280416D01*
X352941Y281218D01*
X352525Y281938D01*
X351938Y282525D01*
X351218Y282941D01*
X350415Y283156D01*
D02*
G37*
G36*
X343313D02*
X337002D01*
Y276844D01*
X343313D01*
Y283156D01*
D02*
G37*
G36*
X192295Y277484D02*
X191705D01*
X191159Y277258D01*
X190742Y276841D01*
X190516Y276295D01*
Y275705D01*
X190742Y275159D01*
X191159Y274742D01*
X191705Y274516D01*
X192295D01*
X192841Y274742D01*
X193258Y275159D01*
X193484Y275705D01*
Y276295D01*
X193258Y276841D01*
X192841Y277258D01*
X192295Y277484D01*
D02*
G37*
G36*
X303415Y275156D02*
X302585D01*
X301782Y274941D01*
X301062Y274525D01*
X300475Y273938D01*
X300059Y273218D01*
X299844Y272415D01*
Y271585D01*
X300059Y270782D01*
X300475Y270062D01*
X301062Y269475D01*
X301782Y269059D01*
X302585Y268844D01*
X303415D01*
X304218Y269059D01*
X304938Y269475D01*
X305525Y270062D01*
X305941Y270782D01*
X306156Y271585D01*
Y272415D01*
X305941Y273218D01*
X305525Y273938D01*
X304938Y274525D01*
X304218Y274941D01*
X303415Y275156D01*
D02*
G37*
G36*
X293415D02*
X292584D01*
X291782Y274941D01*
X291062Y274525D01*
X290475Y273938D01*
X290059Y273218D01*
X289844Y272415D01*
Y271585D01*
X290059Y270782D01*
X290475Y270062D01*
X291062Y269475D01*
X291782Y269059D01*
X292584Y268844D01*
X293415D01*
X294218Y269059D01*
X294938Y269475D01*
X295525Y270062D01*
X295941Y270782D01*
X296156Y271585D01*
Y272415D01*
X295941Y273218D01*
X295525Y273938D01*
X294938Y274525D01*
X294218Y274941D01*
X293415Y275156D01*
D02*
G37*
G36*
X283416D02*
X282585D01*
X281782Y274941D01*
X281062Y274525D01*
X280475Y273938D01*
X280059Y273218D01*
X279844Y272415D01*
Y271585D01*
X280059Y270782D01*
X280475Y270062D01*
X281062Y269475D01*
X281782Y269059D01*
X282585Y268844D01*
X283416D01*
X284218Y269059D01*
X284938Y269475D01*
X285525Y270062D01*
X285941Y270782D01*
X286156Y271585D01*
Y272415D01*
X285941Y273218D01*
X285525Y273938D01*
X284938Y274525D01*
X284218Y274941D01*
X283416Y275156D01*
D02*
G37*
G36*
X253415D02*
X252585D01*
X251782Y274941D01*
X251062Y274525D01*
X250475Y273938D01*
X250059Y273218D01*
X249844Y272415D01*
Y271585D01*
X250059Y270782D01*
X250475Y270062D01*
X251062Y269475D01*
X251782Y269059D01*
X252585Y268844D01*
X253415D01*
X254218Y269059D01*
X254938Y269475D01*
X255525Y270062D01*
X255941Y270782D01*
X256156Y271585D01*
Y272415D01*
X255941Y273218D01*
X255525Y273938D01*
X254938Y274525D01*
X254218Y274941D01*
X253415Y275156D01*
D02*
G37*
G36*
X243415D02*
X242584D01*
X241782Y274941D01*
X241062Y274525D01*
X240475Y273938D01*
X240059Y273218D01*
X239844Y272415D01*
Y271585D01*
X240059Y270782D01*
X240475Y270062D01*
X241062Y269475D01*
X241782Y269059D01*
X242584Y268844D01*
X243415D01*
X244218Y269059D01*
X244938Y269475D01*
X245525Y270062D01*
X245941Y270782D01*
X246156Y271585D01*
Y272415D01*
X245941Y273218D01*
X245525Y273938D01*
X244938Y274525D01*
X244218Y274941D01*
X243415Y275156D01*
D02*
G37*
G36*
X233416D02*
X232585D01*
X231782Y274941D01*
X231062Y274525D01*
X230475Y273938D01*
X230059Y273218D01*
X229844Y272415D01*
Y271585D01*
X230059Y270782D01*
X230475Y270062D01*
X231062Y269475D01*
X231782Y269059D01*
X232585Y268844D01*
X233416D01*
X234218Y269059D01*
X234938Y269475D01*
X235525Y270062D01*
X235941Y270782D01*
X236156Y271585D01*
Y272415D01*
X235941Y273218D01*
X235525Y273938D01*
X234938Y274525D01*
X234218Y274941D01*
X233416Y275156D01*
D02*
G37*
G36*
X190041Y273230D02*
X189450D01*
X188905Y273004D01*
X188487Y272586D01*
X188261Y272041D01*
Y271484D01*
X187705D01*
X187159Y271258D01*
X186742Y270841D01*
X186516Y270295D01*
Y269705D01*
X186742Y269159D01*
X187159Y268742D01*
X187705Y268516D01*
X188295D01*
X188841Y268742D01*
X189258Y269159D01*
X189484Y269705D01*
Y270261D01*
X190041D01*
X190586Y270487D01*
X191004Y270905D01*
X191230Y271450D01*
Y272041D01*
X191004Y272586D01*
X190586Y273004D01*
X190041Y273230D01*
D02*
G37*
G36*
X225295Y268984D02*
X224705D01*
X224159Y268758D01*
X223742Y268341D01*
X223516Y267795D01*
Y267205D01*
X223742Y266659D01*
X224159Y266242D01*
X224705Y266016D01*
X225295D01*
X225841Y266242D01*
X226258Y266659D01*
X226484Y267205D01*
Y267795D01*
X226258Y268341D01*
X225841Y268758D01*
X225295Y268984D01*
D02*
G37*
G36*
X222795Y266484D02*
X222205D01*
X221659Y266258D01*
X221242Y265841D01*
X221016Y265295D01*
Y264705D01*
X221242Y264159D01*
X221659Y263742D01*
X222205Y263516D01*
X222795D01*
X223341Y263742D01*
X223758Y264159D01*
X223984Y264705D01*
Y265295D01*
X223758Y265841D01*
X223341Y266258D01*
X222795Y266484D01*
D02*
G37*
G36*
X225295Y263984D02*
X224705D01*
X224159Y263758D01*
X223742Y263341D01*
X223516Y262795D01*
Y262205D01*
X223742Y261659D01*
X224159Y261242D01*
X224705Y261016D01*
X225295D01*
X225841Y261242D01*
X226258Y261659D01*
X226484Y262205D01*
Y262795D01*
X226258Y263341D01*
X225841Y263758D01*
X225295Y263984D01*
D02*
G37*
G36*
X222795Y261484D02*
X222205D01*
X221659Y261258D01*
X221242Y260841D01*
X221016Y260295D01*
Y259705D01*
X221242Y259159D01*
X221659Y258742D01*
X222205Y258516D01*
X222795D01*
X223341Y258742D01*
X223758Y259159D01*
X223984Y259705D01*
Y260295D01*
X223758Y260841D01*
X223341Y261258D01*
X222795Y261484D01*
D02*
G37*
G36*
X450416Y258156D02*
X449584D01*
X448782Y257941D01*
X448062Y257525D01*
X447475Y256938D01*
X447059Y256218D01*
X446844Y255416D01*
Y254585D01*
X447059Y253782D01*
X447475Y253062D01*
X448062Y252475D01*
X448782Y252059D01*
X449584Y251844D01*
X450416D01*
X451218Y252059D01*
X451938Y252475D01*
X452525Y253062D01*
X452941Y253782D01*
X453156Y254585D01*
Y255416D01*
X452941Y256218D01*
X452525Y256938D01*
X451938Y257525D01*
X451218Y257941D01*
X450416Y258156D01*
D02*
G37*
G36*
X443313D02*
X437002D01*
Y251844D01*
X443313D01*
Y258156D01*
D02*
G37*
G36*
X350415D02*
X349585D01*
X348782Y257941D01*
X348062Y257525D01*
X347475Y256938D01*
X347059Y256218D01*
X346844Y255416D01*
Y254585D01*
X347059Y253782D01*
X347475Y253062D01*
X348062Y252475D01*
X348782Y252059D01*
X349585Y251844D01*
X350415D01*
X351218Y252059D01*
X351938Y252475D01*
X352525Y253062D01*
X352941Y253782D01*
X353156Y254585D01*
Y255416D01*
X352941Y256218D01*
X352525Y256938D01*
X351938Y257525D01*
X351218Y257941D01*
X350415Y258156D01*
D02*
G37*
G36*
X343313D02*
X337002D01*
Y251844D01*
X343313D01*
Y258156D01*
D02*
G37*
G36*
X225295Y251484D02*
X224705D01*
X224159Y251258D01*
X223742Y250841D01*
X223516Y250295D01*
Y249705D01*
X223742Y249159D01*
X224159Y248742D01*
X224705Y248516D01*
X225295D01*
X225841Y248742D01*
X226258Y249159D01*
X226484Y249705D01*
Y250295D01*
X226258Y250841D01*
X225841Y251258D01*
X225295Y251484D01*
D02*
G37*
G36*
X156295D02*
X155705D01*
X155159Y251258D01*
X154742Y250841D01*
X154516Y250295D01*
Y249705D01*
X154742Y249159D01*
X155159Y248742D01*
X155705Y248516D01*
X156295D01*
X156841Y248742D01*
X157258Y249159D01*
X157484Y249705D01*
Y250295D01*
X157258Y250841D01*
X156841Y251258D01*
X156295Y251484D01*
D02*
G37*
G36*
X151295D02*
X150705D01*
X150159Y251258D01*
X149742Y250841D01*
X149516Y250295D01*
Y249705D01*
X149742Y249159D01*
X150159Y248742D01*
X150705Y248516D01*
X151295D01*
X151841Y248742D01*
X152258Y249159D01*
X152484Y249705D01*
Y250295D01*
X152258Y250841D01*
X151841Y251258D01*
X151295Y251484D01*
D02*
G37*
G36*
X146295D02*
X145705D01*
X145159Y251258D01*
X144742Y250841D01*
X144516Y250295D01*
Y249705D01*
X144742Y249159D01*
X145159Y248742D01*
X145705Y248516D01*
X146295D01*
X146841Y248742D01*
X147258Y249159D01*
X147484Y249705D01*
Y250295D01*
X147258Y250841D01*
X146841Y251258D01*
X146295Y251484D01*
D02*
G37*
G36*
X293451Y253451D02*
X286549D01*
Y246549D01*
X293451D01*
Y253451D01*
D02*
G37*
G36*
X280612D02*
X279703D01*
X278825Y253216D01*
X278038Y252762D01*
X277396Y252119D01*
X276941Y251332D01*
X276706Y250454D01*
Y249546D01*
X276941Y248668D01*
X277396Y247881D01*
X278038Y247238D01*
X278825Y246784D01*
X279703Y246549D01*
X280612D01*
X281490Y246784D01*
X282277Y247238D01*
X282919Y247881D01*
X283373Y248668D01*
X283609Y249546D01*
Y250454D01*
X283373Y251332D01*
X282919Y252119D01*
X282277Y252762D01*
X281490Y253216D01*
X280612Y253451D01*
D02*
G37*
G36*
X258294D02*
X251391D01*
Y246549D01*
X258294D01*
Y253451D01*
D02*
G37*
G36*
X245454D02*
X244546D01*
X243668Y253216D01*
X242881Y252762D01*
X242238Y252119D01*
X241784Y251332D01*
X241549Y250454D01*
Y249546D01*
X241784Y248668D01*
X242238Y247881D01*
X242881Y247238D01*
X243668Y246784D01*
X244546Y246549D01*
X245454D01*
X246332Y246784D01*
X247119Y247238D01*
X247762Y247881D01*
X248216Y248668D01*
X248451Y249546D01*
Y250454D01*
X248216Y251332D01*
X247762Y252119D01*
X247119Y252762D01*
X246332Y253216D01*
X245454Y253451D01*
D02*
G37*
G36*
X222795Y248984D02*
X222205D01*
X221659Y248758D01*
X221242Y248341D01*
X221016Y247795D01*
Y247205D01*
X221242Y246659D01*
X221659Y246242D01*
X222205Y246016D01*
X222795D01*
X223341Y246242D01*
X223758Y246659D01*
X223984Y247205D01*
Y247795D01*
X223758Y248341D01*
X223341Y248758D01*
X222795Y248984D01*
D02*
G37*
G36*
X225295Y246484D02*
X224705D01*
X224159Y246258D01*
X223742Y245841D01*
X223516Y245295D01*
Y244705D01*
X223742Y244159D01*
X224159Y243742D01*
X224705Y243516D01*
X225295D01*
X225841Y243742D01*
X226258Y244159D01*
X226484Y244705D01*
Y245295D01*
X226258Y245841D01*
X225841Y246258D01*
X225295Y246484D01*
D02*
G37*
G36*
X222795Y243984D02*
X222205D01*
X221659Y243758D01*
X221242Y243341D01*
X221016Y242795D01*
Y242205D01*
X221242Y241659D01*
X221659Y241242D01*
X222205Y241016D01*
X222795D01*
X223341Y241242D01*
X223758Y241659D01*
X223984Y242205D01*
Y242795D01*
X223758Y243341D01*
X223341Y243758D01*
X222795Y243984D01*
D02*
G37*
G36*
X450416Y228156D02*
X449584D01*
X448782Y227941D01*
X448062Y227525D01*
X447475Y226938D01*
X447059Y226218D01*
X446844Y225415D01*
Y224585D01*
X447059Y223782D01*
X447475Y223062D01*
X448062Y222475D01*
X448782Y222059D01*
X449584Y221844D01*
X450416D01*
X451218Y222059D01*
X451938Y222475D01*
X452525Y223062D01*
X452941Y223782D01*
X453156Y224585D01*
Y225415D01*
X452941Y226218D01*
X452525Y226938D01*
X451938Y227525D01*
X451218Y227941D01*
X450416Y228156D01*
D02*
G37*
G36*
X443313D02*
X437002D01*
Y221844D01*
X443313D01*
Y228156D01*
D02*
G37*
G36*
X350415D02*
X349585D01*
X348782Y227941D01*
X348062Y227525D01*
X347475Y226938D01*
X347059Y226218D01*
X346844Y225415D01*
Y224585D01*
X347059Y223782D01*
X347475Y223062D01*
X348062Y222475D01*
X348782Y222059D01*
X349585Y221844D01*
X350415D01*
X351218Y222059D01*
X351938Y222475D01*
X352525Y223062D01*
X352941Y223782D01*
X353156Y224585D01*
Y225415D01*
X352941Y226218D01*
X352525Y226938D01*
X351938Y227525D01*
X351218Y227941D01*
X350415Y228156D01*
D02*
G37*
G36*
X343313D02*
X337002D01*
Y221844D01*
X343313D01*
Y228156D01*
D02*
G37*
G36*
X252295Y225484D02*
X251705D01*
X251159Y225258D01*
X250742Y224841D01*
X250516Y224295D01*
Y223934D01*
X250368Y223632D01*
X250066Y223484D01*
X249705D01*
X249159Y223258D01*
X248742Y222841D01*
X248516Y222295D01*
Y221705D01*
X248742Y221159D01*
X249159Y220742D01*
X249705Y220516D01*
X250295D01*
X250841Y220742D01*
X251258Y221159D01*
X251484Y221705D01*
Y222066D01*
X251632Y222368D01*
X251934Y222516D01*
X252295D01*
X252841Y222742D01*
X253258Y223159D01*
X253484Y223705D01*
Y224295D01*
X253258Y224841D01*
X252841Y225258D01*
X252295Y225484D01*
D02*
G37*
G36*
X244823Y221957D02*
X244232D01*
X243687Y221731D01*
X243269Y221313D01*
X243043Y220768D01*
Y220177D01*
X243269Y219632D01*
X243687Y219214D01*
X244232Y218988D01*
X244823D01*
X245368Y219214D01*
X245786Y219632D01*
X246012Y220177D01*
Y220768D01*
X245786Y221313D01*
X245368Y221731D01*
X244823Y221957D01*
D02*
G37*
G36*
X241870Y219909D02*
X241280D01*
X240734Y219684D01*
X240317Y219266D01*
X240091Y218720D01*
Y218130D01*
X240317Y217584D01*
X240734Y217167D01*
X241280Y216941D01*
X241870D01*
X242416Y217167D01*
X242833Y217584D01*
X243059Y218130D01*
Y218720D01*
X242833Y219266D01*
X242416Y219684D01*
X241870Y219909D01*
D02*
G37*
G36*
X135295Y217484D02*
X134705D01*
X134159Y217258D01*
X133742Y216841D01*
X133516Y216295D01*
Y215705D01*
X133742Y215159D01*
X134159Y214742D01*
X134705Y214516D01*
X135295D01*
X135841Y214742D01*
X136258Y215159D01*
X136484Y215705D01*
Y216295D01*
X136258Y216841D01*
X135841Y217258D01*
X135295Y217484D01*
D02*
G37*
G36*
X239311Y217469D02*
X238720D01*
X238175Y217243D01*
X237757Y216825D01*
X237531Y216280D01*
Y215689D01*
X237757Y215143D01*
X238175Y214726D01*
X238720Y214500D01*
X239311D01*
X239857Y214726D01*
X240274Y215143D01*
X240500Y215689D01*
Y216280D01*
X240274Y216825D01*
X239857Y217243D01*
X239311Y217469D01*
D02*
G37*
G36*
X236752Y215028D02*
X236161D01*
X235616Y214802D01*
X235198Y214384D01*
X234972Y213839D01*
Y213248D01*
X235198Y212702D01*
X235616Y212285D01*
X236161Y212059D01*
X236752D01*
X237298Y212285D01*
X237715Y212702D01*
X237941Y213248D01*
Y213839D01*
X237715Y214384D01*
X237298Y214802D01*
X236752Y215028D01*
D02*
G37*
G36*
X210295Y210484D02*
X209705D01*
X209159Y210258D01*
X208742Y209841D01*
X208516Y209295D01*
Y208705D01*
X208742Y208159D01*
X209159Y207742D01*
X209705Y207516D01*
X210295D01*
X210841Y207742D01*
X211258Y208159D01*
X211484Y208705D01*
Y209295D01*
X211258Y209841D01*
X210841Y210258D01*
X210295Y210484D01*
D02*
G37*
G36*
X202295Y208484D02*
X201705D01*
X201159Y208258D01*
X200742Y207841D01*
X200516Y207295D01*
Y206705D01*
X200742Y206159D01*
X201159Y205742D01*
X201705Y205516D01*
X202295D01*
X202841Y205742D01*
X203258Y206159D01*
X203484Y206705D01*
Y207295D01*
X203258Y207841D01*
X202841Y208258D01*
X202295Y208484D01*
D02*
G37*
G36*
X165295Y201484D02*
X164705D01*
X164159Y201258D01*
X163742Y200841D01*
X163516Y200295D01*
Y199705D01*
X163742Y199159D01*
X164159Y198742D01*
X164705Y198516D01*
X165295D01*
X165841Y198742D01*
X166258Y199159D01*
X166484Y199705D01*
Y200295D01*
X166258Y200841D01*
X165841Y201258D01*
X165295Y201484D01*
D02*
G37*
G36*
X450416Y203156D02*
X449584D01*
X448782Y202941D01*
X448062Y202525D01*
X447475Y201938D01*
X447059Y201218D01*
X446844Y200415D01*
Y199584D01*
X447059Y198782D01*
X447475Y198062D01*
X448062Y197475D01*
X448782Y197059D01*
X449584Y196844D01*
X450416D01*
X451218Y197059D01*
X451938Y197475D01*
X452525Y198062D01*
X452941Y198782D01*
X453156Y199584D01*
Y200415D01*
X452941Y201218D01*
X452525Y201938D01*
X451938Y202525D01*
X451218Y202941D01*
X450416Y203156D01*
D02*
G37*
G36*
X443313D02*
X437002D01*
Y196844D01*
X443313D01*
Y203156D01*
D02*
G37*
G36*
X350415D02*
X349585D01*
X348782Y202941D01*
X348062Y202525D01*
X347475Y201938D01*
X347059Y201218D01*
X346844Y200415D01*
Y199584D01*
X347059Y198782D01*
X347475Y198062D01*
X348062Y197475D01*
X348782Y197059D01*
X349585Y196844D01*
X350415D01*
X351218Y197059D01*
X351938Y197475D01*
X352525Y198062D01*
X352941Y198782D01*
X353156Y199584D01*
Y200415D01*
X352941Y201218D01*
X352525Y201938D01*
X351938Y202525D01*
X351218Y202941D01*
X350415Y203156D01*
D02*
G37*
G36*
X343313D02*
X337002D01*
Y196844D01*
X343313D01*
Y203156D01*
D02*
G37*
G36*
X154514Y200148D02*
X147809D01*
Y193442D01*
X154514D01*
Y200148D01*
D02*
G37*
G36*
X281378Y193498D02*
X278622D01*
X277798Y193390D01*
X277030Y193072D01*
X276371Y192566D01*
X275865Y191907D01*
X275547Y191139D01*
X275439Y190315D01*
X275547Y189491D01*
X275865Y188723D01*
X276371Y188064D01*
X277030Y187558D01*
X277798Y187240D01*
X278622Y187132D01*
X281378D01*
X282202Y187240D01*
X282969Y187558D01*
X283629Y188064D01*
X284135Y188723D01*
X284453Y189491D01*
X284561Y190315D01*
X284453Y191139D01*
X284135Y191907D01*
X283629Y192566D01*
X282969Y193072D01*
X282202Y193390D01*
X281378Y193498D01*
D02*
G37*
G36*
X202295Y178484D02*
X201705D01*
X201159Y178258D01*
X200742Y177841D01*
X200516Y177295D01*
Y176705D01*
X200742Y176159D01*
X201159Y175742D01*
X201705Y175516D01*
X202295D01*
X202841Y175742D01*
X203258Y176159D01*
X203484Y176705D01*
Y177295D01*
X203258Y177841D01*
X202841Y178258D01*
X202295Y178484D01*
D02*
G37*
G36*
X450416Y178156D02*
X449584D01*
X448782Y177941D01*
X448062Y177525D01*
X447475Y176938D01*
X447059Y176218D01*
X446844Y175416D01*
Y174584D01*
X447059Y173782D01*
X447475Y173062D01*
X448062Y172475D01*
X448782Y172059D01*
X449584Y171844D01*
X450416D01*
X451218Y172059D01*
X451938Y172475D01*
X452525Y173062D01*
X452941Y173782D01*
X453156Y174584D01*
Y175416D01*
X452941Y176218D01*
X452525Y176938D01*
X451938Y177525D01*
X451218Y177941D01*
X450416Y178156D01*
D02*
G37*
G36*
X443313D02*
X437002D01*
Y171844D01*
X443313D01*
Y178156D01*
D02*
G37*
G36*
X350415D02*
X349585D01*
X348782Y177941D01*
X348062Y177525D01*
X347475Y176938D01*
X347059Y176218D01*
X346844Y175416D01*
Y174584D01*
X347059Y173782D01*
X347475Y173062D01*
X348062Y172475D01*
X348782Y172059D01*
X349585Y171844D01*
X350415D01*
X351218Y172059D01*
X351938Y172475D01*
X352525Y173062D01*
X352941Y173782D01*
X353156Y174584D01*
Y175416D01*
X352941Y176218D01*
X352525Y176938D01*
X351938Y177525D01*
X351218Y177941D01*
X350415Y178156D01*
D02*
G37*
G36*
X343313D02*
X337002D01*
Y171844D01*
X343313D01*
Y178156D01*
D02*
G37*
G36*
X151603Y174557D02*
X150720D01*
X149867Y174329D01*
X149103Y173888D01*
X148478Y173263D01*
X148037Y172499D01*
X147809Y171646D01*
Y170763D01*
X148037Y169911D01*
X148478Y169146D01*
X149103Y168522D01*
X149867Y168080D01*
X150720Y167852D01*
X151603D01*
X152455Y168080D01*
X153220Y168522D01*
X153844Y169146D01*
X154286Y169911D01*
X154514Y170763D01*
Y171646D01*
X154286Y172499D01*
X153844Y173263D01*
X153220Y173888D01*
X152455Y174329D01*
X151603Y174557D01*
D02*
G37*
G36*
X450416Y153156D02*
X449584D01*
X448782Y152941D01*
X448062Y152525D01*
X447475Y151938D01*
X447059Y151218D01*
X446844Y150416D01*
Y149584D01*
X447059Y148782D01*
X447475Y148062D01*
X448062Y147475D01*
X448782Y147059D01*
X449584Y146844D01*
X450416D01*
X451218Y147059D01*
X451938Y147475D01*
X452525Y148062D01*
X452941Y148782D01*
X453156Y149584D01*
Y150416D01*
X452941Y151218D01*
X452525Y151938D01*
X451938Y152525D01*
X451218Y152941D01*
X450416Y153156D01*
D02*
G37*
G36*
X443313D02*
X437002D01*
Y146844D01*
X443313D01*
Y153156D01*
D02*
G37*
G36*
X350415D02*
X349585D01*
X348782Y152941D01*
X348062Y152525D01*
X347475Y151938D01*
X347059Y151218D01*
X346844Y150416D01*
Y149584D01*
X347059Y148782D01*
X347475Y148062D01*
X348062Y147475D01*
X348782Y147059D01*
X349585Y146844D01*
X350415D01*
X351218Y147059D01*
X351938Y147475D01*
X352525Y148062D01*
X352941Y148782D01*
X353156Y149584D01*
Y150416D01*
X352941Y151218D01*
X352525Y151938D01*
X351938Y152525D01*
X351218Y152941D01*
X350415Y153156D01*
D02*
G37*
G36*
X343313D02*
X337002D01*
Y146844D01*
X343313D01*
Y153156D01*
D02*
G37*
G36*
X313491Y143491D02*
X306509D01*
Y136509D01*
X313491D01*
Y143491D01*
D02*
G37*
G36*
X298491D02*
X291510D01*
Y136509D01*
X298491D01*
Y143491D01*
D02*
G37*
G36*
X283490D02*
X276509D01*
Y136509D01*
X283490D01*
Y143491D01*
D02*
G37*
G36*
X268491D02*
X261509D01*
Y136509D01*
X268491D01*
Y143491D01*
D02*
G37*
G36*
X253490D02*
X246510D01*
Y136509D01*
X253490D01*
Y143491D01*
D02*
G37*
G36*
X238491D02*
X231509D01*
Y136509D01*
X238491D01*
Y143491D01*
D02*
G37*
G36*
X223491D02*
X216510D01*
Y136509D01*
X223491D01*
Y143491D01*
D02*
G37*
G36*
X208490D02*
X201509D01*
Y136509D01*
X208490D01*
Y143491D01*
D02*
G37*
G36*
X193491D02*
X186509D01*
Y136509D01*
X193491D01*
Y143491D01*
D02*
G37*
G36*
X178491D02*
X171509D01*
Y136509D01*
X178491D01*
Y143491D01*
D02*
G37*
G36*
X163491D02*
X156509D01*
Y136509D01*
X163491D01*
Y143491D01*
D02*
G37*
G36*
X148491D02*
X141509D01*
Y136509D01*
X148491D01*
Y143491D01*
D02*
G37*
G36*
X310459Y133491D02*
X309541D01*
X308653Y133253D01*
X307857Y132793D01*
X307207Y132143D01*
X306747Y131347D01*
X306509Y130459D01*
Y129541D01*
X306747Y128653D01*
X307207Y127857D01*
X307857Y127207D01*
X308653Y126747D01*
X309541Y126509D01*
X310459D01*
X311347Y126747D01*
X312143Y127207D01*
X312793Y127857D01*
X313253Y128653D01*
X313491Y129541D01*
Y130459D01*
X313253Y131347D01*
X312793Y132143D01*
X312143Y132793D01*
X311347Y133253D01*
X310459Y133491D01*
D02*
G37*
G36*
X295460D02*
X294541D01*
X293653Y133253D01*
X292857Y132793D01*
X292207Y132143D01*
X291747Y131347D01*
X291510Y130459D01*
Y129541D01*
X291747Y128653D01*
X292207Y127857D01*
X292857Y127207D01*
X293653Y126747D01*
X294541Y126509D01*
X295460D01*
X296347Y126747D01*
X297143Y127207D01*
X297793Y127857D01*
X298253Y128653D01*
X298491Y129541D01*
Y130459D01*
X298253Y131347D01*
X297793Y132143D01*
X297143Y132793D01*
X296347Y133253D01*
X295460Y133491D01*
D02*
G37*
G36*
X280459D02*
X279540D01*
X278653Y133253D01*
X277857Y132793D01*
X277207Y132143D01*
X276747Y131347D01*
X276509Y130459D01*
Y129541D01*
X276747Y128653D01*
X277207Y127857D01*
X277857Y127207D01*
X278653Y126747D01*
X279540Y126509D01*
X280459D01*
X281347Y126747D01*
X282143Y127207D01*
X282793Y127857D01*
X283253Y128653D01*
X283490Y129541D01*
Y130459D01*
X283253Y131347D01*
X282793Y132143D01*
X282143Y132793D01*
X281347Y133253D01*
X280459Y133491D01*
D02*
G37*
G36*
X265459D02*
X264541D01*
X263653Y133253D01*
X262857Y132793D01*
X262207Y132143D01*
X261747Y131347D01*
X261509Y130459D01*
Y129541D01*
X261747Y128653D01*
X262207Y127857D01*
X262857Y127207D01*
X263653Y126747D01*
X264541Y126509D01*
X265459D01*
X266347Y126747D01*
X267143Y127207D01*
X267793Y127857D01*
X268253Y128653D01*
X268491Y129541D01*
Y130459D01*
X268253Y131347D01*
X267793Y132143D01*
X267143Y132793D01*
X266347Y133253D01*
X265459Y133491D01*
D02*
G37*
G36*
X250460D02*
X249540D01*
X248653Y133253D01*
X247857Y132793D01*
X247207Y132143D01*
X246747Y131347D01*
X246510Y130459D01*
Y129541D01*
X246747Y128653D01*
X247207Y127857D01*
X247857Y127207D01*
X248653Y126747D01*
X249540Y126509D01*
X250460D01*
X251347Y126747D01*
X252143Y127207D01*
X252793Y127857D01*
X253253Y128653D01*
X253490Y129541D01*
Y130459D01*
X253253Y131347D01*
X252793Y132143D01*
X252143Y132793D01*
X251347Y133253D01*
X250460Y133491D01*
D02*
G37*
G36*
X235459D02*
X234541D01*
X233653Y133253D01*
X232857Y132793D01*
X232207Y132143D01*
X231747Y131347D01*
X231509Y130459D01*
Y129541D01*
X231747Y128653D01*
X232207Y127857D01*
X232857Y127207D01*
X233653Y126747D01*
X234541Y126509D01*
X235459D01*
X236347Y126747D01*
X237143Y127207D01*
X237793Y127857D01*
X238253Y128653D01*
X238491Y129541D01*
Y130459D01*
X238253Y131347D01*
X237793Y132143D01*
X237143Y132793D01*
X236347Y133253D01*
X235459Y133491D01*
D02*
G37*
G36*
X220460D02*
X219541D01*
X218653Y133253D01*
X217857Y132793D01*
X217207Y132143D01*
X216747Y131347D01*
X216510Y130459D01*
Y129541D01*
X216747Y128653D01*
X217207Y127857D01*
X217857Y127207D01*
X218653Y126747D01*
X219541Y126509D01*
X220460D01*
X221347Y126747D01*
X222143Y127207D01*
X222793Y127857D01*
X223253Y128653D01*
X223491Y129541D01*
Y130459D01*
X223253Y131347D01*
X222793Y132143D01*
X222143Y132793D01*
X221347Y133253D01*
X220460Y133491D01*
D02*
G37*
G36*
X205459D02*
X204540D01*
X203653Y133253D01*
X202857Y132793D01*
X202207Y132143D01*
X201747Y131347D01*
X201509Y130459D01*
Y129541D01*
X201747Y128653D01*
X202207Y127857D01*
X202857Y127207D01*
X203653Y126747D01*
X204540Y126509D01*
X205459D01*
X206347Y126747D01*
X207143Y127207D01*
X207793Y127857D01*
X208253Y128653D01*
X208490Y129541D01*
Y130459D01*
X208253Y131347D01*
X207793Y132143D01*
X207143Y132793D01*
X206347Y133253D01*
X205459Y133491D01*
D02*
G37*
G36*
X190460D02*
X189541D01*
X188653Y133253D01*
X187857Y132793D01*
X187207Y132143D01*
X186747Y131347D01*
X186509Y130459D01*
Y129541D01*
X186747Y128653D01*
X187207Y127857D01*
X187857Y127207D01*
X188653Y126747D01*
X189541Y126509D01*
X190460D01*
X191347Y126747D01*
X192143Y127207D01*
X192793Y127857D01*
X193253Y128653D01*
X193491Y129541D01*
Y130459D01*
X193253Y131347D01*
X192793Y132143D01*
X192143Y132793D01*
X191347Y133253D01*
X190460Y133491D01*
D02*
G37*
G36*
X175460D02*
X174540D01*
X173653Y133253D01*
X172857Y132793D01*
X172207Y132143D01*
X171747Y131347D01*
X171509Y130459D01*
Y129541D01*
X171747Y128653D01*
X172207Y127857D01*
X172857Y127207D01*
X173653Y126747D01*
X174540Y126509D01*
X175460D01*
X176347Y126747D01*
X177143Y127207D01*
X177793Y127857D01*
X178253Y128653D01*
X178491Y129541D01*
Y130459D01*
X178253Y131347D01*
X177793Y132143D01*
X177143Y132793D01*
X176347Y133253D01*
X175460Y133491D01*
D02*
G37*
G36*
X160459D02*
X159540D01*
X158653Y133253D01*
X157857Y132793D01*
X157207Y132143D01*
X156747Y131347D01*
X156509Y130459D01*
Y129541D01*
X156747Y128653D01*
X157207Y127857D01*
X157857Y127207D01*
X158653Y126747D01*
X159540Y126509D01*
X160459D01*
X161347Y126747D01*
X162143Y127207D01*
X162793Y127857D01*
X163253Y128653D01*
X163491Y129541D01*
Y130459D01*
X163253Y131347D01*
X162793Y132143D01*
X162143Y132793D01*
X161347Y133253D01*
X160459Y133491D01*
D02*
G37*
G36*
X145459D02*
X144541D01*
X143653Y133253D01*
X142857Y132793D01*
X142207Y132143D01*
X141747Y131347D01*
X141509Y130459D01*
Y129541D01*
X141747Y128653D01*
X142207Y127857D01*
X142857Y127207D01*
X143653Y126747D01*
X144541Y126509D01*
X145459D01*
X146347Y126747D01*
X147143Y127207D01*
X147793Y127857D01*
X148253Y128653D01*
X148491Y129541D01*
Y130459D01*
X148253Y131347D01*
X147793Y132143D01*
X147143Y132793D01*
X146347Y133253D01*
X145459Y133491D01*
D02*
G37*
G36*
X425416Y128156D02*
X424584D01*
X423782Y127941D01*
X423062Y127525D01*
X422475Y126938D01*
X422059Y126218D01*
X421844Y125416D01*
Y124584D01*
X422059Y123782D01*
X422475Y123062D01*
X423062Y122475D01*
X423782Y122059D01*
X424584Y121844D01*
X425416D01*
X426218Y122059D01*
X426938Y122475D01*
X427525Y123062D01*
X427941Y123782D01*
X428156Y124584D01*
Y125416D01*
X427941Y126218D01*
X427525Y126938D01*
X426938Y127525D01*
X426218Y127941D01*
X425416Y128156D01*
D02*
G37*
G36*
X418313D02*
X412002D01*
Y121844D01*
X418313D01*
Y128156D01*
D02*
G37*
G36*
X375415D02*
X374585D01*
X373782Y127941D01*
X373062Y127525D01*
X372475Y126938D01*
X372059Y126218D01*
X371844Y125416D01*
Y124584D01*
X372059Y123782D01*
X372475Y123062D01*
X373062Y122475D01*
X373782Y122059D01*
X374585Y121844D01*
X375415D01*
X376218Y122059D01*
X376938Y122475D01*
X377525Y123062D01*
X377941Y123782D01*
X378156Y124584D01*
Y125416D01*
X377941Y126218D01*
X377525Y126938D01*
X376938Y127525D01*
X376218Y127941D01*
X375415Y128156D01*
D02*
G37*
G36*
X368313D02*
X362002D01*
Y121844D01*
X368313D01*
Y128156D01*
D02*
G37*
%LPD*%
D70*
X265000Y120000D02*
D03*
X235000D02*
D03*
X250000D02*
D03*
X205000D02*
D03*
X220000D02*
D03*
X190000D02*
D03*
X145000D02*
D03*
X160000D02*
D03*
X175000D02*
D03*
X310000D02*
D03*
X295000D02*
D03*
X280000D02*
D03*
D73*
X273000Y302000D02*
D03*
X263000D02*
D03*
X273000Y272000D02*
D03*
X263000D02*
D03*
X459685Y435000D02*
D03*
X459842Y410000D02*
D03*
Y385000D02*
D03*
Y360000D02*
D03*
X359842Y255000D02*
D03*
Y280000D02*
D03*
Y330000D02*
D03*
Y305000D02*
D03*
Y225000D02*
D03*
Y200000D02*
D03*
Y175000D02*
D03*
Y150000D02*
D03*
Y385000D02*
D03*
Y435000D02*
D03*
Y410000D02*
D03*
Y360000D02*
D03*
X459842Y150000D02*
D03*
Y175000D02*
D03*
X434842Y125000D02*
D03*
X384842D02*
D03*
X459842Y280000D02*
D03*
Y255000D02*
D03*
Y225000D02*
D03*
Y200000D02*
D03*
Y305000D02*
D03*
Y330000D02*
D03*
D75*
X155532Y356713D02*
D03*
Y333287D02*
D03*
X160846D02*
D03*
Y356713D02*
D03*
D83*
X170000Y278000D02*
D03*
X172000Y259000D02*
D03*
X151000Y280000D02*
D03*
Y259000D02*
D03*
D84*
X470000Y105000D02*
D03*
X190000Y380000D02*
D03*
X290000Y430000D02*
D03*
D88*
X133445Y196795D02*
D03*
Y171205D02*
D03*
D89*
X280000Y210000D02*
D03*
D90*
X145000Y429173D02*
D03*
D91*
X308000Y415000D02*
D03*
X304000Y417000D02*
D03*
X176000Y397000D02*
D03*
Y401000D02*
D03*
Y405000D02*
D03*
X294000Y354010D02*
D03*
X300000D02*
D03*
Y360000D02*
D03*
X144000Y206000D02*
D03*
X166000Y214000D02*
D03*
X224000Y209000D02*
D03*
X218000Y167000D02*
D03*
X220000Y209000D02*
D03*
X212000Y173000D02*
D03*
X218000D02*
D03*
X246000Y175000D02*
D03*
X212000Y167000D02*
D03*
X131000Y316000D02*
D03*
Y216000D02*
D03*
X232000Y336000D02*
D03*
X220000D02*
D03*
X210000Y340000D02*
D03*
X316405Y380188D02*
D03*
X310000Y324000D02*
D03*
X300000Y348000D02*
D03*
X197000Y367000D02*
D03*
X191000D02*
D03*
X207000D02*
D03*
X213000D02*
D03*
X181000Y327000D02*
D03*
Y353000D02*
D03*
Y359000D02*
D03*
X169000Y343000D02*
D03*
X256000Y421000D02*
D03*
X262000D02*
D03*
Y415000D02*
D03*
X290000D02*
D03*
X282000D02*
D03*
X278000Y417000D02*
D03*
X286000D02*
D03*
X200000Y397000D02*
D03*
X194000D02*
D03*
X188000D02*
D03*
X182000D02*
D03*
Y401000D02*
D03*
X188000D02*
D03*
X194000D02*
D03*
X200000D02*
D03*
X206000D02*
D03*
Y405000D02*
D03*
X200000D02*
D03*
X194000D02*
D03*
X188000D02*
D03*
X182000D02*
D03*
X212000Y439000D02*
D03*
Y445000D02*
D03*
X256000Y443000D02*
D03*
M02*
