G04*
G04 #@! TF.GenerationSoftware,Altium Limited,Altium Designer,21.7.2 (23)*
G04*
G04 Layer_Color=255*
%FSLAX25Y25*%
%MOIN*%
G70*
G04*
G04 #@! TF.SameCoordinates,5233C9E9-E8BD-4DB4-A303-C3663256A2A9*
G04*
G04*
G04 #@! TF.FilePolarity,Positive*
G04*
G01*
G75*
%ADD70C,0.06181*%
%ADD71R,0.06181X0.06181*%
%ADD73C,0.05512*%
%ADD74R,0.05512X0.05512*%
%ADD75C,0.02559*%
G04:AMPARAMS|DCode=76|XSize=35.43mil|YSize=94.49mil|CornerRadius=17.72mil|HoleSize=0mil|Usage=FLASHONLY|Rotation=270.000|XOffset=0mil|YOffset=0mil|HoleType=Round|Shape=RoundedRectangle|*
%AMROUNDEDRECTD76*
21,1,0.03543,0.05906,0,0,270.0*
21,1,0.00000,0.09449,0,0,270.0*
1,1,0.03543,-0.02953,0.00000*
1,1,0.03543,-0.02953,0.00000*
1,1,0.03543,0.02953,0.00000*
1,1,0.03543,0.02953,0.00000*
%
%ADD76ROUNDEDRECTD76*%
G04:AMPARAMS|DCode=77|XSize=35.43mil|YSize=66.93mil|CornerRadius=17.72mil|HoleSize=0mil|Usage=FLASHONLY|Rotation=270.000|XOffset=0mil|YOffset=0mil|HoleType=Round|Shape=RoundedRectangle|*
%AMROUNDEDRECTD77*
21,1,0.03543,0.03150,0,0,270.0*
21,1,0.00000,0.06693,0,0,270.0*
1,1,0.03543,-0.01575,0.00000*
1,1,0.03543,-0.01575,0.00000*
1,1,0.03543,0.01575,0.00000*
1,1,0.03543,0.01575,0.00000*
%
%ADD77ROUNDEDRECTD77*%
%ADD79C,0.06102*%
%ADD80R,0.06102X0.06102*%
%ADD83C,0.06000*%
%ADD84C,0.15000*%
%ADD85R,0.23622X0.23622*%
%ADD86R,0.05512X0.05512*%
%ADD87R,0.05906X0.05906*%
%ADD88C,0.05906*%
%ADD89O,0.08268X0.05512*%
%ADD90C,0.23622*%
D70*
X265000Y120000D02*
D03*
Y130000D02*
D03*
X235000Y120000D02*
D03*
Y130000D02*
D03*
X250000Y120000D02*
D03*
Y130000D02*
D03*
X205000Y120000D02*
D03*
Y130000D02*
D03*
X220000Y120000D02*
D03*
Y130000D02*
D03*
X190000Y120000D02*
D03*
Y130000D02*
D03*
X145000Y120000D02*
D03*
Y130000D02*
D03*
X160000Y120000D02*
D03*
Y130000D02*
D03*
X175000Y120000D02*
D03*
Y130000D02*
D03*
X310000Y120000D02*
D03*
Y130000D02*
D03*
X295000Y120000D02*
D03*
Y130000D02*
D03*
X280000Y120000D02*
D03*
Y130000D02*
D03*
D71*
X265000Y140000D02*
D03*
X235000D02*
D03*
X250000D02*
D03*
X205000D02*
D03*
X220000D02*
D03*
X190000D02*
D03*
X145000D02*
D03*
X160000D02*
D03*
X175000D02*
D03*
X310000D02*
D03*
X295000D02*
D03*
X280000D02*
D03*
D73*
X293000Y302000D02*
D03*
X283000D02*
D03*
X273000D02*
D03*
X263000D02*
D03*
X253000D02*
D03*
X243000D02*
D03*
X233000D02*
D03*
X303000Y272000D02*
D03*
X293000D02*
D03*
X283000D02*
D03*
X273000D02*
D03*
X263000D02*
D03*
X253000D02*
D03*
X243000D02*
D03*
X233000D02*
D03*
X459685Y435000D02*
D03*
X449843D02*
D03*
X459842Y410000D02*
D03*
X450000D02*
D03*
X459842Y385000D02*
D03*
X450000D02*
D03*
X459842Y360000D02*
D03*
X450000D02*
D03*
X359842Y255000D02*
D03*
X350000D02*
D03*
X359842Y280000D02*
D03*
X350000D02*
D03*
X359842Y330000D02*
D03*
X350000D02*
D03*
X359842Y305000D02*
D03*
X350000D02*
D03*
X359842Y225000D02*
D03*
X350000D02*
D03*
X359842Y200000D02*
D03*
X350000D02*
D03*
X359842Y175000D02*
D03*
X350000D02*
D03*
X359842Y150000D02*
D03*
X350000D02*
D03*
X359842Y385000D02*
D03*
X350000D02*
D03*
X359842Y435000D02*
D03*
X350000D02*
D03*
X359842Y410000D02*
D03*
X350000D02*
D03*
X359842Y360000D02*
D03*
X350000D02*
D03*
X459842Y150000D02*
D03*
X450000D02*
D03*
X459842Y175000D02*
D03*
X450000D02*
D03*
X434842Y125000D02*
D03*
X425000D02*
D03*
X384842D02*
D03*
X375000D02*
D03*
X459842Y280000D02*
D03*
X450000D02*
D03*
X459842Y255000D02*
D03*
X450000D02*
D03*
X459842Y225000D02*
D03*
X450000D02*
D03*
X459842Y200000D02*
D03*
X450000D02*
D03*
X459842Y305000D02*
D03*
X450000D02*
D03*
X459842Y330000D02*
D03*
X450000D02*
D03*
D74*
X440000Y435000D02*
D03*
X440158Y410000D02*
D03*
Y385000D02*
D03*
Y360000D02*
D03*
X340158Y255000D02*
D03*
Y280000D02*
D03*
Y330000D02*
D03*
Y305000D02*
D03*
Y225000D02*
D03*
Y200000D02*
D03*
Y175000D02*
D03*
Y150000D02*
D03*
Y385000D02*
D03*
Y435000D02*
D03*
Y410000D02*
D03*
Y360000D02*
D03*
X440158Y150000D02*
D03*
Y175000D02*
D03*
X415158Y125000D02*
D03*
X365158D02*
D03*
X440158Y280000D02*
D03*
Y255000D02*
D03*
Y225000D02*
D03*
Y200000D02*
D03*
Y305000D02*
D03*
Y330000D02*
D03*
D75*
X155532Y356713D02*
D03*
Y353366D02*
D03*
Y350020D02*
D03*
Y346673D02*
D03*
Y343327D02*
D03*
Y339980D02*
D03*
Y336634D02*
D03*
Y333287D02*
D03*
X160846D02*
D03*
Y336634D02*
D03*
Y339980D02*
D03*
Y343327D02*
D03*
Y346673D02*
D03*
Y350020D02*
D03*
Y353366D02*
D03*
Y356713D02*
D03*
D76*
X156988Y327972D02*
D03*
Y362028D02*
D03*
D77*
X143681Y327972D02*
D03*
Y362028D02*
D03*
D79*
X280157Y250000D02*
D03*
X245000D02*
D03*
D80*
X290000D02*
D03*
X254842D02*
D03*
D83*
X170000Y278000D02*
D03*
X172000Y259000D02*
D03*
X151000Y280000D02*
D03*
Y259000D02*
D03*
D84*
X470000Y105000D02*
D03*
X190000Y380000D02*
D03*
X290000Y430000D02*
D03*
D85*
X145000Y429173D02*
D03*
D86*
X303000Y302000D02*
D03*
D87*
X151161Y196795D02*
D03*
D88*
X133445D02*
D03*
Y171205D02*
D03*
X151161D02*
D03*
D89*
X280000Y210000D02*
D03*
Y190315D02*
D03*
D90*
X146201Y400827D02*
D03*
M02*
