G04*
G04 #@! TF.GenerationSoftware,Altium Limited,Altium Designer,21.7.2 (23)*
G04*
G04 Layer_Color=16711935*
%FSLAX25Y25*%
%MOIN*%
G70*
G04*
G04 #@! TF.SameCoordinates,5233C9E9-E8BD-4DB4-A303-C3663256A2A9*
G04*
G04*
G04 #@! TF.FilePolarity,Positive*
G04*
G01*
G75*
%ADD14C,0.00800*%
D14*
X125000Y100000D02*
X125048Y99020D01*
X125192Y98049D01*
X125431Y97097D01*
X125761Y96173D01*
X126181Y95286D01*
X126685Y94444D01*
X127270Y93656D01*
X127929Y92929D01*
X128656Y92270D01*
X129444Y91685D01*
X130286Y91181D01*
X131173Y90761D01*
X132097Y90431D01*
X133049Y90192D01*
X134020Y90048D01*
X135000Y90000D01*
X465000D02*
X466013Y90026D01*
X467023Y90103D01*
X468029Y90231D01*
X469026Y90409D01*
X470013Y90639D01*
X470987Y90917D01*
X471946Y91245D01*
X472887Y91621D01*
X473808Y92044D01*
X474706Y92513D01*
X475579Y93027D01*
X476425Y93585D01*
X477242Y94184D01*
X478027Y94825D01*
X478779Y95504D01*
X479496Y96221D01*
X480175Y96973D01*
X480816Y97758D01*
X481415Y98575D01*
X481973Y99421D01*
X482487Y100294D01*
X482956Y101192D01*
X483379Y102113D01*
X483755Y103054D01*
X484083Y104013D01*
X484362Y104987D01*
X484591Y105974D01*
X484769Y106972D01*
X484897Y107977D01*
X484974Y108987D01*
X485000Y110000D01*
Y440000D02*
X484952Y440980D01*
X484808Y441951D01*
X484569Y442903D01*
X484239Y443827D01*
X483819Y444714D01*
X483315Y445556D01*
X482730Y446344D01*
X482071Y447071D01*
X481344Y447730D01*
X480556Y448315D01*
X479714Y448819D01*
X478827Y449239D01*
X477903Y449569D01*
X476951Y449808D01*
X475980Y449952D01*
X475000Y450000D01*
X140000D02*
X139019Y449968D01*
X138042Y449872D01*
X137074Y449712D01*
X136118Y449489D01*
X135178Y449204D01*
X134260Y448858D01*
X133366Y448453D01*
X132500Y447990D01*
X131667Y447472D01*
X130869Y446900D01*
X130110Y446278D01*
X129393Y445607D01*
X128722Y444890D01*
X128100Y444131D01*
X127528Y443334D01*
X127010Y442500D01*
X126547Y441634D01*
X126142Y440740D01*
X125796Y439822D01*
X125511Y438882D01*
X125288Y437926D01*
X125128Y436958D01*
X125032Y435981D01*
X125000Y435000D01*
X135000Y90000D02*
X465000Y90000D01*
X485000Y110000D02*
Y440000D01*
X125000Y435000D02*
X125000Y200000D01*
X140000Y450000D02*
X475000D01*
X125000Y100000D02*
Y200000D01*
M02*
