G04*
G04 #@! TF.GenerationSoftware,Altium Limited,Altium Designer,21.7.2 (23)*
G04*
G04 Layer_Color=32896*
%FSLAX25Y25*%
%MOIN*%
G70*
G04*
G04 #@! TF.SameCoordinates,5233C9E9-E8BD-4DB4-A303-C3663256A2A9*
G04*
G04*
G04 #@! TF.FilePolarity,Positive*
G04*
G01*
G75*
%ADD92C,0.00394*%
D92*
X173755Y415000D02*
X177692D01*
X175723Y413031D02*
Y416968D01*
X304125Y407000D02*
X308062D01*
X306093Y405031D02*
Y408968D01*
X134150Y226031D02*
Y229969D01*
X132181Y228000D02*
X136118D01*
X263032Y130000D02*
X266968D01*
X265000Y128032D02*
Y131968D01*
X233032Y130000D02*
X236968D01*
X235000Y128032D02*
Y131968D01*
X248031Y130000D02*
X251969D01*
X250000Y128032D02*
Y131968D01*
X203031Y130000D02*
X206968D01*
X205000Y128032D02*
Y131968D01*
X218032Y130000D02*
X221969D01*
X220000Y128032D02*
Y131968D01*
X188031Y130000D02*
X191969D01*
X190000Y128032D02*
Y131968D01*
X143032Y130000D02*
X146968D01*
X145000Y128032D02*
Y131968D01*
X158031Y130000D02*
X161969D01*
X160000Y128032D02*
Y131968D01*
X173031Y130000D02*
X176969D01*
X175000Y128032D02*
Y131968D01*
X308032Y130000D02*
X311968D01*
X310000Y128032D02*
Y131968D01*
X293032Y130000D02*
X296969D01*
X295000Y128032D02*
Y131968D01*
X278031Y130000D02*
X281968D01*
X280000Y128032D02*
Y131968D01*
X449843Y430965D02*
Y434902D01*
X447874Y432933D02*
X451811D01*
X450000Y405965D02*
Y409902D01*
X448032Y407933D02*
X451968D01*
X450000Y380965D02*
Y384902D01*
X448032Y382933D02*
X451968D01*
X450000Y355965D02*
Y359902D01*
X448032Y357933D02*
X451968D01*
X350000Y250965D02*
Y254902D01*
X348031Y252933D02*
X351969D01*
X350000Y275965D02*
Y279902D01*
X348031Y277933D02*
X351969D01*
X350000Y325965D02*
Y329902D01*
X348031Y327933D02*
X351969D01*
X350000Y300965D02*
Y304902D01*
X348031Y302933D02*
X351969D01*
X350000Y220965D02*
Y224902D01*
X348031Y222933D02*
X351969D01*
X350000Y195965D02*
Y199902D01*
X348031Y197933D02*
X351969D01*
X350000Y170965D02*
Y174902D01*
X348031Y172933D02*
X351969D01*
X350000Y145965D02*
Y149902D01*
X348031Y147933D02*
X351969D01*
X350000Y380965D02*
Y384902D01*
X348031Y382933D02*
X351969D01*
X350000Y430965D02*
Y434902D01*
X348031Y432933D02*
X351969D01*
X350000Y405965D02*
Y409902D01*
X348031Y407933D02*
X351969D01*
X350000Y355965D02*
Y359902D01*
X348031Y357933D02*
X351969D01*
X450000Y145965D02*
Y149902D01*
X448032Y147933D02*
X451968D01*
X450000Y170965D02*
Y174902D01*
X448032Y172933D02*
X451968D01*
X425000Y120965D02*
Y124902D01*
X423032Y122933D02*
X426968D01*
X375000Y120965D02*
Y124902D01*
X373031Y122933D02*
X376969D01*
X450000Y275965D02*
Y279902D01*
X448032Y277933D02*
X451968D01*
X450000Y250965D02*
Y254902D01*
X448032Y252933D02*
X451968D01*
X450000Y220965D02*
Y224902D01*
X448032Y222933D02*
X451968D01*
X450000Y195965D02*
Y199902D01*
X448032Y197933D02*
X451968D01*
X450000Y300965D02*
Y304902D01*
X448032Y302933D02*
X451968D01*
X450000Y325965D02*
Y329902D01*
X448032Y327933D02*
X451968D01*
X468032Y122047D02*
X471969D01*
X470000Y120079D02*
Y124016D01*
X393032Y147047D02*
X396969D01*
X395000Y145079D02*
Y149016D01*
X403031Y147047D02*
X406968D01*
X405000Y145079D02*
Y149016D01*
X403031Y172047D02*
X406968D01*
X405000Y170079D02*
Y174016D01*
X393032Y172047D02*
X396969D01*
X395000Y170079D02*
Y174016D01*
X328031Y122047D02*
X331968D01*
X330000Y120079D02*
Y124016D01*
X403031Y432047D02*
X406968D01*
X405000Y430079D02*
Y434016D01*
X393032Y407047D02*
X396969D01*
X395000Y405079D02*
Y409016D01*
X403031Y407047D02*
X406968D01*
X405000Y405079D02*
Y409016D01*
X393032Y432047D02*
X396969D01*
X395000Y430079D02*
Y434016D01*
X393032Y357047D02*
X396969D01*
X395000Y355079D02*
Y359016D01*
X403031Y382047D02*
X406968D01*
X405000Y380079D02*
Y384016D01*
X403031Y357047D02*
X406968D01*
X405000Y355079D02*
Y359016D01*
X393032Y382047D02*
X396969D01*
X395000Y380079D02*
Y384016D01*
X403031Y252047D02*
X406968D01*
X405000Y250079D02*
Y254016D01*
X393032Y222047D02*
X396969D01*
X395000Y220079D02*
Y224016D01*
X403031Y302047D02*
X406968D01*
X405000Y300079D02*
Y304016D01*
X403031Y277047D02*
X406968D01*
X405000Y275079D02*
Y279016D01*
X393032Y302047D02*
X396969D01*
X395000Y300079D02*
Y304016D01*
X393032Y277047D02*
X396969D01*
X395000Y275079D02*
Y279016D01*
X403031Y327047D02*
X406968D01*
X405000Y325079D02*
Y329016D01*
X393032Y327047D02*
X396969D01*
X395000Y325079D02*
Y329016D01*
X393032Y252047D02*
X396969D01*
X395000Y250079D02*
Y254016D01*
X403031Y197047D02*
X406968D01*
X405000Y195079D02*
Y199016D01*
X393032Y197047D02*
X396969D01*
X395000Y195079D02*
Y199016D01*
X403031Y222047D02*
X406968D01*
X405000Y220079D02*
Y224016D01*
X202047Y328031D02*
Y331968D01*
X200079Y330000D02*
X204016D01*
X308032Y342047D02*
X311968D01*
X310000Y340079D02*
Y344016D01*
X143032Y345000D02*
X146968D01*
X145000Y343032D02*
Y346969D01*
X184686Y414672D02*
X188623D01*
X186654Y412703D02*
Y416640D01*
X194732Y414672D02*
X198669D01*
X196701Y412703D02*
Y416640D01*
X294078Y407000D02*
X298015D01*
X296047Y405031D02*
Y408968D01*
X284032Y407000D02*
X287968D01*
X286000Y405031D02*
Y408968D01*
X204779Y414672D02*
X208716D01*
X206747Y412703D02*
Y416640D01*
X230000Y413031D02*
Y416968D01*
X228031Y415000D02*
X231968D01*
X253917Y346779D02*
X257854D01*
X255886Y344810D02*
Y348747D01*
X284032Y326000D02*
X287968D01*
X286000Y324031D02*
Y327969D01*
X238917Y320905D02*
X242854D01*
X240886Y318937D02*
Y322874D01*
X247750Y378031D02*
Y381968D01*
X245781Y380000D02*
X249718D01*
X308032Y387047D02*
X311968D01*
X310000Y385079D02*
Y389016D01*
X285079Y250098D02*
Y254035D01*
X283110Y252067D02*
X287047D01*
X249921Y250098D02*
Y254035D01*
X247953Y252067D02*
X251890D01*
M02*
