G04*
G04 #@! TF.GenerationSoftware,Altium Limited,Altium Designer,21.7.2 (23)*
G04*
G04 Layer_Color=32768*
%FSLAX25Y25*%
%MOIN*%
G70*
G04*
G04 #@! TF.SameCoordinates,5233C9E9-E8BD-4DB4-A303-C3663256A2A9*
G04*
G04*
G04 #@! TF.FilePolarity,Positive*
G04*
G01*
G75*
%ADD92C,0.00394*%
%ADD94C,0.00197*%
D92*
X164397Y402500D02*
X168334D01*
X166366Y400531D02*
Y404468D01*
X246000Y407398D02*
Y411138D01*
X244130Y409268D02*
X247870D01*
X213000Y358862D02*
Y362602D01*
X211130Y360732D02*
X214870D01*
X268000Y285032D02*
Y288968D01*
X266032Y287000D02*
X269969D01*
X142303Y182032D02*
Y185968D01*
X140335Y184000D02*
X144272D01*
X159138Y207559D02*
X163469D01*
X159138Y197913D02*
X163469D01*
Y207559D01*
X159138Y197913D02*
Y207559D01*
X161303Y201654D02*
Y203819D01*
X160221Y202736D02*
X162386D01*
X160280Y212732D02*
X162327D01*
X161303Y211709D02*
Y213756D01*
X149571Y204539D02*
Y206586D01*
X148547Y205562D02*
X150594D01*
X158390Y208835D02*
Y213165D01*
X148744Y208835D02*
Y213165D01*
Y208835D02*
X158390D01*
X148744Y213165D02*
X158390D01*
X152484Y211000D02*
X154650D01*
X153567Y209917D02*
Y212083D01*
X280000Y200157D02*
X284921D01*
X280000D02*
Y205079D01*
X275079Y200157D02*
X280000D01*
Y195236D02*
Y200157D01*
X200335Y180413D02*
X204665D01*
X200335Y190059D02*
X204665D01*
X200335Y180413D02*
Y190059D01*
X204665Y180413D02*
Y190059D01*
X202500Y184153D02*
Y186319D01*
X201417Y185236D02*
X203583D01*
X227500Y190532D02*
Y194468D01*
X225532Y192500D02*
X229468D01*
X200335Y194941D02*
X204665D01*
X200335Y204587D02*
X204665D01*
X200335Y194941D02*
Y204587D01*
X204665Y194941D02*
Y204587D01*
X202500Y198681D02*
Y200847D01*
X201417Y199764D02*
X203583D01*
X422559Y317835D02*
Y322165D01*
X412913Y317835D02*
Y322165D01*
Y317835D02*
X422559D01*
X412913Y322165D02*
X422559D01*
X416653Y320000D02*
X418819D01*
X417736Y318917D02*
Y321083D01*
X377441Y347835D02*
Y352165D01*
X387087Y347835D02*
Y352165D01*
X377441D02*
X387087D01*
X377441Y347835D02*
X387087D01*
X381181Y350000D02*
X383347D01*
X382264Y348917D02*
Y351083D01*
X422559Y292835D02*
Y297165D01*
X412913Y292835D02*
Y297165D01*
Y292835D02*
X422559D01*
X412913Y297165D02*
X422559D01*
X416653Y295000D02*
X418819D01*
X417736Y293917D02*
Y296083D01*
X422559Y347835D02*
Y352165D01*
X412913Y347835D02*
Y352165D01*
Y347835D02*
X422559D01*
X412913Y352165D02*
X422559D01*
X416653Y350000D02*
X418819D01*
X417736Y348917D02*
Y351083D01*
X377441Y317835D02*
Y322165D01*
X387087Y317835D02*
Y322165D01*
X377441D02*
X387087D01*
X377441Y317835D02*
X387087D01*
X381181Y320000D02*
X383347D01*
X382264Y318917D02*
Y321083D01*
X447441Y112835D02*
Y117165D01*
X457087Y112835D02*
Y117165D01*
X447441D02*
X457087D01*
X447441Y112835D02*
X457087D01*
X451181Y115000D02*
X453346D01*
X452264Y113917D02*
Y116083D01*
X377441Y137835D02*
Y142165D01*
X387087Y137835D02*
Y142165D01*
X377441D02*
X387087D01*
X377441Y137835D02*
X387087D01*
X381181Y140000D02*
X383347D01*
X382264Y138917D02*
Y141083D01*
X377441Y162835D02*
Y167165D01*
X387087Y162835D02*
Y167165D01*
X377441D02*
X387087D01*
X377441Y162835D02*
X387087D01*
X381181Y165000D02*
X383347D01*
X382264Y163917D02*
Y166083D01*
X422559Y137835D02*
Y142165D01*
X412913Y137835D02*
Y142165D01*
Y137835D02*
X422559D01*
X412913Y142165D02*
X422559D01*
X416653Y140000D02*
X418819D01*
X417736Y138917D02*
Y141083D01*
X351863Y112835D02*
Y117165D01*
X342217Y112835D02*
Y117165D01*
Y112835D02*
X351863D01*
X342217Y117165D02*
X351863D01*
X345957Y115000D02*
X348123D01*
X347040Y113917D02*
Y116083D01*
X377441Y187835D02*
Y192165D01*
X387087Y187835D02*
Y192165D01*
X377441D02*
X387087D01*
X377441Y187835D02*
X387087D01*
X381181Y190000D02*
X383347D01*
X382264Y188917D02*
Y191083D01*
X422559Y422835D02*
Y427165D01*
X412913Y422835D02*
Y427165D01*
Y422835D02*
X422559D01*
X412913Y427165D02*
X422559D01*
X416653Y425000D02*
X418819D01*
X417736Y423917D02*
Y426083D01*
X422559Y397835D02*
Y402165D01*
X412913Y397835D02*
Y402165D01*
Y397835D02*
X422559D01*
X412913Y402165D02*
X422559D01*
X416653Y400000D02*
X418819D01*
X417736Y398917D02*
Y401083D01*
X422559Y372835D02*
Y377165D01*
X412913Y372835D02*
Y377165D01*
Y372835D02*
X422559D01*
X412913Y377165D02*
X422559D01*
X416653Y375000D02*
X418819D01*
X417736Y373917D02*
Y376083D01*
X377441Y397835D02*
Y402165D01*
X387087Y397835D02*
Y402165D01*
X377441D02*
X387087D01*
X377441Y397835D02*
X387087D01*
X381181Y400000D02*
X383347D01*
X382264Y398917D02*
Y401083D01*
X377441Y422835D02*
Y427165D01*
X387087Y422835D02*
Y427165D01*
X377441D02*
X387087D01*
X377441Y422835D02*
X387087D01*
X381181Y425000D02*
X383347D01*
X382264Y423917D02*
Y426083D01*
X377441Y372835D02*
Y377165D01*
X387087Y372835D02*
Y377165D01*
X377441D02*
X387087D01*
X377441Y372835D02*
X387087D01*
X381181Y375000D02*
X383347D01*
X382264Y373917D02*
Y376083D01*
X422559Y162835D02*
Y167165D01*
X412913Y162835D02*
Y167165D01*
Y162835D02*
X422559D01*
X412913Y167165D02*
X422559D01*
X416653Y165000D02*
X418819D01*
X417736Y163917D02*
Y166083D01*
X422559Y242835D02*
Y247165D01*
X412913Y242835D02*
Y247165D01*
Y242835D02*
X422559D01*
X412913Y247165D02*
X422559D01*
X416653Y245000D02*
X418819D01*
X417736Y243917D02*
Y246083D01*
X422559Y187835D02*
Y192165D01*
X412913Y187835D02*
Y192165D01*
Y187835D02*
X422559D01*
X412913Y192165D02*
X422559D01*
X416653Y190000D02*
X418819D01*
X417736Y188917D02*
Y191083D01*
X377441Y212835D02*
Y217165D01*
X387087Y212835D02*
Y217165D01*
X377441D02*
X387087D01*
X377441Y212835D02*
X387087D01*
X381181Y215000D02*
X383347D01*
X382264Y213917D02*
Y216083D01*
X422559Y212835D02*
Y217165D01*
X412913Y212835D02*
Y217165D01*
Y212835D02*
X422559D01*
X412913Y217165D02*
X422559D01*
X416653Y215000D02*
X418819D01*
X417736Y213917D02*
Y216083D01*
X377441Y242835D02*
Y247165D01*
X387087Y242835D02*
Y247165D01*
X377441D02*
X387087D01*
X377441Y242835D02*
X387087D01*
X381181Y245000D02*
X383347D01*
X382264Y243917D02*
Y246083D01*
X377441Y292835D02*
Y297165D01*
X387087Y292835D02*
Y297165D01*
X377441D02*
X387087D01*
X377441Y292835D02*
X387087D01*
X381181Y295000D02*
X383347D01*
X382264Y293917D02*
Y296083D01*
X377441Y267835D02*
Y272165D01*
X387087Y267835D02*
Y272165D01*
X377441D02*
X387087D01*
X377441Y267835D02*
X387087D01*
X381181Y270000D02*
X383347D01*
X382264Y268917D02*
Y271083D01*
X422559Y267835D02*
Y272165D01*
X412913Y267835D02*
Y272165D01*
Y267835D02*
X422559D01*
X412913Y272165D02*
X422559D01*
X416653Y270000D02*
X418819D01*
X417736Y268917D02*
Y271083D01*
X234917Y337788D02*
X237083D01*
X236000Y336705D02*
Y338871D01*
X238165Y332965D02*
Y342611D01*
X233835Y332965D02*
Y342611D01*
X238165D01*
X233835Y332965D02*
X238165D01*
X132732Y218976D02*
Y221024D01*
X131709Y220000D02*
X133756D01*
X288839Y345189D02*
Y349126D01*
X286870Y347158D02*
X290807D01*
X288839Y358032D02*
Y361968D01*
X286870Y360000D02*
X290807D01*
X217835Y338913D02*
X222165D01*
X217835Y348559D02*
X222165D01*
X217835Y338913D02*
Y348559D01*
X222165Y338913D02*
Y348559D01*
X220000Y342653D02*
Y344819D01*
X218917Y343736D02*
X221083D01*
X230000Y348031D02*
Y351969D01*
X228031Y350000D02*
X231968D01*
X224268Y431976D02*
Y434024D01*
X223244Y433000D02*
X225291D01*
X231835Y442087D02*
X236165D01*
X231835Y432441D02*
X236165D01*
Y442087D01*
X231835Y432441D02*
Y442087D01*
X234000Y436181D02*
Y438346D01*
X232917Y437264D02*
X235083D01*
X253732Y413976D02*
Y416024D01*
X252709Y415000D02*
X254756D01*
X213976D02*
X216024D01*
X215000Y413976D02*
Y416024D01*
X243441Y440835D02*
Y445165D01*
X253087Y440835D02*
Y445165D01*
X243441D02*
X253087D01*
X243441Y440835D02*
X253087D01*
X247181Y443000D02*
X249346D01*
X248264Y441917D02*
Y444083D01*
X243441Y434835D02*
Y439165D01*
X253087Y434835D02*
Y439165D01*
X243441D02*
X253087D01*
X243441Y434835D02*
X253087D01*
X247181Y437000D02*
X249346D01*
X248264Y435917D02*
Y438083D01*
X276976Y407000D02*
X279024D01*
X278000Y405976D02*
Y408024D01*
X243835Y431559D02*
X248165D01*
X243835Y421913D02*
X248165D01*
Y431559D01*
X243835Y421913D02*
Y431559D01*
X246000Y425654D02*
Y427819D01*
X244917Y426736D02*
X247083D01*
X224559Y442835D02*
Y447165D01*
X214913Y442835D02*
Y447165D01*
Y442835D02*
X224559D01*
X214913Y447165D02*
X224559D01*
X218653Y445000D02*
X220819D01*
X219736Y443917D02*
Y446083D01*
X224559Y436835D02*
Y441165D01*
X214913Y436835D02*
Y441165D01*
Y436835D02*
X224559D01*
X214913Y441165D02*
X224559D01*
X218653Y439000D02*
X220819D01*
X219736Y437917D02*
Y440083D01*
X314240Y382913D02*
X318570D01*
X314240Y392559D02*
X318570D01*
X314240Y382913D02*
Y392559D01*
X318570Y382913D02*
Y392559D01*
X316405Y386653D02*
Y388819D01*
X315322Y387736D02*
X317488D01*
X307835Y325772D02*
X312165D01*
X307835Y335418D02*
X312165D01*
X307835Y325772D02*
Y335418D01*
X312165Y325772D02*
Y335418D01*
X310000Y329512D02*
Y331678D01*
X308917Y330595D02*
X311083D01*
X199268Y357976D02*
Y360024D01*
X198244Y359000D02*
X200291D01*
X207087Y337835D02*
Y342165D01*
X197441Y337835D02*
Y342165D01*
Y337835D02*
X207087D01*
X197441Y342165D02*
X207087D01*
X201181Y340000D02*
X203346D01*
X202264Y338917D02*
Y341083D01*
X205976Y360732D02*
X208024D01*
X207000Y359709D02*
Y361756D01*
X189976Y360732D02*
X192024D01*
X191000Y359709D02*
Y361756D01*
X178087Y350835D02*
Y355165D01*
X168441Y350835D02*
Y355165D01*
Y350835D02*
X178087D01*
X168441Y355165D02*
X178087D01*
X172181Y353000D02*
X174346D01*
X173264Y351917D02*
Y354083D01*
X178087Y356835D02*
Y361165D01*
X168441Y356835D02*
Y361165D01*
Y356835D02*
X178087D01*
X168441Y361165D02*
X178087D01*
X172181Y359000D02*
X174346D01*
X173264Y357917D02*
Y360083D01*
X176877Y324835D02*
Y329165D01*
X167232Y324835D02*
Y329165D01*
Y324835D02*
X176877D01*
X167232Y329165D02*
X176877D01*
X170972Y327000D02*
X173137D01*
X172055Y325917D02*
Y328083D01*
D94*
X170401Y392461D02*
Y412539D01*
X162330Y392461D02*
Y412539D01*
X170401D01*
X162330Y392461D02*
X170401D01*
X243047Y414583D02*
X248953D01*
X243047Y403953D02*
X248953D01*
Y414583D01*
X243047Y403953D02*
Y414583D01*
X210047Y366047D02*
X215953D01*
X210047Y355417D02*
X215953D01*
Y366047D01*
X210047Y355417D02*
Y366047D01*
X227646Y305898D02*
X308354D01*
X227646Y268102D02*
X308354D01*
Y305898D01*
X227646Y268102D02*
Y305898D01*
X130098Y167858D02*
Y200142D01*
X154508D01*
Y167858D02*
Y200142D01*
X130098Y167858D02*
X154508D01*
X159335Y208992D02*
Y216472D01*
X163272Y208992D02*
Y216472D01*
X159335Y208992D02*
X163272D01*
X159335Y216472D02*
X163272D01*
X145831Y203594D02*
X153311D01*
X145831Y207531D02*
X153311D01*
Y203594D02*
Y207531D01*
X145831Y203594D02*
Y207531D01*
X259528Y220630D02*
X300472D01*
Y179685D02*
Y220630D01*
X259528Y179685D02*
X300472D01*
X259528D02*
Y220630D01*
X207815Y177933D02*
Y207067D01*
Y177933D02*
X247185D01*
Y207067D01*
X207815D02*
X247185D01*
X100528Y237165D02*
X204858D01*
X100528D02*
Y313937D01*
X204858D01*
Y237165D02*
Y313937D01*
X128992Y218032D02*
X136472D01*
X128992Y221969D02*
X136472D01*
Y218032D02*
Y221969D01*
X128992Y218032D02*
Y221969D01*
X161732Y383701D02*
Y446299D01*
X128268Y383701D02*
X161732D01*
X128268D02*
Y446299D01*
X161732D01*
X280374Y352079D02*
X297303D01*
X280374Y342236D02*
X297303D01*
X280374D02*
Y352079D01*
X297303Y342236D02*
Y352079D01*
X280374Y364921D02*
X297303D01*
X280374Y355079D02*
X297303D01*
X280374D02*
Y364921D01*
X297303Y355079D02*
Y364921D01*
X223307Y356693D02*
X236693D01*
X223307Y343307D02*
X236693D01*
Y356693D01*
X223307Y343307D02*
Y356693D01*
X220528Y431032D02*
X228008D01*
X220528Y434969D02*
X228008D01*
Y431032D02*
Y434969D01*
X220528Y431032D02*
Y434969D01*
X249992Y416968D02*
X257472D01*
X249992Y413031D02*
X257472D01*
X249992D02*
Y416968D01*
X257472Y413031D02*
Y416968D01*
X216968Y411260D02*
Y418740D01*
X213032Y411260D02*
Y418740D01*
X216968D01*
X213032Y411260D02*
X216968D01*
X276031Y403260D02*
Y410740D01*
X279969Y403260D02*
Y410740D01*
X276031Y403260D02*
X279969D01*
X276031Y410740D02*
X279969D01*
X195528Y357031D02*
X203008D01*
X195528Y360968D02*
X203008D01*
Y357031D02*
Y360968D01*
X195528Y357031D02*
Y360968D01*
X205031Y356992D02*
Y364472D01*
X208968Y356992D02*
Y364472D01*
X205031Y356992D02*
X208968D01*
X205031Y364472D02*
X208968D01*
X189032Y356992D02*
Y364472D01*
X192968Y356992D02*
Y364472D01*
X189032Y356992D02*
X192968D01*
X189032Y364472D02*
X192968D01*
X171634Y334518D02*
Y348002D01*
Y334518D02*
X188248D01*
Y348002D01*
X171634D02*
X188248D01*
M02*
